%
M48
M72
T01C0.01969
T02C0.03200
T03C0.03600
T04C0.04000
T05C0.04724
T06C0.05118
T07C0.07087
T08C0.12598
T09C0.15748
%
T01
X17548Y37233
X27391Y56918
X52981Y108099
X68729Y182902
X33296Y182902
X112036Y194713
X21485Y253769
X108099Y285265
X234083Y182902
X265580Y245894
X356131Y190776
X383690Y218335
X383690Y257706
X340383Y104162
X375816Y119910
X253769Y56918
X155343Y56918
X364005Y17548
T02
X56603Y56918
X96603Y56918
X127784Y56603
X127784Y96603
X127784Y114910
X127784Y124910
X17548Y103847
X17548Y143847
X49044Y225894
X64792Y225894
X80540Y225894
X127469Y257706
X127469Y277391
X167469Y277391
X167469Y257706
X186839Y238335
X237706Y257706
X237706Y277391
X277706Y277391
X277706Y257706
X332509Y258020
X348257Y258020
X364005Y258020
X364005Y218020
X348257Y218020
X332509Y218020
X387627Y139910
X387627Y99910
X348572Y56918
X308572Y56918
X277391Y56603
X277391Y96603
X269517Y114910
X269517Y124910
X186839Y198335
X80540Y265894
X64792Y265894
X49044Y265894
T03
X202587Y160776
X202587Y220776
T04
X19544Y198650
X78544Y198650
X139595Y195461
X139595Y225461
X153217Y147469
X173217Y147469
X231957Y147469
X251957Y147469
X265580Y195461
X265580Y225461
X326631Y190776
X385631Y190776
X251957Y88414
X231957Y88414
X173217Y88414
X153217Y88414
X173032Y37233
X114032Y37233
X232143Y37233
X291143Y37233
T05
X187587Y275580
X202587Y275580
X217587Y275580
X217587Y255580
X202587Y255580
X187587Y255580
T06
X62829Y29354
X76608Y29354
X90383Y29359
X195894Y25422
X209674Y25422
X314797Y29354
X328577Y29354
X342351Y29359
X379758Y43144
X379758Y56923
X379753Y70698
X330540Y281328
X344315Y281332
X358094Y281332
T07
X76603Y165185
X52306Y157291
X37289Y136621
X37288Y111073
X52305Y90404
X76603Y82509
X100901Y90404
X100901Y157290
X115918Y136621
X285320Y111073
X300337Y90404
X324635Y82509
X348933Y90404
X285320Y136621
X300337Y157291
X324635Y165185
X348933Y157290
X363949Y136621
T08
X21485Y285265
X21485Y21485
X383690Y21485
X383690Y285265
T09
X76603Y123847
X324635Y123847
M30
