G75*
%MOIN*%
%OFA0B0*%
%FSLAX25Y25*%
%IPPOS*%
%LPD*%
%AMOC8*
5,1,8,0,0,1.08239X$1,22.5*
%
%ADD10C,0.00000*%
%ADD11C,0.00800*%
%ADD12C,0.00400*%
%ADD13C,0.00300*%
D10*
X0005737Y0005737D02*
X0005737Y0301761D01*
X0399123Y0301761D01*
X0399123Y0005737D01*
X0005737Y0005737D01*
X0015186Y0021485D02*
X0015188Y0021643D01*
X0015194Y0021801D01*
X0015204Y0021959D01*
X0015218Y0022117D01*
X0015236Y0022274D01*
X0015257Y0022431D01*
X0015283Y0022587D01*
X0015313Y0022743D01*
X0015346Y0022898D01*
X0015384Y0023051D01*
X0015425Y0023204D01*
X0015470Y0023356D01*
X0015519Y0023507D01*
X0015572Y0023656D01*
X0015628Y0023804D01*
X0015688Y0023950D01*
X0015752Y0024095D01*
X0015820Y0024238D01*
X0015891Y0024380D01*
X0015965Y0024520D01*
X0016043Y0024657D01*
X0016125Y0024793D01*
X0016209Y0024927D01*
X0016298Y0025058D01*
X0016389Y0025187D01*
X0016484Y0025314D01*
X0016581Y0025439D01*
X0016682Y0025561D01*
X0016786Y0025680D01*
X0016893Y0025797D01*
X0017003Y0025911D01*
X0017116Y0026022D01*
X0017231Y0026131D01*
X0017349Y0026236D01*
X0017470Y0026338D01*
X0017593Y0026438D01*
X0017719Y0026534D01*
X0017847Y0026627D01*
X0017977Y0026717D01*
X0018110Y0026803D01*
X0018245Y0026887D01*
X0018381Y0026966D01*
X0018520Y0027043D01*
X0018661Y0027115D01*
X0018803Y0027185D01*
X0018947Y0027250D01*
X0019093Y0027312D01*
X0019240Y0027370D01*
X0019389Y0027425D01*
X0019539Y0027476D01*
X0019690Y0027523D01*
X0019842Y0027566D01*
X0019995Y0027605D01*
X0020150Y0027641D01*
X0020305Y0027672D01*
X0020461Y0027700D01*
X0020617Y0027724D01*
X0020774Y0027744D01*
X0020932Y0027760D01*
X0021089Y0027772D01*
X0021248Y0027780D01*
X0021406Y0027784D01*
X0021564Y0027784D01*
X0021722Y0027780D01*
X0021881Y0027772D01*
X0022038Y0027760D01*
X0022196Y0027744D01*
X0022353Y0027724D01*
X0022509Y0027700D01*
X0022665Y0027672D01*
X0022820Y0027641D01*
X0022975Y0027605D01*
X0023128Y0027566D01*
X0023280Y0027523D01*
X0023431Y0027476D01*
X0023581Y0027425D01*
X0023730Y0027370D01*
X0023877Y0027312D01*
X0024023Y0027250D01*
X0024167Y0027185D01*
X0024309Y0027115D01*
X0024450Y0027043D01*
X0024589Y0026966D01*
X0024725Y0026887D01*
X0024860Y0026803D01*
X0024993Y0026717D01*
X0025123Y0026627D01*
X0025251Y0026534D01*
X0025377Y0026438D01*
X0025500Y0026338D01*
X0025621Y0026236D01*
X0025739Y0026131D01*
X0025854Y0026022D01*
X0025967Y0025911D01*
X0026077Y0025797D01*
X0026184Y0025680D01*
X0026288Y0025561D01*
X0026389Y0025439D01*
X0026486Y0025314D01*
X0026581Y0025187D01*
X0026672Y0025058D01*
X0026761Y0024927D01*
X0026845Y0024793D01*
X0026927Y0024657D01*
X0027005Y0024520D01*
X0027079Y0024380D01*
X0027150Y0024238D01*
X0027218Y0024095D01*
X0027282Y0023950D01*
X0027342Y0023804D01*
X0027398Y0023656D01*
X0027451Y0023507D01*
X0027500Y0023356D01*
X0027545Y0023204D01*
X0027586Y0023051D01*
X0027624Y0022898D01*
X0027657Y0022743D01*
X0027687Y0022587D01*
X0027713Y0022431D01*
X0027734Y0022274D01*
X0027752Y0022117D01*
X0027766Y0021959D01*
X0027776Y0021801D01*
X0027782Y0021643D01*
X0027784Y0021485D01*
X0027782Y0021327D01*
X0027776Y0021169D01*
X0027766Y0021011D01*
X0027752Y0020853D01*
X0027734Y0020696D01*
X0027713Y0020539D01*
X0027687Y0020383D01*
X0027657Y0020227D01*
X0027624Y0020072D01*
X0027586Y0019919D01*
X0027545Y0019766D01*
X0027500Y0019614D01*
X0027451Y0019463D01*
X0027398Y0019314D01*
X0027342Y0019166D01*
X0027282Y0019020D01*
X0027218Y0018875D01*
X0027150Y0018732D01*
X0027079Y0018590D01*
X0027005Y0018450D01*
X0026927Y0018313D01*
X0026845Y0018177D01*
X0026761Y0018043D01*
X0026672Y0017912D01*
X0026581Y0017783D01*
X0026486Y0017656D01*
X0026389Y0017531D01*
X0026288Y0017409D01*
X0026184Y0017290D01*
X0026077Y0017173D01*
X0025967Y0017059D01*
X0025854Y0016948D01*
X0025739Y0016839D01*
X0025621Y0016734D01*
X0025500Y0016632D01*
X0025377Y0016532D01*
X0025251Y0016436D01*
X0025123Y0016343D01*
X0024993Y0016253D01*
X0024860Y0016167D01*
X0024725Y0016083D01*
X0024589Y0016004D01*
X0024450Y0015927D01*
X0024309Y0015855D01*
X0024167Y0015785D01*
X0024023Y0015720D01*
X0023877Y0015658D01*
X0023730Y0015600D01*
X0023581Y0015545D01*
X0023431Y0015494D01*
X0023280Y0015447D01*
X0023128Y0015404D01*
X0022975Y0015365D01*
X0022820Y0015329D01*
X0022665Y0015298D01*
X0022509Y0015270D01*
X0022353Y0015246D01*
X0022196Y0015226D01*
X0022038Y0015210D01*
X0021881Y0015198D01*
X0021722Y0015190D01*
X0021564Y0015186D01*
X0021406Y0015186D01*
X0021248Y0015190D01*
X0021089Y0015198D01*
X0020932Y0015210D01*
X0020774Y0015226D01*
X0020617Y0015246D01*
X0020461Y0015270D01*
X0020305Y0015298D01*
X0020150Y0015329D01*
X0019995Y0015365D01*
X0019842Y0015404D01*
X0019690Y0015447D01*
X0019539Y0015494D01*
X0019389Y0015545D01*
X0019240Y0015600D01*
X0019093Y0015658D01*
X0018947Y0015720D01*
X0018803Y0015785D01*
X0018661Y0015855D01*
X0018520Y0015927D01*
X0018381Y0016004D01*
X0018245Y0016083D01*
X0018110Y0016167D01*
X0017977Y0016253D01*
X0017847Y0016343D01*
X0017719Y0016436D01*
X0017593Y0016532D01*
X0017470Y0016632D01*
X0017349Y0016734D01*
X0017231Y0016839D01*
X0017116Y0016948D01*
X0017003Y0017059D01*
X0016893Y0017173D01*
X0016786Y0017290D01*
X0016682Y0017409D01*
X0016581Y0017531D01*
X0016484Y0017656D01*
X0016389Y0017783D01*
X0016298Y0017912D01*
X0016209Y0018043D01*
X0016125Y0018177D01*
X0016043Y0018313D01*
X0015965Y0018450D01*
X0015891Y0018590D01*
X0015820Y0018732D01*
X0015752Y0018875D01*
X0015688Y0019020D01*
X0015628Y0019166D01*
X0015572Y0019314D01*
X0015519Y0019463D01*
X0015470Y0019614D01*
X0015425Y0019766D01*
X0015384Y0019919D01*
X0015346Y0020072D01*
X0015313Y0020227D01*
X0015283Y0020383D01*
X0015257Y0020539D01*
X0015236Y0020696D01*
X0015218Y0020853D01*
X0015204Y0021011D01*
X0015194Y0021169D01*
X0015188Y0021327D01*
X0015186Y0021485D01*
X0068729Y0123847D02*
X0068731Y0124040D01*
X0068738Y0124233D01*
X0068750Y0124426D01*
X0068767Y0124619D01*
X0068788Y0124811D01*
X0068814Y0125002D01*
X0068845Y0125193D01*
X0068880Y0125383D01*
X0068920Y0125572D01*
X0068965Y0125760D01*
X0069014Y0125947D01*
X0069068Y0126133D01*
X0069126Y0126317D01*
X0069189Y0126500D01*
X0069257Y0126681D01*
X0069328Y0126860D01*
X0069405Y0127038D01*
X0069485Y0127214D01*
X0069570Y0127387D01*
X0069659Y0127559D01*
X0069752Y0127728D01*
X0069849Y0127895D01*
X0069951Y0128060D01*
X0070056Y0128222D01*
X0070165Y0128381D01*
X0070279Y0128538D01*
X0070396Y0128691D01*
X0070516Y0128842D01*
X0070641Y0128990D01*
X0070769Y0129135D01*
X0070900Y0129276D01*
X0071035Y0129415D01*
X0071174Y0129550D01*
X0071315Y0129681D01*
X0071460Y0129809D01*
X0071608Y0129934D01*
X0071759Y0130054D01*
X0071912Y0130171D01*
X0072069Y0130285D01*
X0072228Y0130394D01*
X0072390Y0130499D01*
X0072555Y0130601D01*
X0072722Y0130698D01*
X0072891Y0130791D01*
X0073063Y0130880D01*
X0073236Y0130965D01*
X0073412Y0131045D01*
X0073590Y0131122D01*
X0073769Y0131193D01*
X0073950Y0131261D01*
X0074133Y0131324D01*
X0074317Y0131382D01*
X0074503Y0131436D01*
X0074690Y0131485D01*
X0074878Y0131530D01*
X0075067Y0131570D01*
X0075257Y0131605D01*
X0075448Y0131636D01*
X0075639Y0131662D01*
X0075831Y0131683D01*
X0076024Y0131700D01*
X0076217Y0131712D01*
X0076410Y0131719D01*
X0076603Y0131721D01*
X0076796Y0131719D01*
X0076989Y0131712D01*
X0077182Y0131700D01*
X0077375Y0131683D01*
X0077567Y0131662D01*
X0077758Y0131636D01*
X0077949Y0131605D01*
X0078139Y0131570D01*
X0078328Y0131530D01*
X0078516Y0131485D01*
X0078703Y0131436D01*
X0078889Y0131382D01*
X0079073Y0131324D01*
X0079256Y0131261D01*
X0079437Y0131193D01*
X0079616Y0131122D01*
X0079794Y0131045D01*
X0079970Y0130965D01*
X0080143Y0130880D01*
X0080315Y0130791D01*
X0080484Y0130698D01*
X0080651Y0130601D01*
X0080816Y0130499D01*
X0080978Y0130394D01*
X0081137Y0130285D01*
X0081294Y0130171D01*
X0081447Y0130054D01*
X0081598Y0129934D01*
X0081746Y0129809D01*
X0081891Y0129681D01*
X0082032Y0129550D01*
X0082171Y0129415D01*
X0082306Y0129276D01*
X0082437Y0129135D01*
X0082565Y0128990D01*
X0082690Y0128842D01*
X0082810Y0128691D01*
X0082927Y0128538D01*
X0083041Y0128381D01*
X0083150Y0128222D01*
X0083255Y0128060D01*
X0083357Y0127895D01*
X0083454Y0127728D01*
X0083547Y0127559D01*
X0083636Y0127387D01*
X0083721Y0127214D01*
X0083801Y0127038D01*
X0083878Y0126860D01*
X0083949Y0126681D01*
X0084017Y0126500D01*
X0084080Y0126317D01*
X0084138Y0126133D01*
X0084192Y0125947D01*
X0084241Y0125760D01*
X0084286Y0125572D01*
X0084326Y0125383D01*
X0084361Y0125193D01*
X0084392Y0125002D01*
X0084418Y0124811D01*
X0084439Y0124619D01*
X0084456Y0124426D01*
X0084468Y0124233D01*
X0084475Y0124040D01*
X0084477Y0123847D01*
X0084475Y0123654D01*
X0084468Y0123461D01*
X0084456Y0123268D01*
X0084439Y0123075D01*
X0084418Y0122883D01*
X0084392Y0122692D01*
X0084361Y0122501D01*
X0084326Y0122311D01*
X0084286Y0122122D01*
X0084241Y0121934D01*
X0084192Y0121747D01*
X0084138Y0121561D01*
X0084080Y0121377D01*
X0084017Y0121194D01*
X0083949Y0121013D01*
X0083878Y0120834D01*
X0083801Y0120656D01*
X0083721Y0120480D01*
X0083636Y0120307D01*
X0083547Y0120135D01*
X0083454Y0119966D01*
X0083357Y0119799D01*
X0083255Y0119634D01*
X0083150Y0119472D01*
X0083041Y0119313D01*
X0082927Y0119156D01*
X0082810Y0119003D01*
X0082690Y0118852D01*
X0082565Y0118704D01*
X0082437Y0118559D01*
X0082306Y0118418D01*
X0082171Y0118279D01*
X0082032Y0118144D01*
X0081891Y0118013D01*
X0081746Y0117885D01*
X0081598Y0117760D01*
X0081447Y0117640D01*
X0081294Y0117523D01*
X0081137Y0117409D01*
X0080978Y0117300D01*
X0080816Y0117195D01*
X0080651Y0117093D01*
X0080484Y0116996D01*
X0080315Y0116903D01*
X0080143Y0116814D01*
X0079970Y0116729D01*
X0079794Y0116649D01*
X0079616Y0116572D01*
X0079437Y0116501D01*
X0079256Y0116433D01*
X0079073Y0116370D01*
X0078889Y0116312D01*
X0078703Y0116258D01*
X0078516Y0116209D01*
X0078328Y0116164D01*
X0078139Y0116124D01*
X0077949Y0116089D01*
X0077758Y0116058D01*
X0077567Y0116032D01*
X0077375Y0116011D01*
X0077182Y0115994D01*
X0076989Y0115982D01*
X0076796Y0115975D01*
X0076603Y0115973D01*
X0076410Y0115975D01*
X0076217Y0115982D01*
X0076024Y0115994D01*
X0075831Y0116011D01*
X0075639Y0116032D01*
X0075448Y0116058D01*
X0075257Y0116089D01*
X0075067Y0116124D01*
X0074878Y0116164D01*
X0074690Y0116209D01*
X0074503Y0116258D01*
X0074317Y0116312D01*
X0074133Y0116370D01*
X0073950Y0116433D01*
X0073769Y0116501D01*
X0073590Y0116572D01*
X0073412Y0116649D01*
X0073236Y0116729D01*
X0073063Y0116814D01*
X0072891Y0116903D01*
X0072722Y0116996D01*
X0072555Y0117093D01*
X0072390Y0117195D01*
X0072228Y0117300D01*
X0072069Y0117409D01*
X0071912Y0117523D01*
X0071759Y0117640D01*
X0071608Y0117760D01*
X0071460Y0117885D01*
X0071315Y0118013D01*
X0071174Y0118144D01*
X0071035Y0118279D01*
X0070900Y0118418D01*
X0070769Y0118559D01*
X0070641Y0118704D01*
X0070516Y0118852D01*
X0070396Y0119003D01*
X0070279Y0119156D01*
X0070165Y0119313D01*
X0070056Y0119472D01*
X0069951Y0119634D01*
X0069849Y0119799D01*
X0069752Y0119966D01*
X0069659Y0120135D01*
X0069570Y0120307D01*
X0069485Y0120480D01*
X0069405Y0120656D01*
X0069328Y0120834D01*
X0069257Y0121013D01*
X0069189Y0121194D01*
X0069126Y0121377D01*
X0069068Y0121561D01*
X0069014Y0121747D01*
X0068965Y0121934D01*
X0068920Y0122122D01*
X0068880Y0122311D01*
X0068845Y0122501D01*
X0068814Y0122692D01*
X0068788Y0122883D01*
X0068767Y0123075D01*
X0068750Y0123268D01*
X0068738Y0123461D01*
X0068731Y0123654D01*
X0068729Y0123847D01*
X0015186Y0285265D02*
X0015188Y0285423D01*
X0015194Y0285581D01*
X0015204Y0285739D01*
X0015218Y0285897D01*
X0015236Y0286054D01*
X0015257Y0286211D01*
X0015283Y0286367D01*
X0015313Y0286523D01*
X0015346Y0286678D01*
X0015384Y0286831D01*
X0015425Y0286984D01*
X0015470Y0287136D01*
X0015519Y0287287D01*
X0015572Y0287436D01*
X0015628Y0287584D01*
X0015688Y0287730D01*
X0015752Y0287875D01*
X0015820Y0288018D01*
X0015891Y0288160D01*
X0015965Y0288300D01*
X0016043Y0288437D01*
X0016125Y0288573D01*
X0016209Y0288707D01*
X0016298Y0288838D01*
X0016389Y0288967D01*
X0016484Y0289094D01*
X0016581Y0289219D01*
X0016682Y0289341D01*
X0016786Y0289460D01*
X0016893Y0289577D01*
X0017003Y0289691D01*
X0017116Y0289802D01*
X0017231Y0289911D01*
X0017349Y0290016D01*
X0017470Y0290118D01*
X0017593Y0290218D01*
X0017719Y0290314D01*
X0017847Y0290407D01*
X0017977Y0290497D01*
X0018110Y0290583D01*
X0018245Y0290667D01*
X0018381Y0290746D01*
X0018520Y0290823D01*
X0018661Y0290895D01*
X0018803Y0290965D01*
X0018947Y0291030D01*
X0019093Y0291092D01*
X0019240Y0291150D01*
X0019389Y0291205D01*
X0019539Y0291256D01*
X0019690Y0291303D01*
X0019842Y0291346D01*
X0019995Y0291385D01*
X0020150Y0291421D01*
X0020305Y0291452D01*
X0020461Y0291480D01*
X0020617Y0291504D01*
X0020774Y0291524D01*
X0020932Y0291540D01*
X0021089Y0291552D01*
X0021248Y0291560D01*
X0021406Y0291564D01*
X0021564Y0291564D01*
X0021722Y0291560D01*
X0021881Y0291552D01*
X0022038Y0291540D01*
X0022196Y0291524D01*
X0022353Y0291504D01*
X0022509Y0291480D01*
X0022665Y0291452D01*
X0022820Y0291421D01*
X0022975Y0291385D01*
X0023128Y0291346D01*
X0023280Y0291303D01*
X0023431Y0291256D01*
X0023581Y0291205D01*
X0023730Y0291150D01*
X0023877Y0291092D01*
X0024023Y0291030D01*
X0024167Y0290965D01*
X0024309Y0290895D01*
X0024450Y0290823D01*
X0024589Y0290746D01*
X0024725Y0290667D01*
X0024860Y0290583D01*
X0024993Y0290497D01*
X0025123Y0290407D01*
X0025251Y0290314D01*
X0025377Y0290218D01*
X0025500Y0290118D01*
X0025621Y0290016D01*
X0025739Y0289911D01*
X0025854Y0289802D01*
X0025967Y0289691D01*
X0026077Y0289577D01*
X0026184Y0289460D01*
X0026288Y0289341D01*
X0026389Y0289219D01*
X0026486Y0289094D01*
X0026581Y0288967D01*
X0026672Y0288838D01*
X0026761Y0288707D01*
X0026845Y0288573D01*
X0026927Y0288437D01*
X0027005Y0288300D01*
X0027079Y0288160D01*
X0027150Y0288018D01*
X0027218Y0287875D01*
X0027282Y0287730D01*
X0027342Y0287584D01*
X0027398Y0287436D01*
X0027451Y0287287D01*
X0027500Y0287136D01*
X0027545Y0286984D01*
X0027586Y0286831D01*
X0027624Y0286678D01*
X0027657Y0286523D01*
X0027687Y0286367D01*
X0027713Y0286211D01*
X0027734Y0286054D01*
X0027752Y0285897D01*
X0027766Y0285739D01*
X0027776Y0285581D01*
X0027782Y0285423D01*
X0027784Y0285265D01*
X0027782Y0285107D01*
X0027776Y0284949D01*
X0027766Y0284791D01*
X0027752Y0284633D01*
X0027734Y0284476D01*
X0027713Y0284319D01*
X0027687Y0284163D01*
X0027657Y0284007D01*
X0027624Y0283852D01*
X0027586Y0283699D01*
X0027545Y0283546D01*
X0027500Y0283394D01*
X0027451Y0283243D01*
X0027398Y0283094D01*
X0027342Y0282946D01*
X0027282Y0282800D01*
X0027218Y0282655D01*
X0027150Y0282512D01*
X0027079Y0282370D01*
X0027005Y0282230D01*
X0026927Y0282093D01*
X0026845Y0281957D01*
X0026761Y0281823D01*
X0026672Y0281692D01*
X0026581Y0281563D01*
X0026486Y0281436D01*
X0026389Y0281311D01*
X0026288Y0281189D01*
X0026184Y0281070D01*
X0026077Y0280953D01*
X0025967Y0280839D01*
X0025854Y0280728D01*
X0025739Y0280619D01*
X0025621Y0280514D01*
X0025500Y0280412D01*
X0025377Y0280312D01*
X0025251Y0280216D01*
X0025123Y0280123D01*
X0024993Y0280033D01*
X0024860Y0279947D01*
X0024725Y0279863D01*
X0024589Y0279784D01*
X0024450Y0279707D01*
X0024309Y0279635D01*
X0024167Y0279565D01*
X0024023Y0279500D01*
X0023877Y0279438D01*
X0023730Y0279380D01*
X0023581Y0279325D01*
X0023431Y0279274D01*
X0023280Y0279227D01*
X0023128Y0279184D01*
X0022975Y0279145D01*
X0022820Y0279109D01*
X0022665Y0279078D01*
X0022509Y0279050D01*
X0022353Y0279026D01*
X0022196Y0279006D01*
X0022038Y0278990D01*
X0021881Y0278978D01*
X0021722Y0278970D01*
X0021564Y0278966D01*
X0021406Y0278966D01*
X0021248Y0278970D01*
X0021089Y0278978D01*
X0020932Y0278990D01*
X0020774Y0279006D01*
X0020617Y0279026D01*
X0020461Y0279050D01*
X0020305Y0279078D01*
X0020150Y0279109D01*
X0019995Y0279145D01*
X0019842Y0279184D01*
X0019690Y0279227D01*
X0019539Y0279274D01*
X0019389Y0279325D01*
X0019240Y0279380D01*
X0019093Y0279438D01*
X0018947Y0279500D01*
X0018803Y0279565D01*
X0018661Y0279635D01*
X0018520Y0279707D01*
X0018381Y0279784D01*
X0018245Y0279863D01*
X0018110Y0279947D01*
X0017977Y0280033D01*
X0017847Y0280123D01*
X0017719Y0280216D01*
X0017593Y0280312D01*
X0017470Y0280412D01*
X0017349Y0280514D01*
X0017231Y0280619D01*
X0017116Y0280728D01*
X0017003Y0280839D01*
X0016893Y0280953D01*
X0016786Y0281070D01*
X0016682Y0281189D01*
X0016581Y0281311D01*
X0016484Y0281436D01*
X0016389Y0281563D01*
X0016298Y0281692D01*
X0016209Y0281823D01*
X0016125Y0281957D01*
X0016043Y0282093D01*
X0015965Y0282230D01*
X0015891Y0282370D01*
X0015820Y0282512D01*
X0015752Y0282655D01*
X0015688Y0282800D01*
X0015628Y0282946D01*
X0015572Y0283094D01*
X0015519Y0283243D01*
X0015470Y0283394D01*
X0015425Y0283546D01*
X0015384Y0283699D01*
X0015346Y0283852D01*
X0015313Y0284007D01*
X0015283Y0284163D01*
X0015257Y0284319D01*
X0015236Y0284476D01*
X0015218Y0284633D01*
X0015204Y0284791D01*
X0015194Y0284949D01*
X0015188Y0285107D01*
X0015186Y0285265D01*
X0316761Y0123847D02*
X0316763Y0124040D01*
X0316770Y0124233D01*
X0316782Y0124426D01*
X0316799Y0124619D01*
X0316820Y0124811D01*
X0316846Y0125002D01*
X0316877Y0125193D01*
X0316912Y0125383D01*
X0316952Y0125572D01*
X0316997Y0125760D01*
X0317046Y0125947D01*
X0317100Y0126133D01*
X0317158Y0126317D01*
X0317221Y0126500D01*
X0317289Y0126681D01*
X0317360Y0126860D01*
X0317437Y0127038D01*
X0317517Y0127214D01*
X0317602Y0127387D01*
X0317691Y0127559D01*
X0317784Y0127728D01*
X0317881Y0127895D01*
X0317983Y0128060D01*
X0318088Y0128222D01*
X0318197Y0128381D01*
X0318311Y0128538D01*
X0318428Y0128691D01*
X0318548Y0128842D01*
X0318673Y0128990D01*
X0318801Y0129135D01*
X0318932Y0129276D01*
X0319067Y0129415D01*
X0319206Y0129550D01*
X0319347Y0129681D01*
X0319492Y0129809D01*
X0319640Y0129934D01*
X0319791Y0130054D01*
X0319944Y0130171D01*
X0320101Y0130285D01*
X0320260Y0130394D01*
X0320422Y0130499D01*
X0320587Y0130601D01*
X0320754Y0130698D01*
X0320923Y0130791D01*
X0321095Y0130880D01*
X0321268Y0130965D01*
X0321444Y0131045D01*
X0321622Y0131122D01*
X0321801Y0131193D01*
X0321982Y0131261D01*
X0322165Y0131324D01*
X0322349Y0131382D01*
X0322535Y0131436D01*
X0322722Y0131485D01*
X0322910Y0131530D01*
X0323099Y0131570D01*
X0323289Y0131605D01*
X0323480Y0131636D01*
X0323671Y0131662D01*
X0323863Y0131683D01*
X0324056Y0131700D01*
X0324249Y0131712D01*
X0324442Y0131719D01*
X0324635Y0131721D01*
X0324828Y0131719D01*
X0325021Y0131712D01*
X0325214Y0131700D01*
X0325407Y0131683D01*
X0325599Y0131662D01*
X0325790Y0131636D01*
X0325981Y0131605D01*
X0326171Y0131570D01*
X0326360Y0131530D01*
X0326548Y0131485D01*
X0326735Y0131436D01*
X0326921Y0131382D01*
X0327105Y0131324D01*
X0327288Y0131261D01*
X0327469Y0131193D01*
X0327648Y0131122D01*
X0327826Y0131045D01*
X0328002Y0130965D01*
X0328175Y0130880D01*
X0328347Y0130791D01*
X0328516Y0130698D01*
X0328683Y0130601D01*
X0328848Y0130499D01*
X0329010Y0130394D01*
X0329169Y0130285D01*
X0329326Y0130171D01*
X0329479Y0130054D01*
X0329630Y0129934D01*
X0329778Y0129809D01*
X0329923Y0129681D01*
X0330064Y0129550D01*
X0330203Y0129415D01*
X0330338Y0129276D01*
X0330469Y0129135D01*
X0330597Y0128990D01*
X0330722Y0128842D01*
X0330842Y0128691D01*
X0330959Y0128538D01*
X0331073Y0128381D01*
X0331182Y0128222D01*
X0331287Y0128060D01*
X0331389Y0127895D01*
X0331486Y0127728D01*
X0331579Y0127559D01*
X0331668Y0127387D01*
X0331753Y0127214D01*
X0331833Y0127038D01*
X0331910Y0126860D01*
X0331981Y0126681D01*
X0332049Y0126500D01*
X0332112Y0126317D01*
X0332170Y0126133D01*
X0332224Y0125947D01*
X0332273Y0125760D01*
X0332318Y0125572D01*
X0332358Y0125383D01*
X0332393Y0125193D01*
X0332424Y0125002D01*
X0332450Y0124811D01*
X0332471Y0124619D01*
X0332488Y0124426D01*
X0332500Y0124233D01*
X0332507Y0124040D01*
X0332509Y0123847D01*
X0332507Y0123654D01*
X0332500Y0123461D01*
X0332488Y0123268D01*
X0332471Y0123075D01*
X0332450Y0122883D01*
X0332424Y0122692D01*
X0332393Y0122501D01*
X0332358Y0122311D01*
X0332318Y0122122D01*
X0332273Y0121934D01*
X0332224Y0121747D01*
X0332170Y0121561D01*
X0332112Y0121377D01*
X0332049Y0121194D01*
X0331981Y0121013D01*
X0331910Y0120834D01*
X0331833Y0120656D01*
X0331753Y0120480D01*
X0331668Y0120307D01*
X0331579Y0120135D01*
X0331486Y0119966D01*
X0331389Y0119799D01*
X0331287Y0119634D01*
X0331182Y0119472D01*
X0331073Y0119313D01*
X0330959Y0119156D01*
X0330842Y0119003D01*
X0330722Y0118852D01*
X0330597Y0118704D01*
X0330469Y0118559D01*
X0330338Y0118418D01*
X0330203Y0118279D01*
X0330064Y0118144D01*
X0329923Y0118013D01*
X0329778Y0117885D01*
X0329630Y0117760D01*
X0329479Y0117640D01*
X0329326Y0117523D01*
X0329169Y0117409D01*
X0329010Y0117300D01*
X0328848Y0117195D01*
X0328683Y0117093D01*
X0328516Y0116996D01*
X0328347Y0116903D01*
X0328175Y0116814D01*
X0328002Y0116729D01*
X0327826Y0116649D01*
X0327648Y0116572D01*
X0327469Y0116501D01*
X0327288Y0116433D01*
X0327105Y0116370D01*
X0326921Y0116312D01*
X0326735Y0116258D01*
X0326548Y0116209D01*
X0326360Y0116164D01*
X0326171Y0116124D01*
X0325981Y0116089D01*
X0325790Y0116058D01*
X0325599Y0116032D01*
X0325407Y0116011D01*
X0325214Y0115994D01*
X0325021Y0115982D01*
X0324828Y0115975D01*
X0324635Y0115973D01*
X0324442Y0115975D01*
X0324249Y0115982D01*
X0324056Y0115994D01*
X0323863Y0116011D01*
X0323671Y0116032D01*
X0323480Y0116058D01*
X0323289Y0116089D01*
X0323099Y0116124D01*
X0322910Y0116164D01*
X0322722Y0116209D01*
X0322535Y0116258D01*
X0322349Y0116312D01*
X0322165Y0116370D01*
X0321982Y0116433D01*
X0321801Y0116501D01*
X0321622Y0116572D01*
X0321444Y0116649D01*
X0321268Y0116729D01*
X0321095Y0116814D01*
X0320923Y0116903D01*
X0320754Y0116996D01*
X0320587Y0117093D01*
X0320422Y0117195D01*
X0320260Y0117300D01*
X0320101Y0117409D01*
X0319944Y0117523D01*
X0319791Y0117640D01*
X0319640Y0117760D01*
X0319492Y0117885D01*
X0319347Y0118013D01*
X0319206Y0118144D01*
X0319067Y0118279D01*
X0318932Y0118418D01*
X0318801Y0118559D01*
X0318673Y0118704D01*
X0318548Y0118852D01*
X0318428Y0119003D01*
X0318311Y0119156D01*
X0318197Y0119313D01*
X0318088Y0119472D01*
X0317983Y0119634D01*
X0317881Y0119799D01*
X0317784Y0119966D01*
X0317691Y0120135D01*
X0317602Y0120307D01*
X0317517Y0120480D01*
X0317437Y0120656D01*
X0317360Y0120834D01*
X0317289Y0121013D01*
X0317221Y0121194D01*
X0317158Y0121377D01*
X0317100Y0121561D01*
X0317046Y0121747D01*
X0316997Y0121934D01*
X0316952Y0122122D01*
X0316912Y0122311D01*
X0316877Y0122501D01*
X0316846Y0122692D01*
X0316820Y0122883D01*
X0316799Y0123075D01*
X0316782Y0123268D01*
X0316770Y0123461D01*
X0316763Y0123654D01*
X0316761Y0123847D01*
X0377391Y0021485D02*
X0377393Y0021643D01*
X0377399Y0021801D01*
X0377409Y0021959D01*
X0377423Y0022117D01*
X0377441Y0022274D01*
X0377462Y0022431D01*
X0377488Y0022587D01*
X0377518Y0022743D01*
X0377551Y0022898D01*
X0377589Y0023051D01*
X0377630Y0023204D01*
X0377675Y0023356D01*
X0377724Y0023507D01*
X0377777Y0023656D01*
X0377833Y0023804D01*
X0377893Y0023950D01*
X0377957Y0024095D01*
X0378025Y0024238D01*
X0378096Y0024380D01*
X0378170Y0024520D01*
X0378248Y0024657D01*
X0378330Y0024793D01*
X0378414Y0024927D01*
X0378503Y0025058D01*
X0378594Y0025187D01*
X0378689Y0025314D01*
X0378786Y0025439D01*
X0378887Y0025561D01*
X0378991Y0025680D01*
X0379098Y0025797D01*
X0379208Y0025911D01*
X0379321Y0026022D01*
X0379436Y0026131D01*
X0379554Y0026236D01*
X0379675Y0026338D01*
X0379798Y0026438D01*
X0379924Y0026534D01*
X0380052Y0026627D01*
X0380182Y0026717D01*
X0380315Y0026803D01*
X0380450Y0026887D01*
X0380586Y0026966D01*
X0380725Y0027043D01*
X0380866Y0027115D01*
X0381008Y0027185D01*
X0381152Y0027250D01*
X0381298Y0027312D01*
X0381445Y0027370D01*
X0381594Y0027425D01*
X0381744Y0027476D01*
X0381895Y0027523D01*
X0382047Y0027566D01*
X0382200Y0027605D01*
X0382355Y0027641D01*
X0382510Y0027672D01*
X0382666Y0027700D01*
X0382822Y0027724D01*
X0382979Y0027744D01*
X0383137Y0027760D01*
X0383294Y0027772D01*
X0383453Y0027780D01*
X0383611Y0027784D01*
X0383769Y0027784D01*
X0383927Y0027780D01*
X0384086Y0027772D01*
X0384243Y0027760D01*
X0384401Y0027744D01*
X0384558Y0027724D01*
X0384714Y0027700D01*
X0384870Y0027672D01*
X0385025Y0027641D01*
X0385180Y0027605D01*
X0385333Y0027566D01*
X0385485Y0027523D01*
X0385636Y0027476D01*
X0385786Y0027425D01*
X0385935Y0027370D01*
X0386082Y0027312D01*
X0386228Y0027250D01*
X0386372Y0027185D01*
X0386514Y0027115D01*
X0386655Y0027043D01*
X0386794Y0026966D01*
X0386930Y0026887D01*
X0387065Y0026803D01*
X0387198Y0026717D01*
X0387328Y0026627D01*
X0387456Y0026534D01*
X0387582Y0026438D01*
X0387705Y0026338D01*
X0387826Y0026236D01*
X0387944Y0026131D01*
X0388059Y0026022D01*
X0388172Y0025911D01*
X0388282Y0025797D01*
X0388389Y0025680D01*
X0388493Y0025561D01*
X0388594Y0025439D01*
X0388691Y0025314D01*
X0388786Y0025187D01*
X0388877Y0025058D01*
X0388966Y0024927D01*
X0389050Y0024793D01*
X0389132Y0024657D01*
X0389210Y0024520D01*
X0389284Y0024380D01*
X0389355Y0024238D01*
X0389423Y0024095D01*
X0389487Y0023950D01*
X0389547Y0023804D01*
X0389603Y0023656D01*
X0389656Y0023507D01*
X0389705Y0023356D01*
X0389750Y0023204D01*
X0389791Y0023051D01*
X0389829Y0022898D01*
X0389862Y0022743D01*
X0389892Y0022587D01*
X0389918Y0022431D01*
X0389939Y0022274D01*
X0389957Y0022117D01*
X0389971Y0021959D01*
X0389981Y0021801D01*
X0389987Y0021643D01*
X0389989Y0021485D01*
X0389987Y0021327D01*
X0389981Y0021169D01*
X0389971Y0021011D01*
X0389957Y0020853D01*
X0389939Y0020696D01*
X0389918Y0020539D01*
X0389892Y0020383D01*
X0389862Y0020227D01*
X0389829Y0020072D01*
X0389791Y0019919D01*
X0389750Y0019766D01*
X0389705Y0019614D01*
X0389656Y0019463D01*
X0389603Y0019314D01*
X0389547Y0019166D01*
X0389487Y0019020D01*
X0389423Y0018875D01*
X0389355Y0018732D01*
X0389284Y0018590D01*
X0389210Y0018450D01*
X0389132Y0018313D01*
X0389050Y0018177D01*
X0388966Y0018043D01*
X0388877Y0017912D01*
X0388786Y0017783D01*
X0388691Y0017656D01*
X0388594Y0017531D01*
X0388493Y0017409D01*
X0388389Y0017290D01*
X0388282Y0017173D01*
X0388172Y0017059D01*
X0388059Y0016948D01*
X0387944Y0016839D01*
X0387826Y0016734D01*
X0387705Y0016632D01*
X0387582Y0016532D01*
X0387456Y0016436D01*
X0387328Y0016343D01*
X0387198Y0016253D01*
X0387065Y0016167D01*
X0386930Y0016083D01*
X0386794Y0016004D01*
X0386655Y0015927D01*
X0386514Y0015855D01*
X0386372Y0015785D01*
X0386228Y0015720D01*
X0386082Y0015658D01*
X0385935Y0015600D01*
X0385786Y0015545D01*
X0385636Y0015494D01*
X0385485Y0015447D01*
X0385333Y0015404D01*
X0385180Y0015365D01*
X0385025Y0015329D01*
X0384870Y0015298D01*
X0384714Y0015270D01*
X0384558Y0015246D01*
X0384401Y0015226D01*
X0384243Y0015210D01*
X0384086Y0015198D01*
X0383927Y0015190D01*
X0383769Y0015186D01*
X0383611Y0015186D01*
X0383453Y0015190D01*
X0383294Y0015198D01*
X0383137Y0015210D01*
X0382979Y0015226D01*
X0382822Y0015246D01*
X0382666Y0015270D01*
X0382510Y0015298D01*
X0382355Y0015329D01*
X0382200Y0015365D01*
X0382047Y0015404D01*
X0381895Y0015447D01*
X0381744Y0015494D01*
X0381594Y0015545D01*
X0381445Y0015600D01*
X0381298Y0015658D01*
X0381152Y0015720D01*
X0381008Y0015785D01*
X0380866Y0015855D01*
X0380725Y0015927D01*
X0380586Y0016004D01*
X0380450Y0016083D01*
X0380315Y0016167D01*
X0380182Y0016253D01*
X0380052Y0016343D01*
X0379924Y0016436D01*
X0379798Y0016532D01*
X0379675Y0016632D01*
X0379554Y0016734D01*
X0379436Y0016839D01*
X0379321Y0016948D01*
X0379208Y0017059D01*
X0379098Y0017173D01*
X0378991Y0017290D01*
X0378887Y0017409D01*
X0378786Y0017531D01*
X0378689Y0017656D01*
X0378594Y0017783D01*
X0378503Y0017912D01*
X0378414Y0018043D01*
X0378330Y0018177D01*
X0378248Y0018313D01*
X0378170Y0018450D01*
X0378096Y0018590D01*
X0378025Y0018732D01*
X0377957Y0018875D01*
X0377893Y0019020D01*
X0377833Y0019166D01*
X0377777Y0019314D01*
X0377724Y0019463D01*
X0377675Y0019614D01*
X0377630Y0019766D01*
X0377589Y0019919D01*
X0377551Y0020072D01*
X0377518Y0020227D01*
X0377488Y0020383D01*
X0377462Y0020539D01*
X0377441Y0020696D01*
X0377423Y0020853D01*
X0377409Y0021011D01*
X0377399Y0021169D01*
X0377393Y0021327D01*
X0377391Y0021485D01*
X0377391Y0285265D02*
X0377393Y0285423D01*
X0377399Y0285581D01*
X0377409Y0285739D01*
X0377423Y0285897D01*
X0377441Y0286054D01*
X0377462Y0286211D01*
X0377488Y0286367D01*
X0377518Y0286523D01*
X0377551Y0286678D01*
X0377589Y0286831D01*
X0377630Y0286984D01*
X0377675Y0287136D01*
X0377724Y0287287D01*
X0377777Y0287436D01*
X0377833Y0287584D01*
X0377893Y0287730D01*
X0377957Y0287875D01*
X0378025Y0288018D01*
X0378096Y0288160D01*
X0378170Y0288300D01*
X0378248Y0288437D01*
X0378330Y0288573D01*
X0378414Y0288707D01*
X0378503Y0288838D01*
X0378594Y0288967D01*
X0378689Y0289094D01*
X0378786Y0289219D01*
X0378887Y0289341D01*
X0378991Y0289460D01*
X0379098Y0289577D01*
X0379208Y0289691D01*
X0379321Y0289802D01*
X0379436Y0289911D01*
X0379554Y0290016D01*
X0379675Y0290118D01*
X0379798Y0290218D01*
X0379924Y0290314D01*
X0380052Y0290407D01*
X0380182Y0290497D01*
X0380315Y0290583D01*
X0380450Y0290667D01*
X0380586Y0290746D01*
X0380725Y0290823D01*
X0380866Y0290895D01*
X0381008Y0290965D01*
X0381152Y0291030D01*
X0381298Y0291092D01*
X0381445Y0291150D01*
X0381594Y0291205D01*
X0381744Y0291256D01*
X0381895Y0291303D01*
X0382047Y0291346D01*
X0382200Y0291385D01*
X0382355Y0291421D01*
X0382510Y0291452D01*
X0382666Y0291480D01*
X0382822Y0291504D01*
X0382979Y0291524D01*
X0383137Y0291540D01*
X0383294Y0291552D01*
X0383453Y0291560D01*
X0383611Y0291564D01*
X0383769Y0291564D01*
X0383927Y0291560D01*
X0384086Y0291552D01*
X0384243Y0291540D01*
X0384401Y0291524D01*
X0384558Y0291504D01*
X0384714Y0291480D01*
X0384870Y0291452D01*
X0385025Y0291421D01*
X0385180Y0291385D01*
X0385333Y0291346D01*
X0385485Y0291303D01*
X0385636Y0291256D01*
X0385786Y0291205D01*
X0385935Y0291150D01*
X0386082Y0291092D01*
X0386228Y0291030D01*
X0386372Y0290965D01*
X0386514Y0290895D01*
X0386655Y0290823D01*
X0386794Y0290746D01*
X0386930Y0290667D01*
X0387065Y0290583D01*
X0387198Y0290497D01*
X0387328Y0290407D01*
X0387456Y0290314D01*
X0387582Y0290218D01*
X0387705Y0290118D01*
X0387826Y0290016D01*
X0387944Y0289911D01*
X0388059Y0289802D01*
X0388172Y0289691D01*
X0388282Y0289577D01*
X0388389Y0289460D01*
X0388493Y0289341D01*
X0388594Y0289219D01*
X0388691Y0289094D01*
X0388786Y0288967D01*
X0388877Y0288838D01*
X0388966Y0288707D01*
X0389050Y0288573D01*
X0389132Y0288437D01*
X0389210Y0288300D01*
X0389284Y0288160D01*
X0389355Y0288018D01*
X0389423Y0287875D01*
X0389487Y0287730D01*
X0389547Y0287584D01*
X0389603Y0287436D01*
X0389656Y0287287D01*
X0389705Y0287136D01*
X0389750Y0286984D01*
X0389791Y0286831D01*
X0389829Y0286678D01*
X0389862Y0286523D01*
X0389892Y0286367D01*
X0389918Y0286211D01*
X0389939Y0286054D01*
X0389957Y0285897D01*
X0389971Y0285739D01*
X0389981Y0285581D01*
X0389987Y0285423D01*
X0389989Y0285265D01*
X0389987Y0285107D01*
X0389981Y0284949D01*
X0389971Y0284791D01*
X0389957Y0284633D01*
X0389939Y0284476D01*
X0389918Y0284319D01*
X0389892Y0284163D01*
X0389862Y0284007D01*
X0389829Y0283852D01*
X0389791Y0283699D01*
X0389750Y0283546D01*
X0389705Y0283394D01*
X0389656Y0283243D01*
X0389603Y0283094D01*
X0389547Y0282946D01*
X0389487Y0282800D01*
X0389423Y0282655D01*
X0389355Y0282512D01*
X0389284Y0282370D01*
X0389210Y0282230D01*
X0389132Y0282093D01*
X0389050Y0281957D01*
X0388966Y0281823D01*
X0388877Y0281692D01*
X0388786Y0281563D01*
X0388691Y0281436D01*
X0388594Y0281311D01*
X0388493Y0281189D01*
X0388389Y0281070D01*
X0388282Y0280953D01*
X0388172Y0280839D01*
X0388059Y0280728D01*
X0387944Y0280619D01*
X0387826Y0280514D01*
X0387705Y0280412D01*
X0387582Y0280312D01*
X0387456Y0280216D01*
X0387328Y0280123D01*
X0387198Y0280033D01*
X0387065Y0279947D01*
X0386930Y0279863D01*
X0386794Y0279784D01*
X0386655Y0279707D01*
X0386514Y0279635D01*
X0386372Y0279565D01*
X0386228Y0279500D01*
X0386082Y0279438D01*
X0385935Y0279380D01*
X0385786Y0279325D01*
X0385636Y0279274D01*
X0385485Y0279227D01*
X0385333Y0279184D01*
X0385180Y0279145D01*
X0385025Y0279109D01*
X0384870Y0279078D01*
X0384714Y0279050D01*
X0384558Y0279026D01*
X0384401Y0279006D01*
X0384243Y0278990D01*
X0384086Y0278978D01*
X0383927Y0278970D01*
X0383769Y0278966D01*
X0383611Y0278966D01*
X0383453Y0278970D01*
X0383294Y0278978D01*
X0383137Y0278990D01*
X0382979Y0279006D01*
X0382822Y0279026D01*
X0382666Y0279050D01*
X0382510Y0279078D01*
X0382355Y0279109D01*
X0382200Y0279145D01*
X0382047Y0279184D01*
X0381895Y0279227D01*
X0381744Y0279274D01*
X0381594Y0279325D01*
X0381445Y0279380D01*
X0381298Y0279438D01*
X0381152Y0279500D01*
X0381008Y0279565D01*
X0380866Y0279635D01*
X0380725Y0279707D01*
X0380586Y0279784D01*
X0380450Y0279863D01*
X0380315Y0279947D01*
X0380182Y0280033D01*
X0380052Y0280123D01*
X0379924Y0280216D01*
X0379798Y0280312D01*
X0379675Y0280412D01*
X0379554Y0280514D01*
X0379436Y0280619D01*
X0379321Y0280728D01*
X0379208Y0280839D01*
X0379098Y0280953D01*
X0378991Y0281070D01*
X0378887Y0281189D01*
X0378786Y0281311D01*
X0378689Y0281436D01*
X0378594Y0281563D01*
X0378503Y0281692D01*
X0378414Y0281823D01*
X0378330Y0281957D01*
X0378248Y0282093D01*
X0378170Y0282230D01*
X0378096Y0282370D01*
X0378025Y0282512D01*
X0377957Y0282655D01*
X0377893Y0282800D01*
X0377833Y0282946D01*
X0377777Y0283094D01*
X0377724Y0283243D01*
X0377675Y0283394D01*
X0377630Y0283546D01*
X0377589Y0283699D01*
X0377551Y0283852D01*
X0377518Y0284007D01*
X0377488Y0284163D01*
X0377462Y0284319D01*
X0377441Y0284476D01*
X0377423Y0284633D01*
X0377409Y0284791D01*
X0377399Y0284949D01*
X0377393Y0285107D01*
X0377391Y0285265D01*
D11*
X0330146Y0152685D02*
X0319222Y0152685D01*
X0319221Y0144811D01*
X0320797Y0145107D02*
X0320796Y0151110D01*
X0328572Y0151110D01*
X0328572Y0145106D01*
X0330146Y0144811D02*
X0330146Y0152685D01*
X0324635Y0150027D02*
X0324537Y0149952D01*
X0324441Y0149873D01*
X0324349Y0149791D01*
X0324258Y0149706D01*
X0324171Y0149619D01*
X0324086Y0149529D01*
X0324004Y0149436D01*
X0323925Y0149341D01*
X0323849Y0149243D01*
X0323776Y0149143D01*
X0323707Y0149041D01*
X0323640Y0148936D01*
X0323577Y0148830D01*
X0323517Y0148721D01*
X0323461Y0148611D01*
X0323408Y0148499D01*
X0323359Y0148386D01*
X0323314Y0148270D01*
X0323272Y0148154D01*
X0323233Y0148036D01*
X0323199Y0147918D01*
X0323168Y0147798D01*
X0323141Y0147677D01*
X0323118Y0147555D01*
X0323098Y0147433D01*
X0323083Y0147310D01*
X0323071Y0147187D01*
X0323063Y0147064D01*
X0323059Y0146940D01*
X0323059Y0146816D01*
X0323063Y0146692D01*
X0323071Y0146569D01*
X0323083Y0146446D01*
X0323098Y0146323D01*
X0323118Y0146201D01*
X0323141Y0146079D01*
X0323168Y0145958D01*
X0323199Y0145838D01*
X0323233Y0145720D01*
X0323272Y0145602D01*
X0323314Y0145486D01*
X0323359Y0145370D01*
X0323408Y0145257D01*
X0323461Y0145145D01*
X0323517Y0145035D01*
X0323577Y0144926D01*
X0323640Y0144820D01*
X0323707Y0144715D01*
X0323776Y0144613D01*
X0323849Y0144513D01*
X0323925Y0144415D01*
X0324004Y0144320D01*
X0324086Y0144227D01*
X0324171Y0144137D01*
X0324258Y0144050D01*
X0324349Y0143965D01*
X0324441Y0143883D01*
X0324537Y0143804D01*
X0324635Y0143729D01*
X0319221Y0144811D02*
X0319275Y0144669D01*
X0319331Y0144529D01*
X0319392Y0144390D01*
X0319456Y0144253D01*
X0319523Y0144117D01*
X0319595Y0143984D01*
X0319669Y0143852D01*
X0319747Y0143722D01*
X0319828Y0143595D01*
X0319913Y0143469D01*
X0320001Y0143346D01*
X0320092Y0143225D01*
X0320186Y0143107D01*
X0320283Y0142991D01*
X0320383Y0142877D01*
X0320487Y0142767D01*
X0320593Y0142659D01*
X0320701Y0142553D01*
X0320813Y0142451D01*
X0320927Y0142352D01*
X0321044Y0142255D01*
X0321163Y0142162D01*
X0321284Y0142072D01*
X0321408Y0141985D01*
X0321534Y0141901D01*
X0321662Y0141820D01*
X0321792Y0141743D01*
X0321925Y0141670D01*
X0322059Y0141599D01*
X0322195Y0141533D01*
X0322332Y0141470D01*
X0322471Y0141410D01*
X0322612Y0141354D01*
X0322754Y0141302D01*
X0322897Y0141254D01*
X0323042Y0141209D01*
X0323188Y0141168D01*
X0323334Y0141131D01*
X0323482Y0141098D01*
X0323630Y0141068D01*
X0323780Y0141043D01*
X0323929Y0141021D01*
X0324080Y0141004D01*
X0324230Y0140990D01*
X0324381Y0140980D01*
X0324533Y0140974D01*
X0324684Y0140972D01*
X0324835Y0140974D01*
X0324987Y0140980D01*
X0325138Y0140990D01*
X0325288Y0141004D01*
X0325439Y0141021D01*
X0325588Y0141043D01*
X0325738Y0141068D01*
X0325886Y0141098D01*
X0326034Y0141131D01*
X0326180Y0141168D01*
X0326326Y0141209D01*
X0326471Y0141254D01*
X0326614Y0141302D01*
X0326756Y0141354D01*
X0326897Y0141410D01*
X0327036Y0141470D01*
X0327173Y0141533D01*
X0327309Y0141599D01*
X0327443Y0141670D01*
X0327576Y0141743D01*
X0327706Y0141820D01*
X0327834Y0141901D01*
X0327960Y0141985D01*
X0328084Y0142072D01*
X0328205Y0142162D01*
X0328324Y0142255D01*
X0328441Y0142352D01*
X0328555Y0142451D01*
X0328667Y0142553D01*
X0328775Y0142659D01*
X0328881Y0142767D01*
X0328985Y0142877D01*
X0329085Y0142991D01*
X0329182Y0143107D01*
X0329276Y0143225D01*
X0329367Y0143346D01*
X0329455Y0143469D01*
X0329540Y0143595D01*
X0329621Y0143722D01*
X0329699Y0143852D01*
X0329773Y0143984D01*
X0329845Y0144117D01*
X0329912Y0144253D01*
X0329976Y0144390D01*
X0330037Y0144529D01*
X0330093Y0144669D01*
X0330147Y0144811D01*
X0332577Y0143989D02*
X0337206Y0150359D01*
X0346044Y0143938D01*
X0341416Y0137567D01*
X0340316Y0138732D02*
X0343844Y0143589D01*
X0337554Y0148159D01*
X0334025Y0143302D01*
X0336320Y0139931D02*
X0336444Y0139935D01*
X0336568Y0139943D01*
X0336691Y0139954D01*
X0336814Y0139970D01*
X0336936Y0139989D01*
X0337058Y0140012D01*
X0337178Y0140039D01*
X0337298Y0140070D01*
X0337417Y0140104D01*
X0337535Y0140142D01*
X0337651Y0140184D01*
X0337767Y0140230D01*
X0337880Y0140279D01*
X0337992Y0140331D01*
X0338102Y0140387D01*
X0338211Y0140447D01*
X0338318Y0140510D01*
X0338422Y0140576D01*
X0338524Y0140646D01*
X0338625Y0140718D01*
X0338722Y0140794D01*
X0338818Y0140873D01*
X0338911Y0140955D01*
X0339001Y0141040D01*
X0339088Y0141127D01*
X0339173Y0141217D01*
X0339255Y0141310D01*
X0339334Y0141406D01*
X0339410Y0141503D01*
X0339483Y0141603D01*
X0339552Y0141706D01*
X0339618Y0141810D01*
X0339681Y0141917D01*
X0339741Y0142025D01*
X0339797Y0142136D01*
X0339850Y0142248D01*
X0339899Y0142361D01*
X0339944Y0142476D01*
X0339986Y0142593D01*
X0340025Y0142711D01*
X0340059Y0142829D01*
X0340090Y0142949D01*
X0340117Y0143070D01*
X0340140Y0143192D01*
X0340159Y0143314D01*
X0340175Y0143437D01*
X0340186Y0143560D01*
X0340194Y0143683D01*
X0340198Y0143807D01*
X0340197Y0143931D01*
X0340193Y0144055D01*
X0340186Y0144178D01*
X0340174Y0144301D01*
X0340158Y0144424D01*
X0340139Y0144546D01*
X0340115Y0144668D01*
X0340088Y0144789D01*
X0340057Y0144909D01*
X0340023Y0145027D01*
X0334025Y0143303D02*
X0333998Y0143176D01*
X0333975Y0143048D01*
X0333957Y0142920D01*
X0333942Y0142791D01*
X0333931Y0142662D01*
X0333924Y0142532D01*
X0333921Y0142402D01*
X0333922Y0142273D01*
X0333927Y0142143D01*
X0333936Y0142014D01*
X0333949Y0141885D01*
X0333966Y0141756D01*
X0333987Y0141628D01*
X0334011Y0141501D01*
X0334040Y0141374D01*
X0334073Y0141249D01*
X0334109Y0141124D01*
X0334149Y0141001D01*
X0334193Y0140879D01*
X0334240Y0140758D01*
X0334292Y0140639D01*
X0334346Y0140521D01*
X0334405Y0140406D01*
X0334467Y0140292D01*
X0334532Y0140180D01*
X0334601Y0140070D01*
X0334673Y0139962D01*
X0334749Y0139856D01*
X0334827Y0139753D01*
X0334909Y0139653D01*
X0334994Y0139555D01*
X0335082Y0139459D01*
X0335172Y0139366D01*
X0335266Y0139276D01*
X0335362Y0139189D01*
X0335461Y0139105D01*
X0335562Y0139024D01*
X0335666Y0138946D01*
X0335772Y0138872D01*
X0335880Y0138801D01*
X0335991Y0138733D01*
X0336103Y0138668D01*
X0336218Y0138607D01*
X0336334Y0138549D01*
X0336452Y0138495D01*
X0336571Y0138445D01*
X0336692Y0138398D01*
X0336815Y0138355D01*
X0336938Y0138316D01*
X0337063Y0138281D01*
X0337189Y0138249D01*
X0337316Y0138222D01*
X0337443Y0138198D01*
X0337571Y0138178D01*
X0337700Y0138162D01*
X0337829Y0138150D01*
X0337959Y0138143D01*
X0338088Y0138139D01*
X0338218Y0138138D01*
X0338348Y0138142D01*
X0338477Y0138150D01*
X0338606Y0138162D01*
X0338735Y0138178D01*
X0338863Y0138198D01*
X0338991Y0138222D01*
X0339117Y0138249D01*
X0339243Y0138281D01*
X0339368Y0138316D01*
X0339492Y0138355D01*
X0339614Y0138398D01*
X0339735Y0138444D01*
X0339855Y0138495D01*
X0339973Y0138549D01*
X0340089Y0138606D01*
X0340203Y0138667D01*
X0340316Y0138732D01*
X0336321Y0139932D02*
X0336287Y0140051D01*
X0336256Y0140171D01*
X0336229Y0140291D01*
X0336205Y0140413D01*
X0336186Y0140535D01*
X0336170Y0140658D01*
X0336158Y0140781D01*
X0336151Y0140905D01*
X0336147Y0141028D01*
X0336146Y0141152D01*
X0336150Y0141276D01*
X0336158Y0141399D01*
X0336170Y0141523D01*
X0336185Y0141645D01*
X0336204Y0141768D01*
X0336227Y0141889D01*
X0336254Y0142010D01*
X0336285Y0142130D01*
X0336320Y0142249D01*
X0336358Y0142366D01*
X0336400Y0142483D01*
X0336445Y0142598D01*
X0336494Y0142711D01*
X0336547Y0142823D01*
X0336603Y0142934D01*
X0336663Y0143042D01*
X0336726Y0143149D01*
X0336792Y0143253D01*
X0336861Y0143356D01*
X0336934Y0143456D01*
X0337010Y0143553D01*
X0337089Y0143649D01*
X0337171Y0143742D01*
X0337256Y0143832D01*
X0337343Y0143919D01*
X0337433Y0144004D01*
X0337526Y0144086D01*
X0337622Y0144165D01*
X0337719Y0144240D01*
X0337819Y0144313D01*
X0337922Y0144383D01*
X0338026Y0144449D01*
X0338133Y0144512D01*
X0338241Y0144572D01*
X0338352Y0144628D01*
X0338464Y0144680D01*
X0338577Y0144729D01*
X0338692Y0144775D01*
X0338809Y0144817D01*
X0338927Y0144855D01*
X0339045Y0144889D01*
X0339165Y0144920D01*
X0339286Y0144947D01*
X0339408Y0144970D01*
X0339530Y0144989D01*
X0339653Y0145005D01*
X0339776Y0145016D01*
X0339899Y0145024D01*
X0340023Y0145028D01*
X0332577Y0143990D02*
X0332537Y0143844D01*
X0332501Y0143697D01*
X0332468Y0143549D01*
X0332439Y0143401D01*
X0332414Y0143251D01*
X0332393Y0143101D01*
X0332376Y0142951D01*
X0332363Y0142800D01*
X0332354Y0142649D01*
X0332348Y0142498D01*
X0332347Y0142347D01*
X0332350Y0142195D01*
X0332356Y0142044D01*
X0332367Y0141893D01*
X0332381Y0141742D01*
X0332399Y0141592D01*
X0332422Y0141442D01*
X0332448Y0141293D01*
X0332478Y0141145D01*
X0332512Y0140998D01*
X0332549Y0140851D01*
X0332591Y0140705D01*
X0332636Y0140561D01*
X0332685Y0140418D01*
X0332738Y0140276D01*
X0332794Y0140136D01*
X0332854Y0139997D01*
X0332918Y0139859D01*
X0332985Y0139724D01*
X0333056Y0139590D01*
X0333130Y0139458D01*
X0333208Y0139328D01*
X0333289Y0139200D01*
X0333373Y0139075D01*
X0333460Y0138951D01*
X0333551Y0138830D01*
X0333645Y0138711D01*
X0333742Y0138595D01*
X0333842Y0138481D01*
X0333945Y0138370D01*
X0334050Y0138262D01*
X0334159Y0138156D01*
X0334270Y0138054D01*
X0334384Y0137954D01*
X0334500Y0137857D01*
X0334619Y0137763D01*
X0334740Y0137673D01*
X0334864Y0137586D01*
X0334990Y0137501D01*
X0335118Y0137421D01*
X0335248Y0137343D01*
X0335380Y0137269D01*
X0335514Y0137199D01*
X0335649Y0137132D01*
X0335787Y0137068D01*
X0335926Y0137008D01*
X0336066Y0136952D01*
X0336208Y0136899D01*
X0336351Y0136851D01*
X0336496Y0136806D01*
X0336641Y0136764D01*
X0336788Y0136727D01*
X0336936Y0136693D01*
X0337084Y0136663D01*
X0337233Y0136637D01*
X0337383Y0136615D01*
X0337533Y0136597D01*
X0337684Y0136583D01*
X0337835Y0136573D01*
X0337986Y0136566D01*
X0338137Y0136564D01*
X0338289Y0136566D01*
X0338440Y0136571D01*
X0338591Y0136581D01*
X0338742Y0136594D01*
X0338892Y0136611D01*
X0339042Y0136632D01*
X0339191Y0136658D01*
X0339340Y0136687D01*
X0339487Y0136719D01*
X0339634Y0136756D01*
X0339780Y0136797D01*
X0339925Y0136841D01*
X0340068Y0136889D01*
X0340210Y0136941D01*
X0340351Y0136996D01*
X0340491Y0137055D01*
X0340628Y0137118D01*
X0340764Y0137184D01*
X0340899Y0137254D01*
X0341031Y0137328D01*
X0341162Y0137404D01*
X0341290Y0137484D01*
X0341416Y0137568D01*
X0342899Y0135474D02*
X0350388Y0137907D01*
X0353764Y0127516D01*
X0346276Y0125083D01*
X0346070Y0126672D02*
X0351780Y0128527D01*
X0349377Y0135922D01*
X0343667Y0134067D01*
X0343543Y0129990D02*
X0343645Y0129920D01*
X0343749Y0129854D01*
X0343856Y0129791D01*
X0343964Y0129731D01*
X0344075Y0129675D01*
X0344187Y0129622D01*
X0344300Y0129573D01*
X0344415Y0129527D01*
X0344532Y0129485D01*
X0344649Y0129447D01*
X0344768Y0129412D01*
X0344888Y0129381D01*
X0345009Y0129354D01*
X0345130Y0129331D01*
X0345252Y0129312D01*
X0345375Y0129296D01*
X0345498Y0129284D01*
X0345622Y0129276D01*
X0345746Y0129273D01*
X0345869Y0129272D01*
X0345993Y0129276D01*
X0346117Y0129284D01*
X0346240Y0129296D01*
X0346363Y0129311D01*
X0346485Y0129330D01*
X0346606Y0129354D01*
X0346727Y0129381D01*
X0346847Y0129411D01*
X0346966Y0129446D01*
X0347084Y0129484D01*
X0347200Y0129526D01*
X0347315Y0129572D01*
X0347429Y0129621D01*
X0347541Y0129674D01*
X0347651Y0129730D01*
X0347759Y0129789D01*
X0347866Y0129852D01*
X0347970Y0129919D01*
X0348073Y0129988D01*
X0348173Y0130061D01*
X0348271Y0130137D01*
X0348366Y0130216D01*
X0348459Y0130298D01*
X0348549Y0130383D01*
X0348636Y0130470D01*
X0348721Y0130561D01*
X0348803Y0130653D01*
X0348882Y0130749D01*
X0348958Y0130847D01*
X0349030Y0130947D01*
X0349100Y0131049D01*
X0349166Y0131154D01*
X0349229Y0131260D01*
X0349288Y0131369D01*
X0349344Y0131479D01*
X0349397Y0131591D01*
X0349446Y0131705D01*
X0349491Y0131820D01*
X0349533Y0131937D01*
X0343667Y0134068D02*
X0343571Y0133981D01*
X0343477Y0133891D01*
X0343387Y0133798D01*
X0343299Y0133702D01*
X0343214Y0133604D01*
X0343132Y0133503D01*
X0343054Y0133400D01*
X0342978Y0133295D01*
X0342906Y0133187D01*
X0342838Y0133077D01*
X0342772Y0132965D01*
X0342710Y0132851D01*
X0342652Y0132735D01*
X0342597Y0132618D01*
X0342546Y0132499D01*
X0342498Y0132378D01*
X0342454Y0132256D01*
X0342414Y0132132D01*
X0342378Y0132008D01*
X0342346Y0131882D01*
X0342317Y0131756D01*
X0342292Y0131629D01*
X0342272Y0131500D01*
X0342255Y0131372D01*
X0342242Y0131243D01*
X0342233Y0131113D01*
X0342228Y0130984D01*
X0342227Y0130854D01*
X0342230Y0130724D01*
X0342237Y0130595D01*
X0342248Y0130466D01*
X0342263Y0130337D01*
X0342282Y0130209D01*
X0342304Y0130081D01*
X0342331Y0129954D01*
X0342362Y0129828D01*
X0342396Y0129703D01*
X0342434Y0129579D01*
X0342476Y0129456D01*
X0342522Y0129335D01*
X0342571Y0129215D01*
X0342624Y0129097D01*
X0342681Y0128980D01*
X0342741Y0128865D01*
X0342805Y0128752D01*
X0342872Y0128641D01*
X0342942Y0128532D01*
X0343016Y0128426D01*
X0343093Y0128321D01*
X0343173Y0128219D01*
X0343257Y0128120D01*
X0343343Y0128023D01*
X0343432Y0127929D01*
X0343524Y0127837D01*
X0343619Y0127749D01*
X0343717Y0127663D01*
X0343817Y0127581D01*
X0343919Y0127501D01*
X0344024Y0127425D01*
X0344131Y0127352D01*
X0344241Y0127283D01*
X0344352Y0127216D01*
X0344465Y0127153D01*
X0344581Y0127094D01*
X0344698Y0127038D01*
X0344817Y0126986D01*
X0344937Y0126938D01*
X0345059Y0126893D01*
X0345182Y0126852D01*
X0345306Y0126814D01*
X0345431Y0126781D01*
X0345557Y0126751D01*
X0345685Y0126726D01*
X0345812Y0126704D01*
X0345941Y0126686D01*
X0346070Y0126672D01*
X0343543Y0129991D02*
X0343585Y0130107D01*
X0343630Y0130222D01*
X0343679Y0130336D01*
X0343732Y0130448D01*
X0343788Y0130558D01*
X0343847Y0130667D01*
X0343910Y0130773D01*
X0343976Y0130878D01*
X0344046Y0130980D01*
X0344119Y0131081D01*
X0344194Y0131178D01*
X0344273Y0131274D01*
X0344355Y0131367D01*
X0344440Y0131457D01*
X0344527Y0131544D01*
X0344617Y0131629D01*
X0344710Y0131711D01*
X0344805Y0131790D01*
X0344903Y0131866D01*
X0345003Y0131939D01*
X0345106Y0132008D01*
X0345210Y0132075D01*
X0345317Y0132138D01*
X0345425Y0132197D01*
X0345535Y0132253D01*
X0345647Y0132306D01*
X0345761Y0132355D01*
X0345876Y0132401D01*
X0345992Y0132443D01*
X0346110Y0132481D01*
X0346229Y0132516D01*
X0346349Y0132546D01*
X0346469Y0132573D01*
X0346591Y0132597D01*
X0346713Y0132616D01*
X0346836Y0132631D01*
X0346959Y0132643D01*
X0347083Y0132651D01*
X0347206Y0132655D01*
X0347330Y0132654D01*
X0347454Y0132651D01*
X0347577Y0132643D01*
X0347701Y0132631D01*
X0347823Y0132615D01*
X0347946Y0132596D01*
X0348067Y0132573D01*
X0348188Y0132546D01*
X0348308Y0132515D01*
X0348427Y0132480D01*
X0348544Y0132442D01*
X0348661Y0132400D01*
X0348776Y0132354D01*
X0348889Y0132305D01*
X0349001Y0132252D01*
X0349111Y0132196D01*
X0349220Y0132136D01*
X0349326Y0132073D01*
X0349431Y0132007D01*
X0349533Y0131937D01*
X0342899Y0135474D02*
X0342781Y0135379D01*
X0342665Y0135282D01*
X0342552Y0135182D01*
X0342441Y0135078D01*
X0342333Y0134972D01*
X0342228Y0134863D01*
X0342126Y0134752D01*
X0342027Y0134637D01*
X0341930Y0134521D01*
X0341837Y0134401D01*
X0341747Y0134280D01*
X0341660Y0134156D01*
X0341577Y0134030D01*
X0341496Y0133901D01*
X0341420Y0133771D01*
X0341346Y0133639D01*
X0341276Y0133505D01*
X0341210Y0133369D01*
X0341147Y0133231D01*
X0341087Y0133092D01*
X0341032Y0132951D01*
X0340980Y0132809D01*
X0340931Y0132665D01*
X0340887Y0132521D01*
X0340846Y0132375D01*
X0340809Y0132228D01*
X0340776Y0132080D01*
X0340747Y0131932D01*
X0340722Y0131783D01*
X0340700Y0131633D01*
X0340683Y0131483D01*
X0340669Y0131332D01*
X0340659Y0131181D01*
X0340654Y0131030D01*
X0340652Y0130878D01*
X0340654Y0130727D01*
X0340660Y0130576D01*
X0340670Y0130425D01*
X0340684Y0130274D01*
X0340702Y0130124D01*
X0340724Y0129974D01*
X0340750Y0129825D01*
X0340779Y0129676D01*
X0340813Y0129529D01*
X0340850Y0129382D01*
X0340891Y0129236D01*
X0340936Y0129092D01*
X0340985Y0128948D01*
X0341037Y0128806D01*
X0341093Y0128666D01*
X0341153Y0128527D01*
X0341216Y0128389D01*
X0341283Y0128254D01*
X0341353Y0128120D01*
X0341427Y0127987D01*
X0341505Y0127857D01*
X0341585Y0127729D01*
X0341669Y0127603D01*
X0341756Y0127480D01*
X0341847Y0127358D01*
X0341940Y0127239D01*
X0342037Y0127123D01*
X0342136Y0127009D01*
X0342239Y0126897D01*
X0342344Y0126789D01*
X0342453Y0126683D01*
X0342563Y0126580D01*
X0342677Y0126480D01*
X0342793Y0126383D01*
X0342912Y0126289D01*
X0343033Y0126198D01*
X0343156Y0126110D01*
X0343282Y0126026D01*
X0343410Y0125945D01*
X0343539Y0125867D01*
X0343671Y0125793D01*
X0343805Y0125722D01*
X0343940Y0125654D01*
X0344078Y0125590D01*
X0344217Y0125530D01*
X0344357Y0125474D01*
X0344499Y0125421D01*
X0344642Y0125371D01*
X0344786Y0125326D01*
X0344932Y0125284D01*
X0345078Y0125246D01*
X0345226Y0125212D01*
X0345374Y0125182D01*
X0345523Y0125156D01*
X0345673Y0125133D01*
X0345823Y0125115D01*
X0345974Y0125100D01*
X0346125Y0125090D01*
X0346276Y0125083D01*
X0341337Y0110069D02*
X0345965Y0103698D01*
X0337126Y0097277D01*
X0332498Y0103647D01*
X0333946Y0104334D02*
X0337474Y0099476D01*
X0343765Y0104047D01*
X0340236Y0108904D01*
X0336321Y0107762D02*
X0336287Y0107644D01*
X0336256Y0107524D01*
X0336229Y0107403D01*
X0336205Y0107281D01*
X0336186Y0107159D01*
X0336170Y0107036D01*
X0336158Y0106913D01*
X0336151Y0106790D01*
X0336147Y0106666D01*
X0336146Y0106542D01*
X0336150Y0106418D01*
X0336158Y0106295D01*
X0336169Y0106172D01*
X0336185Y0106049D01*
X0336204Y0105927D01*
X0336227Y0105805D01*
X0336254Y0105684D01*
X0336285Y0105564D01*
X0336319Y0105446D01*
X0336358Y0105328D01*
X0336400Y0105211D01*
X0336445Y0105096D01*
X0336494Y0104983D01*
X0336547Y0104871D01*
X0336603Y0104760D01*
X0336663Y0104652D01*
X0336726Y0104545D01*
X0336792Y0104441D01*
X0336861Y0104338D01*
X0336934Y0104238D01*
X0337010Y0104141D01*
X0337089Y0104045D01*
X0337171Y0103952D01*
X0337256Y0103862D01*
X0337343Y0103775D01*
X0337433Y0103690D01*
X0337526Y0103608D01*
X0337622Y0103529D01*
X0337719Y0103453D01*
X0337820Y0103381D01*
X0337922Y0103311D01*
X0338026Y0103245D01*
X0338133Y0103182D01*
X0338242Y0103122D01*
X0338352Y0103066D01*
X0338464Y0103014D01*
X0338577Y0102965D01*
X0338693Y0102919D01*
X0338809Y0102877D01*
X0338927Y0102839D01*
X0339046Y0102805D01*
X0339166Y0102774D01*
X0339286Y0102747D01*
X0339408Y0102724D01*
X0339530Y0102705D01*
X0339653Y0102689D01*
X0339776Y0102678D01*
X0339900Y0102670D01*
X0340024Y0102666D01*
X0340236Y0108903D02*
X0340123Y0108968D01*
X0340009Y0109029D01*
X0339893Y0109086D01*
X0339775Y0109140D01*
X0339655Y0109191D01*
X0339534Y0109237D01*
X0339412Y0109280D01*
X0339288Y0109319D01*
X0339163Y0109354D01*
X0339038Y0109386D01*
X0338911Y0109413D01*
X0338783Y0109437D01*
X0338655Y0109457D01*
X0338526Y0109473D01*
X0338397Y0109485D01*
X0338268Y0109493D01*
X0338138Y0109497D01*
X0338009Y0109496D01*
X0337879Y0109493D01*
X0337750Y0109485D01*
X0337620Y0109473D01*
X0337492Y0109457D01*
X0337364Y0109437D01*
X0337236Y0109413D01*
X0337109Y0109386D01*
X0336984Y0109354D01*
X0336859Y0109319D01*
X0336735Y0109280D01*
X0336613Y0109237D01*
X0336492Y0109190D01*
X0336372Y0109140D01*
X0336254Y0109086D01*
X0336138Y0109028D01*
X0336024Y0108967D01*
X0335911Y0108903D01*
X0335801Y0108835D01*
X0335693Y0108763D01*
X0335587Y0108689D01*
X0335483Y0108611D01*
X0335382Y0108530D01*
X0335283Y0108446D01*
X0335187Y0108359D01*
X0335093Y0108269D01*
X0335003Y0108176D01*
X0334915Y0108081D01*
X0334830Y0107983D01*
X0334748Y0107882D01*
X0334670Y0107779D01*
X0334594Y0107674D01*
X0334522Y0107566D01*
X0334453Y0107456D01*
X0334388Y0107344D01*
X0334326Y0107230D01*
X0334267Y0107114D01*
X0334213Y0106997D01*
X0334161Y0106878D01*
X0334114Y0106757D01*
X0334070Y0106635D01*
X0334030Y0106512D01*
X0333993Y0106387D01*
X0333961Y0106262D01*
X0333932Y0106135D01*
X0333908Y0106008D01*
X0333887Y0105880D01*
X0333870Y0105751D01*
X0333857Y0105622D01*
X0333848Y0105493D01*
X0333843Y0105363D01*
X0333842Y0105234D01*
X0333845Y0105104D01*
X0333852Y0104975D01*
X0333863Y0104845D01*
X0333878Y0104716D01*
X0333896Y0104588D01*
X0333919Y0104461D01*
X0333946Y0104334D01*
X0336320Y0107763D02*
X0336444Y0107759D01*
X0336568Y0107751D01*
X0336691Y0107740D01*
X0336814Y0107724D01*
X0336936Y0107705D01*
X0337058Y0107682D01*
X0337178Y0107655D01*
X0337298Y0107624D01*
X0337417Y0107590D01*
X0337535Y0107552D01*
X0337651Y0107510D01*
X0337767Y0107464D01*
X0337880Y0107415D01*
X0337992Y0107363D01*
X0338102Y0107307D01*
X0338211Y0107247D01*
X0338318Y0107184D01*
X0338422Y0107118D01*
X0338524Y0107048D01*
X0338625Y0106976D01*
X0338722Y0106900D01*
X0338818Y0106821D01*
X0338911Y0106739D01*
X0339001Y0106654D01*
X0339088Y0106567D01*
X0339173Y0106477D01*
X0339255Y0106384D01*
X0339334Y0106288D01*
X0339410Y0106191D01*
X0339483Y0106091D01*
X0339552Y0105988D01*
X0339618Y0105884D01*
X0339681Y0105777D01*
X0339741Y0105669D01*
X0339797Y0105558D01*
X0339850Y0105446D01*
X0339899Y0105333D01*
X0339944Y0105218D01*
X0339986Y0105101D01*
X0340025Y0104983D01*
X0340059Y0104865D01*
X0340090Y0104745D01*
X0340117Y0104624D01*
X0340140Y0104502D01*
X0340159Y0104380D01*
X0340175Y0104257D01*
X0340186Y0104134D01*
X0340194Y0104011D01*
X0340198Y0103887D01*
X0340197Y0103763D01*
X0340193Y0103639D01*
X0340186Y0103516D01*
X0340174Y0103393D01*
X0340158Y0103270D01*
X0340139Y0103148D01*
X0340115Y0103026D01*
X0340088Y0102905D01*
X0340057Y0102785D01*
X0340023Y0102667D01*
X0341337Y0110068D02*
X0341211Y0110152D01*
X0341082Y0110232D01*
X0340952Y0110309D01*
X0340819Y0110382D01*
X0340685Y0110452D01*
X0340549Y0110518D01*
X0340411Y0110581D01*
X0340272Y0110640D01*
X0340131Y0110695D01*
X0339989Y0110747D01*
X0339846Y0110795D01*
X0339701Y0110839D01*
X0339555Y0110880D01*
X0339408Y0110917D01*
X0339260Y0110949D01*
X0339112Y0110978D01*
X0338963Y0111004D01*
X0338813Y0111025D01*
X0338663Y0111042D01*
X0338512Y0111055D01*
X0338361Y0111065D01*
X0338209Y0111070D01*
X0338058Y0111072D01*
X0337907Y0111070D01*
X0337756Y0111063D01*
X0337605Y0111053D01*
X0337454Y0111039D01*
X0337304Y0111021D01*
X0337154Y0110999D01*
X0337005Y0110973D01*
X0336857Y0110943D01*
X0336709Y0110909D01*
X0336562Y0110872D01*
X0336417Y0110830D01*
X0336272Y0110785D01*
X0336129Y0110737D01*
X0335987Y0110684D01*
X0335847Y0110628D01*
X0335708Y0110568D01*
X0335570Y0110504D01*
X0335435Y0110437D01*
X0335301Y0110367D01*
X0335169Y0110293D01*
X0335039Y0110215D01*
X0334911Y0110135D01*
X0334785Y0110050D01*
X0334661Y0109963D01*
X0334540Y0109873D01*
X0334421Y0109779D01*
X0334305Y0109682D01*
X0334191Y0109582D01*
X0334080Y0109480D01*
X0333971Y0109374D01*
X0333866Y0109266D01*
X0333763Y0109155D01*
X0333663Y0109041D01*
X0333566Y0108925D01*
X0333472Y0108806D01*
X0333381Y0108685D01*
X0333294Y0108562D01*
X0333210Y0108436D01*
X0333129Y0108308D01*
X0333051Y0108178D01*
X0332977Y0108046D01*
X0332906Y0107912D01*
X0332839Y0107777D01*
X0332775Y0107640D01*
X0332715Y0107501D01*
X0332659Y0107360D01*
X0332606Y0107218D01*
X0332557Y0107075D01*
X0332512Y0106931D01*
X0332470Y0106785D01*
X0332433Y0106639D01*
X0332399Y0106491D01*
X0332369Y0106343D01*
X0332343Y0106194D01*
X0332320Y0106044D01*
X0332302Y0105894D01*
X0332288Y0105743D01*
X0332277Y0105592D01*
X0332271Y0105441D01*
X0332268Y0105290D01*
X0332269Y0105138D01*
X0332275Y0104987D01*
X0332284Y0104836D01*
X0332297Y0104685D01*
X0332314Y0104535D01*
X0332335Y0104385D01*
X0332360Y0104236D01*
X0332389Y0104087D01*
X0332422Y0103939D01*
X0332458Y0103793D01*
X0332498Y0103647D01*
X0330048Y0102883D02*
X0330048Y0095009D01*
X0319123Y0095009D01*
X0319123Y0102883D01*
X0320698Y0102587D02*
X0320698Y0096583D01*
X0328473Y0096583D01*
X0328473Y0102587D01*
X0324635Y0103966D02*
X0324537Y0103890D01*
X0324442Y0103811D01*
X0324349Y0103729D01*
X0324258Y0103645D01*
X0324171Y0103557D01*
X0324086Y0103467D01*
X0324004Y0103374D01*
X0323925Y0103279D01*
X0323849Y0103181D01*
X0323776Y0103081D01*
X0323707Y0102979D01*
X0323640Y0102874D01*
X0323577Y0102768D01*
X0323518Y0102659D01*
X0323461Y0102549D01*
X0323408Y0102437D01*
X0323359Y0102324D01*
X0323314Y0102209D01*
X0323272Y0102092D01*
X0323233Y0101974D01*
X0323199Y0101856D01*
X0323168Y0101736D01*
X0323141Y0101615D01*
X0323118Y0101493D01*
X0323098Y0101371D01*
X0323083Y0101248D01*
X0323071Y0101125D01*
X0323063Y0101002D01*
X0323059Y0100878D01*
X0323059Y0100754D01*
X0323063Y0100630D01*
X0323071Y0100507D01*
X0323083Y0100384D01*
X0323098Y0100261D01*
X0323118Y0100139D01*
X0323141Y0100017D01*
X0323168Y0099896D01*
X0323199Y0099776D01*
X0323233Y0099658D01*
X0323272Y0099540D01*
X0323314Y0099423D01*
X0323359Y0099308D01*
X0323408Y0099195D01*
X0323461Y0099083D01*
X0323518Y0098973D01*
X0323577Y0098864D01*
X0323640Y0098758D01*
X0323707Y0098653D01*
X0323776Y0098551D01*
X0323849Y0098451D01*
X0323925Y0098353D01*
X0324004Y0098258D01*
X0324086Y0098165D01*
X0324171Y0098075D01*
X0324258Y0097987D01*
X0324349Y0097903D01*
X0324442Y0097821D01*
X0324537Y0097742D01*
X0324635Y0097666D01*
X0328473Y0102587D02*
X0328420Y0102706D01*
X0328363Y0102822D01*
X0328303Y0102937D01*
X0328239Y0103050D01*
X0328172Y0103161D01*
X0328102Y0103270D01*
X0328028Y0103377D01*
X0327951Y0103481D01*
X0327871Y0103583D01*
X0327787Y0103682D01*
X0327701Y0103779D01*
X0327612Y0103873D01*
X0327520Y0103965D01*
X0327425Y0104053D01*
X0327327Y0104139D01*
X0327227Y0104221D01*
X0327125Y0104300D01*
X0327020Y0104377D01*
X0326913Y0104450D01*
X0326803Y0104519D01*
X0326692Y0104586D01*
X0326578Y0104648D01*
X0326463Y0104708D01*
X0326346Y0104763D01*
X0326227Y0104816D01*
X0326107Y0104864D01*
X0325985Y0104909D01*
X0325862Y0104950D01*
X0325738Y0104987D01*
X0325612Y0105020D01*
X0325486Y0105050D01*
X0325359Y0105076D01*
X0325231Y0105097D01*
X0325103Y0105115D01*
X0324974Y0105129D01*
X0324844Y0105139D01*
X0324715Y0105145D01*
X0324585Y0105147D01*
X0324455Y0105145D01*
X0324326Y0105139D01*
X0324196Y0105129D01*
X0324067Y0105115D01*
X0323939Y0105097D01*
X0323811Y0105076D01*
X0323684Y0105050D01*
X0323558Y0105020D01*
X0323432Y0104987D01*
X0323308Y0104950D01*
X0323185Y0104909D01*
X0323063Y0104864D01*
X0322943Y0104816D01*
X0322824Y0104763D01*
X0322707Y0104708D01*
X0322592Y0104648D01*
X0322478Y0104586D01*
X0322367Y0104519D01*
X0322257Y0104450D01*
X0322150Y0104377D01*
X0322045Y0104300D01*
X0321943Y0104221D01*
X0321843Y0104139D01*
X0321745Y0104053D01*
X0321650Y0103965D01*
X0321558Y0103873D01*
X0321469Y0103779D01*
X0321383Y0103682D01*
X0321299Y0103583D01*
X0321219Y0103481D01*
X0321142Y0103377D01*
X0321068Y0103270D01*
X0320998Y0103161D01*
X0320931Y0103050D01*
X0320867Y0102937D01*
X0320807Y0102822D01*
X0320750Y0102706D01*
X0320697Y0102587D01*
X0324635Y0103966D02*
X0324733Y0103890D01*
X0324828Y0103811D01*
X0324921Y0103729D01*
X0325012Y0103645D01*
X0325099Y0103557D01*
X0325184Y0103467D01*
X0325266Y0103374D01*
X0325345Y0103279D01*
X0325421Y0103181D01*
X0325494Y0103081D01*
X0325563Y0102979D01*
X0325630Y0102874D01*
X0325693Y0102768D01*
X0325752Y0102659D01*
X0325809Y0102549D01*
X0325862Y0102437D01*
X0325911Y0102324D01*
X0325956Y0102209D01*
X0325998Y0102092D01*
X0326037Y0101974D01*
X0326071Y0101856D01*
X0326102Y0101736D01*
X0326129Y0101615D01*
X0326152Y0101493D01*
X0326172Y0101371D01*
X0326187Y0101248D01*
X0326199Y0101125D01*
X0326207Y0101002D01*
X0326211Y0100878D01*
X0326211Y0100754D01*
X0326207Y0100630D01*
X0326199Y0100507D01*
X0326187Y0100384D01*
X0326172Y0100261D01*
X0326152Y0100139D01*
X0326129Y0100017D01*
X0326102Y0099896D01*
X0326071Y0099776D01*
X0326037Y0099658D01*
X0325998Y0099540D01*
X0325956Y0099423D01*
X0325911Y0099308D01*
X0325862Y0099195D01*
X0325809Y0099083D01*
X0325752Y0098973D01*
X0325693Y0098864D01*
X0325630Y0098758D01*
X0325563Y0098653D01*
X0325494Y0098551D01*
X0325421Y0098451D01*
X0325345Y0098353D01*
X0325266Y0098258D01*
X0325184Y0098165D01*
X0325099Y0098075D01*
X0325012Y0097987D01*
X0324921Y0097903D01*
X0324828Y0097821D01*
X0324733Y0097742D01*
X0324635Y0097666D01*
X0330048Y0102882D02*
X0329994Y0103024D01*
X0329938Y0103164D01*
X0329877Y0103303D01*
X0329813Y0103440D01*
X0329746Y0103576D01*
X0329674Y0103709D01*
X0329600Y0103841D01*
X0329522Y0103971D01*
X0329441Y0104098D01*
X0329356Y0104224D01*
X0329268Y0104347D01*
X0329177Y0104468D01*
X0329083Y0104586D01*
X0328986Y0104702D01*
X0328886Y0104816D01*
X0328782Y0104926D01*
X0328676Y0105034D01*
X0328568Y0105140D01*
X0328456Y0105242D01*
X0328342Y0105341D01*
X0328225Y0105438D01*
X0328106Y0105531D01*
X0327985Y0105621D01*
X0327861Y0105708D01*
X0327735Y0105792D01*
X0327607Y0105873D01*
X0327477Y0105950D01*
X0327344Y0106023D01*
X0327210Y0106094D01*
X0327074Y0106160D01*
X0326937Y0106223D01*
X0326798Y0106283D01*
X0326657Y0106339D01*
X0326515Y0106391D01*
X0326372Y0106439D01*
X0326227Y0106484D01*
X0326081Y0106525D01*
X0325935Y0106562D01*
X0325787Y0106595D01*
X0325639Y0106625D01*
X0325489Y0106650D01*
X0325340Y0106672D01*
X0325189Y0106689D01*
X0325039Y0106703D01*
X0324888Y0106713D01*
X0324736Y0106719D01*
X0324585Y0106721D01*
X0324434Y0106719D01*
X0324282Y0106713D01*
X0324131Y0106703D01*
X0323981Y0106689D01*
X0323830Y0106672D01*
X0323681Y0106650D01*
X0323531Y0106625D01*
X0323383Y0106595D01*
X0323235Y0106562D01*
X0323089Y0106525D01*
X0322943Y0106484D01*
X0322798Y0106439D01*
X0322655Y0106391D01*
X0322513Y0106339D01*
X0322372Y0106283D01*
X0322233Y0106223D01*
X0322096Y0106160D01*
X0321960Y0106094D01*
X0321826Y0106023D01*
X0321693Y0105950D01*
X0321563Y0105873D01*
X0321435Y0105792D01*
X0321309Y0105708D01*
X0321185Y0105621D01*
X0321064Y0105531D01*
X0320945Y0105438D01*
X0320828Y0105341D01*
X0320714Y0105242D01*
X0320602Y0105140D01*
X0320494Y0105034D01*
X0320388Y0104926D01*
X0320284Y0104816D01*
X0320184Y0104702D01*
X0320087Y0104586D01*
X0319993Y0104468D01*
X0319902Y0104347D01*
X0319814Y0104224D01*
X0319729Y0104098D01*
X0319648Y0103971D01*
X0319570Y0103841D01*
X0319496Y0103709D01*
X0319424Y0103576D01*
X0319357Y0103440D01*
X0319293Y0103303D01*
X0319232Y0103164D01*
X0319176Y0103024D01*
X0319122Y0102882D01*
X0316692Y0103705D02*
X0312063Y0097335D01*
X0303225Y0103756D01*
X0307853Y0110126D01*
X0308954Y0108962D02*
X0305424Y0104105D01*
X0311715Y0099534D01*
X0315244Y0104392D01*
X0312949Y0107763D02*
X0312825Y0107759D01*
X0312701Y0107751D01*
X0312578Y0107740D01*
X0312455Y0107724D01*
X0312333Y0107705D01*
X0312211Y0107682D01*
X0312091Y0107655D01*
X0311971Y0107624D01*
X0311852Y0107590D01*
X0311734Y0107552D01*
X0311618Y0107510D01*
X0311502Y0107464D01*
X0311389Y0107415D01*
X0311277Y0107363D01*
X0311167Y0107307D01*
X0311058Y0107247D01*
X0310951Y0107184D01*
X0310847Y0107118D01*
X0310745Y0107048D01*
X0310644Y0106976D01*
X0310547Y0106900D01*
X0310451Y0106821D01*
X0310358Y0106739D01*
X0310268Y0106654D01*
X0310181Y0106567D01*
X0310096Y0106477D01*
X0310014Y0106384D01*
X0309935Y0106288D01*
X0309859Y0106191D01*
X0309786Y0106091D01*
X0309717Y0105988D01*
X0309651Y0105884D01*
X0309588Y0105777D01*
X0309528Y0105669D01*
X0309472Y0105558D01*
X0309419Y0105446D01*
X0309370Y0105333D01*
X0309325Y0105218D01*
X0309283Y0105101D01*
X0309244Y0104983D01*
X0309210Y0104865D01*
X0309179Y0104745D01*
X0309152Y0104624D01*
X0309129Y0104502D01*
X0309110Y0104380D01*
X0309094Y0104257D01*
X0309083Y0104134D01*
X0309075Y0104011D01*
X0309071Y0103887D01*
X0309072Y0103763D01*
X0309076Y0103639D01*
X0309083Y0103516D01*
X0309095Y0103393D01*
X0309111Y0103270D01*
X0309130Y0103148D01*
X0309154Y0103026D01*
X0309181Y0102905D01*
X0309212Y0102785D01*
X0309246Y0102667D01*
X0315243Y0104392D02*
X0315270Y0104519D01*
X0315293Y0104646D01*
X0315311Y0104774D01*
X0315326Y0104903D01*
X0315337Y0105033D01*
X0315344Y0105162D01*
X0315347Y0105292D01*
X0315346Y0105421D01*
X0315341Y0105551D01*
X0315332Y0105680D01*
X0315319Y0105809D01*
X0315302Y0105938D01*
X0315281Y0106066D01*
X0315257Y0106193D01*
X0315228Y0106320D01*
X0315196Y0106445D01*
X0315159Y0106570D01*
X0315119Y0106693D01*
X0315075Y0106815D01*
X0315028Y0106936D01*
X0314976Y0107055D01*
X0314922Y0107172D01*
X0314863Y0107288D01*
X0314801Y0107402D01*
X0314736Y0107514D01*
X0314667Y0107624D01*
X0314595Y0107732D01*
X0314519Y0107837D01*
X0314441Y0107940D01*
X0314359Y0108041D01*
X0314274Y0108139D01*
X0314186Y0108234D01*
X0314096Y0108327D01*
X0314002Y0108417D01*
X0313906Y0108504D01*
X0313807Y0108588D01*
X0313706Y0108669D01*
X0313602Y0108747D01*
X0313496Y0108821D01*
X0313388Y0108893D01*
X0313278Y0108961D01*
X0313165Y0109025D01*
X0313051Y0109086D01*
X0312935Y0109144D01*
X0312817Y0109198D01*
X0312697Y0109248D01*
X0312576Y0109295D01*
X0312454Y0109338D01*
X0312330Y0109377D01*
X0312205Y0109412D01*
X0312080Y0109444D01*
X0311953Y0109471D01*
X0311825Y0109495D01*
X0311697Y0109515D01*
X0311569Y0109531D01*
X0311439Y0109543D01*
X0311310Y0109551D01*
X0311180Y0109554D01*
X0311051Y0109555D01*
X0310921Y0109551D01*
X0310792Y0109543D01*
X0310663Y0109531D01*
X0310534Y0109515D01*
X0310406Y0109495D01*
X0310278Y0109471D01*
X0310151Y0109444D01*
X0310026Y0109412D01*
X0309901Y0109377D01*
X0309777Y0109338D01*
X0309655Y0109295D01*
X0309534Y0109249D01*
X0309414Y0109198D01*
X0309296Y0109144D01*
X0309180Y0109087D01*
X0309066Y0109026D01*
X0308953Y0108961D01*
X0312949Y0107762D02*
X0312983Y0107644D01*
X0313014Y0107524D01*
X0313041Y0107403D01*
X0313065Y0107281D01*
X0313084Y0107159D01*
X0313100Y0107036D01*
X0313112Y0106913D01*
X0313119Y0106790D01*
X0313123Y0106666D01*
X0313124Y0106542D01*
X0313120Y0106418D01*
X0313112Y0106295D01*
X0313101Y0106172D01*
X0313085Y0106049D01*
X0313066Y0105927D01*
X0313043Y0105805D01*
X0313016Y0105684D01*
X0312985Y0105564D01*
X0312951Y0105446D01*
X0312912Y0105328D01*
X0312870Y0105211D01*
X0312825Y0105096D01*
X0312776Y0104983D01*
X0312723Y0104871D01*
X0312667Y0104760D01*
X0312607Y0104652D01*
X0312544Y0104545D01*
X0312478Y0104441D01*
X0312409Y0104338D01*
X0312336Y0104238D01*
X0312260Y0104141D01*
X0312181Y0104045D01*
X0312099Y0103952D01*
X0312014Y0103862D01*
X0311927Y0103775D01*
X0311837Y0103690D01*
X0311744Y0103608D01*
X0311648Y0103529D01*
X0311551Y0103453D01*
X0311450Y0103381D01*
X0311348Y0103311D01*
X0311244Y0103245D01*
X0311137Y0103182D01*
X0311028Y0103122D01*
X0310918Y0103066D01*
X0310806Y0103014D01*
X0310693Y0102965D01*
X0310577Y0102919D01*
X0310461Y0102877D01*
X0310343Y0102839D01*
X0310224Y0102805D01*
X0310104Y0102774D01*
X0309984Y0102747D01*
X0309862Y0102724D01*
X0309740Y0102705D01*
X0309617Y0102689D01*
X0309494Y0102678D01*
X0309370Y0102670D01*
X0309246Y0102666D01*
X0316692Y0103705D02*
X0316732Y0103851D01*
X0316768Y0103997D01*
X0316801Y0104145D01*
X0316830Y0104294D01*
X0316855Y0104443D01*
X0316876Y0104593D01*
X0316893Y0104743D01*
X0316906Y0104894D01*
X0316915Y0105045D01*
X0316921Y0105196D01*
X0316922Y0105348D01*
X0316919Y0105499D01*
X0316913Y0105650D01*
X0316902Y0105801D01*
X0316888Y0105952D01*
X0316870Y0106102D01*
X0316847Y0106252D01*
X0316821Y0106401D01*
X0316791Y0106549D01*
X0316757Y0106697D01*
X0316720Y0106843D01*
X0316678Y0106989D01*
X0316633Y0107133D01*
X0316584Y0107276D01*
X0316531Y0107418D01*
X0316475Y0107559D01*
X0316415Y0107698D01*
X0316351Y0107835D01*
X0316284Y0107970D01*
X0316213Y0108104D01*
X0316139Y0108236D01*
X0316061Y0108366D01*
X0315980Y0108494D01*
X0315896Y0108620D01*
X0315809Y0108743D01*
X0315718Y0108864D01*
X0315624Y0108983D01*
X0315527Y0109099D01*
X0315427Y0109213D01*
X0315324Y0109324D01*
X0315219Y0109432D01*
X0315110Y0109538D01*
X0314999Y0109640D01*
X0314885Y0109740D01*
X0314769Y0109837D01*
X0314650Y0109931D01*
X0314529Y0110021D01*
X0314405Y0110108D01*
X0314279Y0110193D01*
X0314151Y0110273D01*
X0314021Y0110351D01*
X0313889Y0110425D01*
X0313755Y0110495D01*
X0313620Y0110562D01*
X0313482Y0110626D01*
X0313343Y0110686D01*
X0313203Y0110742D01*
X0313061Y0110795D01*
X0312918Y0110843D01*
X0312773Y0110888D01*
X0312628Y0110930D01*
X0312481Y0110967D01*
X0312333Y0111001D01*
X0312185Y0111031D01*
X0312036Y0111057D01*
X0311886Y0111079D01*
X0311736Y0111097D01*
X0311585Y0111111D01*
X0311434Y0111121D01*
X0311283Y0111128D01*
X0311132Y0111130D01*
X0310981Y0111128D01*
X0310829Y0111123D01*
X0310678Y0111113D01*
X0310527Y0111100D01*
X0310377Y0111083D01*
X0310227Y0111062D01*
X0310078Y0111036D01*
X0309930Y0111007D01*
X0309782Y0110975D01*
X0309635Y0110938D01*
X0309489Y0110897D01*
X0309344Y0110853D01*
X0309201Y0110805D01*
X0309059Y0110753D01*
X0308918Y0110698D01*
X0308779Y0110639D01*
X0308641Y0110576D01*
X0308505Y0110510D01*
X0308371Y0110440D01*
X0308238Y0110367D01*
X0308108Y0110290D01*
X0307979Y0110210D01*
X0307853Y0110126D01*
X0306369Y0112220D02*
X0298881Y0109787D01*
X0295504Y0120178D01*
X0302993Y0122611D01*
X0303199Y0121022D02*
X0297489Y0119167D01*
X0299892Y0111772D01*
X0305602Y0113627D01*
X0305725Y0117704D02*
X0305623Y0117773D01*
X0305519Y0117840D01*
X0305412Y0117903D01*
X0305304Y0117963D01*
X0305194Y0118019D01*
X0305082Y0118072D01*
X0304968Y0118121D01*
X0304853Y0118167D01*
X0304737Y0118209D01*
X0304619Y0118247D01*
X0304500Y0118282D01*
X0304380Y0118313D01*
X0304260Y0118340D01*
X0304138Y0118363D01*
X0304016Y0118382D01*
X0303893Y0118398D01*
X0303770Y0118410D01*
X0303646Y0118418D01*
X0303522Y0118421D01*
X0303399Y0118422D01*
X0303275Y0118418D01*
X0303151Y0118410D01*
X0303028Y0118398D01*
X0302905Y0118383D01*
X0302783Y0118364D01*
X0302662Y0118340D01*
X0302541Y0118313D01*
X0302421Y0118283D01*
X0302302Y0118248D01*
X0302184Y0118210D01*
X0302068Y0118168D01*
X0301953Y0118122D01*
X0301839Y0118073D01*
X0301727Y0118020D01*
X0301617Y0117964D01*
X0301509Y0117905D01*
X0301402Y0117842D01*
X0301298Y0117775D01*
X0301195Y0117706D01*
X0301095Y0117633D01*
X0300997Y0117557D01*
X0300902Y0117478D01*
X0300809Y0117396D01*
X0300719Y0117311D01*
X0300632Y0117224D01*
X0300547Y0117133D01*
X0300465Y0117041D01*
X0300386Y0116945D01*
X0300310Y0116847D01*
X0300238Y0116747D01*
X0300168Y0116645D01*
X0300102Y0116540D01*
X0300039Y0116434D01*
X0299980Y0116325D01*
X0299924Y0116215D01*
X0299871Y0116103D01*
X0299822Y0115989D01*
X0299777Y0115874D01*
X0299735Y0115757D01*
X0305601Y0113628D02*
X0305697Y0113715D01*
X0305791Y0113805D01*
X0305881Y0113898D01*
X0305969Y0113993D01*
X0306054Y0114091D01*
X0306136Y0114192D01*
X0306214Y0114295D01*
X0306290Y0114401D01*
X0306362Y0114508D01*
X0306430Y0114618D01*
X0306496Y0114730D01*
X0306558Y0114844D01*
X0306616Y0114960D01*
X0306671Y0115077D01*
X0306722Y0115197D01*
X0306770Y0115317D01*
X0306814Y0115439D01*
X0306854Y0115563D01*
X0306890Y0115687D01*
X0306922Y0115813D01*
X0306951Y0115939D01*
X0306976Y0116067D01*
X0306996Y0116195D01*
X0307013Y0116323D01*
X0307026Y0116452D01*
X0307035Y0116581D01*
X0307040Y0116711D01*
X0307041Y0116841D01*
X0307038Y0116970D01*
X0307031Y0117100D01*
X0307020Y0117229D01*
X0307005Y0117358D01*
X0306986Y0117486D01*
X0306964Y0117614D01*
X0306937Y0117741D01*
X0306906Y0117867D01*
X0306872Y0117992D01*
X0306834Y0118116D01*
X0306792Y0118238D01*
X0306746Y0118360D01*
X0306697Y0118480D01*
X0306644Y0118598D01*
X0306587Y0118715D01*
X0306527Y0118830D01*
X0306463Y0118943D01*
X0306396Y0119053D01*
X0306326Y0119162D01*
X0306252Y0119269D01*
X0306175Y0119373D01*
X0306095Y0119475D01*
X0306011Y0119575D01*
X0305925Y0119671D01*
X0305836Y0119766D01*
X0305744Y0119857D01*
X0305649Y0119945D01*
X0305552Y0120031D01*
X0305452Y0120113D01*
X0305349Y0120193D01*
X0305244Y0120269D01*
X0305137Y0120342D01*
X0305028Y0120412D01*
X0304916Y0120478D01*
X0304803Y0120541D01*
X0304688Y0120600D01*
X0304570Y0120656D01*
X0304452Y0120708D01*
X0304331Y0120757D01*
X0304210Y0120801D01*
X0304087Y0120842D01*
X0303963Y0120880D01*
X0303837Y0120913D01*
X0303711Y0120943D01*
X0303584Y0120968D01*
X0303456Y0120990D01*
X0303328Y0121008D01*
X0303199Y0121022D01*
X0305726Y0117704D02*
X0305684Y0117587D01*
X0305639Y0117472D01*
X0305590Y0117358D01*
X0305537Y0117246D01*
X0305481Y0117136D01*
X0305422Y0117027D01*
X0305359Y0116921D01*
X0305293Y0116816D01*
X0305223Y0116714D01*
X0305151Y0116614D01*
X0305075Y0116516D01*
X0304996Y0116420D01*
X0304914Y0116328D01*
X0304829Y0116237D01*
X0304742Y0116150D01*
X0304652Y0116065D01*
X0304559Y0115983D01*
X0304464Y0115904D01*
X0304366Y0115828D01*
X0304266Y0115755D01*
X0304163Y0115686D01*
X0304059Y0115619D01*
X0303952Y0115556D01*
X0303844Y0115497D01*
X0303734Y0115441D01*
X0303622Y0115388D01*
X0303508Y0115339D01*
X0303393Y0115293D01*
X0303277Y0115251D01*
X0303159Y0115213D01*
X0303040Y0115178D01*
X0302920Y0115148D01*
X0302799Y0115121D01*
X0302678Y0115097D01*
X0302556Y0115078D01*
X0302433Y0115063D01*
X0302310Y0115051D01*
X0302186Y0115043D01*
X0302062Y0115039D01*
X0301939Y0115040D01*
X0301815Y0115043D01*
X0301691Y0115051D01*
X0301568Y0115063D01*
X0301445Y0115079D01*
X0301323Y0115098D01*
X0301201Y0115121D01*
X0301081Y0115148D01*
X0300961Y0115179D01*
X0300842Y0115214D01*
X0300724Y0115252D01*
X0300608Y0115294D01*
X0300493Y0115340D01*
X0300379Y0115389D01*
X0300267Y0115442D01*
X0300157Y0115498D01*
X0300049Y0115558D01*
X0299942Y0115621D01*
X0299838Y0115688D01*
X0299736Y0115757D01*
X0306369Y0112221D02*
X0306487Y0112315D01*
X0306603Y0112412D01*
X0306716Y0112513D01*
X0306827Y0112616D01*
X0306935Y0112722D01*
X0307040Y0112831D01*
X0307142Y0112943D01*
X0307242Y0113057D01*
X0307338Y0113174D01*
X0307431Y0113293D01*
X0307521Y0113415D01*
X0307608Y0113538D01*
X0307691Y0113665D01*
X0307772Y0113793D01*
X0307849Y0113923D01*
X0307922Y0114056D01*
X0307992Y0114190D01*
X0308059Y0114326D01*
X0308122Y0114463D01*
X0308181Y0114603D01*
X0308236Y0114743D01*
X0308288Y0114885D01*
X0308337Y0115029D01*
X0308381Y0115174D01*
X0308422Y0115319D01*
X0308459Y0115466D01*
X0308492Y0115614D01*
X0308521Y0115762D01*
X0308546Y0115911D01*
X0308568Y0116061D01*
X0308585Y0116212D01*
X0308599Y0116362D01*
X0308609Y0116513D01*
X0308614Y0116665D01*
X0308616Y0116816D01*
X0308614Y0116967D01*
X0308608Y0117118D01*
X0308598Y0117269D01*
X0308584Y0117420D01*
X0308566Y0117570D01*
X0308544Y0117720D01*
X0308518Y0117869D01*
X0308489Y0118018D01*
X0308455Y0118165D01*
X0308418Y0118312D01*
X0308377Y0118458D01*
X0308332Y0118602D01*
X0308283Y0118745D01*
X0308231Y0118887D01*
X0308175Y0119028D01*
X0308115Y0119167D01*
X0308052Y0119305D01*
X0307985Y0119440D01*
X0307915Y0119574D01*
X0307841Y0119706D01*
X0307764Y0119837D01*
X0307683Y0119965D01*
X0307599Y0120091D01*
X0307512Y0120214D01*
X0307421Y0120336D01*
X0307328Y0120455D01*
X0307231Y0120571D01*
X0307132Y0120685D01*
X0307029Y0120796D01*
X0306924Y0120905D01*
X0306816Y0121011D01*
X0306705Y0121114D01*
X0306591Y0121214D01*
X0306475Y0121311D01*
X0306357Y0121405D01*
X0306236Y0121496D01*
X0306112Y0121583D01*
X0305987Y0121668D01*
X0305859Y0121749D01*
X0305729Y0121827D01*
X0305597Y0121901D01*
X0305464Y0121972D01*
X0305328Y0122040D01*
X0305191Y0122103D01*
X0305052Y0122164D01*
X0304912Y0122220D01*
X0304770Y0122273D01*
X0304627Y0122322D01*
X0304482Y0122368D01*
X0304337Y0122410D01*
X0304190Y0122447D01*
X0304043Y0122482D01*
X0303895Y0122512D01*
X0303746Y0122538D01*
X0303596Y0122561D01*
X0303446Y0122579D01*
X0303295Y0122594D01*
X0303144Y0122604D01*
X0302993Y0122611D01*
X0303024Y0125177D02*
X0295535Y0127610D01*
X0298911Y0138001D01*
X0306400Y0135567D01*
X0305632Y0134161D02*
X0299922Y0136017D01*
X0297520Y0128621D01*
X0303230Y0126766D01*
X0305726Y0129990D02*
X0305684Y0130107D01*
X0305639Y0130222D01*
X0305590Y0130336D01*
X0305537Y0130448D01*
X0305481Y0130558D01*
X0305422Y0130667D01*
X0305359Y0130773D01*
X0305293Y0130878D01*
X0305223Y0130980D01*
X0305151Y0131080D01*
X0305075Y0131178D01*
X0304996Y0131274D01*
X0304914Y0131366D01*
X0304829Y0131457D01*
X0304742Y0131544D01*
X0304652Y0131629D01*
X0304559Y0131711D01*
X0304464Y0131790D01*
X0304366Y0131866D01*
X0304266Y0131939D01*
X0304163Y0132008D01*
X0304059Y0132075D01*
X0303952Y0132138D01*
X0303844Y0132197D01*
X0303734Y0132253D01*
X0303622Y0132306D01*
X0303508Y0132355D01*
X0303393Y0132401D01*
X0303277Y0132443D01*
X0303159Y0132481D01*
X0303040Y0132516D01*
X0302920Y0132546D01*
X0302799Y0132573D01*
X0302678Y0132597D01*
X0302556Y0132616D01*
X0302433Y0132631D01*
X0302310Y0132643D01*
X0302186Y0132651D01*
X0302062Y0132655D01*
X0301939Y0132654D01*
X0301815Y0132651D01*
X0301691Y0132643D01*
X0301568Y0132631D01*
X0301445Y0132615D01*
X0301323Y0132596D01*
X0301201Y0132573D01*
X0301081Y0132546D01*
X0300961Y0132515D01*
X0300842Y0132480D01*
X0300724Y0132442D01*
X0300608Y0132400D01*
X0300493Y0132354D01*
X0300379Y0132305D01*
X0300267Y0132252D01*
X0300157Y0132196D01*
X0300049Y0132136D01*
X0299942Y0132073D01*
X0299838Y0132006D01*
X0299736Y0131937D01*
X0303230Y0126767D02*
X0303359Y0126781D01*
X0303487Y0126799D01*
X0303615Y0126821D01*
X0303742Y0126846D01*
X0303868Y0126876D01*
X0303994Y0126909D01*
X0304118Y0126947D01*
X0304241Y0126988D01*
X0304362Y0127032D01*
X0304483Y0127081D01*
X0304601Y0127133D01*
X0304719Y0127189D01*
X0304834Y0127248D01*
X0304947Y0127311D01*
X0305059Y0127377D01*
X0305168Y0127447D01*
X0305275Y0127520D01*
X0305380Y0127596D01*
X0305483Y0127676D01*
X0305583Y0127758D01*
X0305680Y0127844D01*
X0305775Y0127932D01*
X0305867Y0128023D01*
X0305956Y0128118D01*
X0306042Y0128214D01*
X0306126Y0128314D01*
X0306206Y0128416D01*
X0306283Y0128520D01*
X0306357Y0128627D01*
X0306427Y0128736D01*
X0306494Y0128846D01*
X0306558Y0128959D01*
X0306618Y0129074D01*
X0306675Y0129191D01*
X0306728Y0129309D01*
X0306777Y0129429D01*
X0306823Y0129551D01*
X0306865Y0129673D01*
X0306903Y0129797D01*
X0306937Y0129922D01*
X0306968Y0130048D01*
X0306995Y0130175D01*
X0307017Y0130303D01*
X0307036Y0130431D01*
X0307051Y0130560D01*
X0307062Y0130689D01*
X0307069Y0130819D01*
X0307072Y0130948D01*
X0307071Y0131078D01*
X0307066Y0131208D01*
X0307057Y0131337D01*
X0307044Y0131466D01*
X0307027Y0131594D01*
X0307007Y0131722D01*
X0306982Y0131850D01*
X0306953Y0131976D01*
X0306921Y0132102D01*
X0306885Y0132226D01*
X0306845Y0132350D01*
X0306801Y0132472D01*
X0306753Y0132592D01*
X0306702Y0132712D01*
X0306647Y0132829D01*
X0306589Y0132945D01*
X0306527Y0133059D01*
X0306461Y0133171D01*
X0306393Y0133281D01*
X0306321Y0133388D01*
X0306245Y0133494D01*
X0306167Y0133597D01*
X0306085Y0133698D01*
X0306000Y0133796D01*
X0305912Y0133891D01*
X0305822Y0133984D01*
X0305728Y0134074D01*
X0305632Y0134161D01*
X0305726Y0129991D02*
X0305624Y0129922D01*
X0305520Y0129855D01*
X0305413Y0129792D01*
X0305305Y0129732D01*
X0305195Y0129676D01*
X0305083Y0129623D01*
X0304969Y0129574D01*
X0304854Y0129528D01*
X0304738Y0129486D01*
X0304620Y0129448D01*
X0304501Y0129413D01*
X0304381Y0129382D01*
X0304261Y0129355D01*
X0304139Y0129332D01*
X0304017Y0129313D01*
X0303894Y0129297D01*
X0303771Y0129285D01*
X0303647Y0129277D01*
X0303523Y0129274D01*
X0303400Y0129273D01*
X0303276Y0129277D01*
X0303152Y0129285D01*
X0303029Y0129297D01*
X0302906Y0129312D01*
X0302784Y0129331D01*
X0302663Y0129355D01*
X0302542Y0129382D01*
X0302422Y0129412D01*
X0302303Y0129447D01*
X0302185Y0129485D01*
X0302069Y0129527D01*
X0301954Y0129573D01*
X0301840Y0129622D01*
X0301728Y0129675D01*
X0301618Y0129731D01*
X0301510Y0129790D01*
X0301403Y0129853D01*
X0301299Y0129920D01*
X0301196Y0129989D01*
X0301096Y0130062D01*
X0300998Y0130138D01*
X0300903Y0130217D01*
X0300810Y0130299D01*
X0300720Y0130384D01*
X0300633Y0130471D01*
X0300548Y0130562D01*
X0300466Y0130654D01*
X0300387Y0130750D01*
X0300311Y0130848D01*
X0300239Y0130948D01*
X0300169Y0131050D01*
X0300103Y0131155D01*
X0300040Y0131261D01*
X0299981Y0131370D01*
X0299925Y0131480D01*
X0299872Y0131592D01*
X0299823Y0131706D01*
X0299778Y0131821D01*
X0299736Y0131938D01*
X0303024Y0125177D02*
X0303175Y0125184D01*
X0303326Y0125194D01*
X0303476Y0125209D01*
X0303627Y0125227D01*
X0303776Y0125250D01*
X0303925Y0125276D01*
X0304074Y0125306D01*
X0304221Y0125340D01*
X0304368Y0125378D01*
X0304513Y0125420D01*
X0304657Y0125465D01*
X0304801Y0125515D01*
X0304942Y0125568D01*
X0305083Y0125624D01*
X0305222Y0125684D01*
X0305359Y0125748D01*
X0305494Y0125816D01*
X0305628Y0125887D01*
X0305760Y0125961D01*
X0305890Y0126039D01*
X0306017Y0126120D01*
X0306143Y0126204D01*
X0306266Y0126292D01*
X0306387Y0126383D01*
X0306506Y0126477D01*
X0306622Y0126574D01*
X0306736Y0126674D01*
X0306847Y0126777D01*
X0306955Y0126883D01*
X0307060Y0126991D01*
X0307163Y0127103D01*
X0307262Y0127217D01*
X0307359Y0127333D01*
X0307452Y0127452D01*
X0307543Y0127574D01*
X0307630Y0127697D01*
X0307714Y0127823D01*
X0307794Y0127951D01*
X0307872Y0128081D01*
X0307946Y0128214D01*
X0308016Y0128348D01*
X0308083Y0128483D01*
X0308146Y0128621D01*
X0308206Y0128760D01*
X0308262Y0128900D01*
X0308314Y0129042D01*
X0308363Y0129186D01*
X0308408Y0129330D01*
X0308449Y0129476D01*
X0308486Y0129623D01*
X0308520Y0129770D01*
X0308549Y0129919D01*
X0308575Y0130068D01*
X0308597Y0130217D01*
X0308615Y0130368D01*
X0308629Y0130518D01*
X0308639Y0130669D01*
X0308645Y0130821D01*
X0308647Y0130972D01*
X0308645Y0131123D01*
X0308640Y0131275D01*
X0308630Y0131426D01*
X0308616Y0131576D01*
X0308599Y0131727D01*
X0308577Y0131876D01*
X0308552Y0132026D01*
X0308523Y0132174D01*
X0308490Y0132322D01*
X0308453Y0132469D01*
X0308412Y0132614D01*
X0308368Y0132759D01*
X0308319Y0132902D01*
X0308268Y0133045D01*
X0308212Y0133185D01*
X0308153Y0133325D01*
X0308090Y0133462D01*
X0308023Y0133598D01*
X0307953Y0133732D01*
X0307880Y0133865D01*
X0307803Y0133995D01*
X0307723Y0134123D01*
X0307639Y0134249D01*
X0307552Y0134373D01*
X0307462Y0134495D01*
X0307369Y0134614D01*
X0307273Y0134731D01*
X0307173Y0134845D01*
X0307071Y0134957D01*
X0306966Y0135066D01*
X0306858Y0135172D01*
X0306747Y0135275D01*
X0306634Y0135376D01*
X0306518Y0135473D01*
X0306400Y0135567D01*
X0307933Y0137626D02*
X0303305Y0143996D01*
X0312143Y0150418D01*
X0316772Y0144047D01*
X0315324Y0143361D02*
X0311795Y0148218D01*
X0305504Y0143647D01*
X0309033Y0138791D01*
X0312949Y0139932D02*
X0312983Y0140050D01*
X0313014Y0140170D01*
X0313041Y0140291D01*
X0313065Y0140413D01*
X0313084Y0140535D01*
X0313100Y0140658D01*
X0313112Y0140781D01*
X0313119Y0140904D01*
X0313123Y0141028D01*
X0313124Y0141152D01*
X0313120Y0141276D01*
X0313112Y0141399D01*
X0313101Y0141522D01*
X0313085Y0141645D01*
X0313066Y0141767D01*
X0313043Y0141889D01*
X0313016Y0142010D01*
X0312985Y0142130D01*
X0312950Y0142249D01*
X0312912Y0142366D01*
X0312870Y0142483D01*
X0312825Y0142598D01*
X0312776Y0142712D01*
X0312723Y0142824D01*
X0312667Y0142934D01*
X0312607Y0143042D01*
X0312544Y0143149D01*
X0312478Y0143253D01*
X0312408Y0143356D01*
X0312336Y0143456D01*
X0312260Y0143554D01*
X0312181Y0143649D01*
X0312099Y0143742D01*
X0312014Y0143832D01*
X0311927Y0143920D01*
X0311836Y0144004D01*
X0311744Y0144086D01*
X0311648Y0144165D01*
X0311550Y0144241D01*
X0311450Y0144313D01*
X0311348Y0144383D01*
X0311243Y0144449D01*
X0311137Y0144512D01*
X0311028Y0144572D01*
X0310918Y0144628D01*
X0310806Y0144680D01*
X0310692Y0144730D01*
X0310577Y0144775D01*
X0310461Y0144817D01*
X0310343Y0144855D01*
X0310224Y0144889D01*
X0310104Y0144920D01*
X0309983Y0144947D01*
X0309862Y0144970D01*
X0309739Y0144989D01*
X0309617Y0145005D01*
X0309493Y0145016D01*
X0309370Y0145024D01*
X0309246Y0145028D01*
X0309033Y0138791D02*
X0309146Y0138726D01*
X0309260Y0138665D01*
X0309376Y0138608D01*
X0309494Y0138554D01*
X0309614Y0138503D01*
X0309735Y0138457D01*
X0309857Y0138414D01*
X0309981Y0138375D01*
X0310106Y0138340D01*
X0310231Y0138308D01*
X0310358Y0138281D01*
X0310486Y0138257D01*
X0310614Y0138237D01*
X0310743Y0138221D01*
X0310872Y0138209D01*
X0311001Y0138201D01*
X0311131Y0138197D01*
X0311260Y0138198D01*
X0311390Y0138201D01*
X0311519Y0138209D01*
X0311649Y0138221D01*
X0311777Y0138237D01*
X0311905Y0138257D01*
X0312033Y0138281D01*
X0312160Y0138308D01*
X0312285Y0138340D01*
X0312410Y0138375D01*
X0312534Y0138414D01*
X0312656Y0138457D01*
X0312777Y0138504D01*
X0312897Y0138554D01*
X0313015Y0138608D01*
X0313131Y0138666D01*
X0313245Y0138727D01*
X0313358Y0138791D01*
X0313468Y0138859D01*
X0313576Y0138931D01*
X0313682Y0139005D01*
X0313786Y0139083D01*
X0313887Y0139164D01*
X0313986Y0139248D01*
X0314082Y0139335D01*
X0314176Y0139425D01*
X0314266Y0139518D01*
X0314354Y0139613D01*
X0314439Y0139711D01*
X0314521Y0139812D01*
X0314599Y0139915D01*
X0314675Y0140020D01*
X0314747Y0140128D01*
X0314816Y0140238D01*
X0314881Y0140350D01*
X0314943Y0140464D01*
X0315002Y0140580D01*
X0315056Y0140697D01*
X0315108Y0140816D01*
X0315155Y0140937D01*
X0315199Y0141059D01*
X0315239Y0141182D01*
X0315276Y0141307D01*
X0315308Y0141432D01*
X0315337Y0141559D01*
X0315361Y0141686D01*
X0315382Y0141814D01*
X0315399Y0141943D01*
X0315412Y0142072D01*
X0315421Y0142201D01*
X0315426Y0142331D01*
X0315427Y0142460D01*
X0315424Y0142590D01*
X0315417Y0142719D01*
X0315406Y0142849D01*
X0315391Y0142978D01*
X0315373Y0143106D01*
X0315350Y0143233D01*
X0315323Y0143360D01*
X0312949Y0139932D02*
X0312825Y0139936D01*
X0312701Y0139944D01*
X0312578Y0139955D01*
X0312455Y0139971D01*
X0312333Y0139990D01*
X0312211Y0140013D01*
X0312091Y0140040D01*
X0311971Y0140071D01*
X0311852Y0140105D01*
X0311734Y0140143D01*
X0311618Y0140185D01*
X0311503Y0140231D01*
X0311389Y0140280D01*
X0311277Y0140332D01*
X0311167Y0140388D01*
X0311058Y0140448D01*
X0310952Y0140511D01*
X0310847Y0140577D01*
X0310745Y0140647D01*
X0310645Y0140719D01*
X0310547Y0140795D01*
X0310451Y0140874D01*
X0310358Y0140956D01*
X0310268Y0141041D01*
X0310181Y0141128D01*
X0310096Y0141218D01*
X0310014Y0141311D01*
X0309935Y0141406D01*
X0309859Y0141504D01*
X0309787Y0141604D01*
X0309717Y0141707D01*
X0309651Y0141811D01*
X0309588Y0141918D01*
X0309528Y0142026D01*
X0309472Y0142136D01*
X0309419Y0142248D01*
X0309370Y0142362D01*
X0309325Y0142477D01*
X0309283Y0142594D01*
X0309245Y0142711D01*
X0309210Y0142830D01*
X0309179Y0142950D01*
X0309152Y0143071D01*
X0309129Y0143192D01*
X0309110Y0143315D01*
X0309095Y0143437D01*
X0309083Y0143561D01*
X0309075Y0143684D01*
X0309071Y0143808D01*
X0309072Y0143932D01*
X0309076Y0144055D01*
X0309083Y0144179D01*
X0309095Y0144302D01*
X0309111Y0144425D01*
X0309130Y0144547D01*
X0309154Y0144669D01*
X0309181Y0144789D01*
X0309212Y0144909D01*
X0309246Y0145028D01*
X0307933Y0137626D02*
X0308059Y0137542D01*
X0308188Y0137462D01*
X0308318Y0137386D01*
X0308450Y0137312D01*
X0308585Y0137242D01*
X0308721Y0137176D01*
X0308858Y0137113D01*
X0308998Y0137054D01*
X0309139Y0136999D01*
X0309281Y0136947D01*
X0309424Y0136899D01*
X0309569Y0136855D01*
X0309715Y0136814D01*
X0309862Y0136777D01*
X0310009Y0136745D01*
X0310158Y0136716D01*
X0310307Y0136690D01*
X0310457Y0136669D01*
X0310607Y0136652D01*
X0310758Y0136639D01*
X0310909Y0136629D01*
X0311060Y0136624D01*
X0311212Y0136622D01*
X0311363Y0136624D01*
X0311514Y0136631D01*
X0311665Y0136641D01*
X0311816Y0136655D01*
X0311966Y0136673D01*
X0312116Y0136695D01*
X0312265Y0136721D01*
X0312413Y0136751D01*
X0312561Y0136785D01*
X0312707Y0136822D01*
X0312853Y0136863D01*
X0312998Y0136909D01*
X0313141Y0136957D01*
X0313283Y0137010D01*
X0313423Y0137066D01*
X0313562Y0137126D01*
X0313700Y0137190D01*
X0313835Y0137257D01*
X0313969Y0137327D01*
X0314101Y0137401D01*
X0314231Y0137479D01*
X0314359Y0137559D01*
X0314485Y0137643D01*
X0314609Y0137731D01*
X0314730Y0137821D01*
X0314849Y0137915D01*
X0314965Y0138012D01*
X0315079Y0138111D01*
X0315190Y0138214D01*
X0315299Y0138320D01*
X0315404Y0138428D01*
X0315507Y0138539D01*
X0315607Y0138653D01*
X0315704Y0138769D01*
X0315798Y0138888D01*
X0315888Y0139009D01*
X0315976Y0139132D01*
X0316060Y0139258D01*
X0316141Y0139386D01*
X0316219Y0139516D01*
X0316293Y0139648D01*
X0316364Y0139782D01*
X0316431Y0139917D01*
X0316495Y0140054D01*
X0316555Y0140193D01*
X0316611Y0140334D01*
X0316664Y0140476D01*
X0316713Y0140619D01*
X0316758Y0140763D01*
X0316800Y0140909D01*
X0316837Y0141055D01*
X0316871Y0141203D01*
X0316901Y0141351D01*
X0316927Y0141500D01*
X0316950Y0141650D01*
X0316968Y0141800D01*
X0316982Y0141951D01*
X0316993Y0142102D01*
X0316999Y0142253D01*
X0317002Y0142404D01*
X0317001Y0142556D01*
X0316995Y0142707D01*
X0316986Y0142858D01*
X0316973Y0143009D01*
X0316956Y0143159D01*
X0316935Y0143309D01*
X0316910Y0143458D01*
X0316881Y0143607D01*
X0316848Y0143755D01*
X0316812Y0143901D01*
X0316772Y0144047D01*
X0324635Y0143728D02*
X0324733Y0143804D01*
X0324828Y0143883D01*
X0324921Y0143965D01*
X0325011Y0144049D01*
X0325099Y0144137D01*
X0325184Y0144227D01*
X0325266Y0144320D01*
X0325345Y0144415D01*
X0325421Y0144513D01*
X0325494Y0144613D01*
X0325563Y0144715D01*
X0325630Y0144819D01*
X0325693Y0144926D01*
X0325752Y0145034D01*
X0325809Y0145145D01*
X0325861Y0145257D01*
X0325911Y0145370D01*
X0325956Y0145485D01*
X0325998Y0145602D01*
X0326037Y0145719D01*
X0326071Y0145838D01*
X0326102Y0145958D01*
X0326129Y0146079D01*
X0326152Y0146201D01*
X0326172Y0146323D01*
X0326187Y0146446D01*
X0326199Y0146569D01*
X0326207Y0146692D01*
X0326211Y0146816D01*
X0326211Y0146940D01*
X0326207Y0147064D01*
X0326199Y0147187D01*
X0326187Y0147310D01*
X0326172Y0147433D01*
X0326152Y0147555D01*
X0326129Y0147677D01*
X0326102Y0147798D01*
X0326071Y0147918D01*
X0326037Y0148037D01*
X0325998Y0148154D01*
X0325956Y0148271D01*
X0325911Y0148386D01*
X0325861Y0148499D01*
X0325809Y0148611D01*
X0325752Y0148722D01*
X0325693Y0148830D01*
X0325630Y0148937D01*
X0325563Y0149041D01*
X0325494Y0149143D01*
X0325421Y0149243D01*
X0325345Y0149341D01*
X0325266Y0149436D01*
X0325184Y0149529D01*
X0325099Y0149619D01*
X0325011Y0149707D01*
X0324921Y0149791D01*
X0324828Y0149873D01*
X0324733Y0149952D01*
X0324635Y0150028D01*
X0320797Y0145107D02*
X0320850Y0144989D01*
X0320906Y0144872D01*
X0320967Y0144757D01*
X0321030Y0144644D01*
X0321097Y0144534D01*
X0321168Y0144425D01*
X0321242Y0144318D01*
X0321319Y0144214D01*
X0321399Y0144112D01*
X0321482Y0144013D01*
X0321569Y0143916D01*
X0321658Y0143822D01*
X0321750Y0143730D01*
X0321845Y0143642D01*
X0321942Y0143556D01*
X0322042Y0143474D01*
X0322145Y0143394D01*
X0322250Y0143318D01*
X0322357Y0143245D01*
X0322466Y0143176D01*
X0322578Y0143109D01*
X0322691Y0143047D01*
X0322806Y0142987D01*
X0322924Y0142932D01*
X0323042Y0142879D01*
X0323163Y0142831D01*
X0323284Y0142786D01*
X0323407Y0142745D01*
X0323531Y0142708D01*
X0323657Y0142675D01*
X0323783Y0142645D01*
X0323910Y0142619D01*
X0324038Y0142598D01*
X0324166Y0142580D01*
X0324295Y0142566D01*
X0324425Y0142556D01*
X0324554Y0142550D01*
X0324684Y0142548D01*
X0324813Y0142550D01*
X0324943Y0142556D01*
X0325072Y0142566D01*
X0325201Y0142580D01*
X0325330Y0142598D01*
X0325457Y0142619D01*
X0325585Y0142645D01*
X0325711Y0142674D01*
X0325836Y0142708D01*
X0325960Y0142745D01*
X0326083Y0142786D01*
X0326205Y0142831D01*
X0326325Y0142879D01*
X0326444Y0142931D01*
X0326561Y0142987D01*
X0326676Y0143046D01*
X0326790Y0143109D01*
X0326901Y0143175D01*
X0327011Y0143245D01*
X0327118Y0143318D01*
X0327223Y0143394D01*
X0327325Y0143474D01*
X0327426Y0143556D01*
X0327523Y0143642D01*
X0327618Y0143730D01*
X0327710Y0143821D01*
X0327799Y0143915D01*
X0327885Y0144012D01*
X0327969Y0144112D01*
X0328049Y0144213D01*
X0328126Y0144318D01*
X0328200Y0144424D01*
X0328270Y0144533D01*
X0328337Y0144644D01*
X0328401Y0144757D01*
X0328461Y0144872D01*
X0328518Y0144989D01*
X0328571Y0145107D01*
X0312896Y0123847D02*
X0312900Y0124135D01*
X0312910Y0124423D01*
X0312928Y0124711D01*
X0312953Y0124998D01*
X0312984Y0125284D01*
X0313023Y0125569D01*
X0313069Y0125854D01*
X0313122Y0126137D01*
X0313181Y0126419D01*
X0313248Y0126699D01*
X0313321Y0126978D01*
X0313401Y0127255D01*
X0313488Y0127529D01*
X0313582Y0127802D01*
X0313683Y0128072D01*
X0313790Y0128339D01*
X0313903Y0128604D01*
X0314023Y0128866D01*
X0314149Y0129125D01*
X0314282Y0129381D01*
X0314421Y0129633D01*
X0314566Y0129882D01*
X0314717Y0130127D01*
X0314874Y0130369D01*
X0315037Y0130606D01*
X0315206Y0130840D01*
X0315381Y0131069D01*
X0315561Y0131294D01*
X0315746Y0131515D01*
X0315937Y0131730D01*
X0316133Y0131942D01*
X0316334Y0132148D01*
X0316540Y0132349D01*
X0316752Y0132545D01*
X0316967Y0132736D01*
X0317188Y0132921D01*
X0317413Y0133101D01*
X0317642Y0133276D01*
X0317876Y0133445D01*
X0318113Y0133608D01*
X0318355Y0133765D01*
X0318600Y0133916D01*
X0318849Y0134061D01*
X0319101Y0134200D01*
X0319357Y0134333D01*
X0319616Y0134459D01*
X0319878Y0134579D01*
X0320143Y0134692D01*
X0320410Y0134799D01*
X0320680Y0134900D01*
X0320953Y0134994D01*
X0321227Y0135081D01*
X0321504Y0135161D01*
X0321783Y0135234D01*
X0322063Y0135301D01*
X0322345Y0135360D01*
X0322628Y0135413D01*
X0322913Y0135459D01*
X0323198Y0135498D01*
X0323484Y0135529D01*
X0323771Y0135554D01*
X0324059Y0135572D01*
X0324347Y0135582D01*
X0324635Y0135586D01*
X0324923Y0135582D01*
X0325211Y0135572D01*
X0325499Y0135554D01*
X0325786Y0135529D01*
X0326072Y0135498D01*
X0326357Y0135459D01*
X0326642Y0135413D01*
X0326925Y0135360D01*
X0327207Y0135301D01*
X0327487Y0135234D01*
X0327766Y0135161D01*
X0328043Y0135081D01*
X0328317Y0134994D01*
X0328590Y0134900D01*
X0328860Y0134799D01*
X0329127Y0134692D01*
X0329392Y0134579D01*
X0329654Y0134459D01*
X0329913Y0134333D01*
X0330169Y0134200D01*
X0330421Y0134061D01*
X0330670Y0133916D01*
X0330915Y0133765D01*
X0331157Y0133608D01*
X0331394Y0133445D01*
X0331628Y0133276D01*
X0331857Y0133101D01*
X0332082Y0132921D01*
X0332303Y0132736D01*
X0332518Y0132545D01*
X0332730Y0132349D01*
X0332936Y0132148D01*
X0333137Y0131942D01*
X0333333Y0131730D01*
X0333524Y0131515D01*
X0333709Y0131294D01*
X0333889Y0131069D01*
X0334064Y0130840D01*
X0334233Y0130606D01*
X0334396Y0130369D01*
X0334553Y0130127D01*
X0334704Y0129882D01*
X0334849Y0129633D01*
X0334988Y0129381D01*
X0335121Y0129125D01*
X0335247Y0128866D01*
X0335367Y0128604D01*
X0335480Y0128339D01*
X0335587Y0128072D01*
X0335688Y0127802D01*
X0335782Y0127529D01*
X0335869Y0127255D01*
X0335949Y0126978D01*
X0336022Y0126699D01*
X0336089Y0126419D01*
X0336148Y0126137D01*
X0336201Y0125854D01*
X0336247Y0125569D01*
X0336286Y0125284D01*
X0336317Y0124998D01*
X0336342Y0124711D01*
X0336360Y0124423D01*
X0336370Y0124135D01*
X0336374Y0123847D01*
X0336370Y0123559D01*
X0336360Y0123271D01*
X0336342Y0122983D01*
X0336317Y0122696D01*
X0336286Y0122410D01*
X0336247Y0122125D01*
X0336201Y0121840D01*
X0336148Y0121557D01*
X0336089Y0121275D01*
X0336022Y0120995D01*
X0335949Y0120716D01*
X0335869Y0120439D01*
X0335782Y0120165D01*
X0335688Y0119892D01*
X0335587Y0119622D01*
X0335480Y0119355D01*
X0335367Y0119090D01*
X0335247Y0118828D01*
X0335121Y0118569D01*
X0334988Y0118313D01*
X0334849Y0118061D01*
X0334704Y0117812D01*
X0334553Y0117567D01*
X0334396Y0117325D01*
X0334233Y0117088D01*
X0334064Y0116854D01*
X0333889Y0116625D01*
X0333709Y0116400D01*
X0333524Y0116179D01*
X0333333Y0115964D01*
X0333137Y0115752D01*
X0332936Y0115546D01*
X0332730Y0115345D01*
X0332518Y0115149D01*
X0332303Y0114958D01*
X0332082Y0114773D01*
X0331857Y0114593D01*
X0331628Y0114418D01*
X0331394Y0114249D01*
X0331157Y0114086D01*
X0330915Y0113929D01*
X0330670Y0113778D01*
X0330421Y0113633D01*
X0330169Y0113494D01*
X0329913Y0113361D01*
X0329654Y0113235D01*
X0329392Y0113115D01*
X0329127Y0113002D01*
X0328860Y0112895D01*
X0328590Y0112794D01*
X0328317Y0112700D01*
X0328043Y0112613D01*
X0327766Y0112533D01*
X0327487Y0112460D01*
X0327207Y0112393D01*
X0326925Y0112334D01*
X0326642Y0112281D01*
X0326357Y0112235D01*
X0326072Y0112196D01*
X0325786Y0112165D01*
X0325499Y0112140D01*
X0325211Y0112122D01*
X0324923Y0112112D01*
X0324635Y0112108D01*
X0324347Y0112112D01*
X0324059Y0112122D01*
X0323771Y0112140D01*
X0323484Y0112165D01*
X0323198Y0112196D01*
X0322913Y0112235D01*
X0322628Y0112281D01*
X0322345Y0112334D01*
X0322063Y0112393D01*
X0321783Y0112460D01*
X0321504Y0112533D01*
X0321227Y0112613D01*
X0320953Y0112700D01*
X0320680Y0112794D01*
X0320410Y0112895D01*
X0320143Y0113002D01*
X0319878Y0113115D01*
X0319616Y0113235D01*
X0319357Y0113361D01*
X0319101Y0113494D01*
X0318849Y0113633D01*
X0318600Y0113778D01*
X0318355Y0113929D01*
X0318113Y0114086D01*
X0317876Y0114249D01*
X0317642Y0114418D01*
X0317413Y0114593D01*
X0317188Y0114773D01*
X0316967Y0114958D01*
X0316752Y0115149D01*
X0316540Y0115345D01*
X0316334Y0115546D01*
X0316133Y0115752D01*
X0315937Y0115964D01*
X0315746Y0116179D01*
X0315561Y0116400D01*
X0315381Y0116625D01*
X0315206Y0116854D01*
X0315037Y0117088D01*
X0314874Y0117325D01*
X0314717Y0117567D01*
X0314566Y0117812D01*
X0314421Y0118061D01*
X0314282Y0118313D01*
X0314149Y0118569D01*
X0314023Y0118828D01*
X0313903Y0119090D01*
X0313790Y0119355D01*
X0313683Y0119622D01*
X0313582Y0119892D01*
X0313488Y0120165D01*
X0313401Y0120439D01*
X0313321Y0120716D01*
X0313248Y0120995D01*
X0313181Y0121275D01*
X0313122Y0121557D01*
X0313069Y0121840D01*
X0313023Y0122125D01*
X0312984Y0122410D01*
X0312953Y0122696D01*
X0312928Y0122983D01*
X0312910Y0123271D01*
X0312900Y0123559D01*
X0312896Y0123847D01*
X0317798Y0123847D02*
X0317800Y0124015D01*
X0317806Y0124182D01*
X0317817Y0124350D01*
X0317831Y0124517D01*
X0317849Y0124684D01*
X0317872Y0124850D01*
X0317899Y0125016D01*
X0317929Y0125181D01*
X0317964Y0125345D01*
X0318003Y0125508D01*
X0318046Y0125671D01*
X0318092Y0125832D01*
X0318143Y0125992D01*
X0318198Y0126150D01*
X0318256Y0126308D01*
X0318318Y0126463D01*
X0318385Y0126618D01*
X0318454Y0126770D01*
X0318528Y0126921D01*
X0318605Y0127070D01*
X0318686Y0127217D01*
X0318771Y0127362D01*
X0318859Y0127505D01*
X0318950Y0127645D01*
X0319045Y0127784D01*
X0319143Y0127920D01*
X0319245Y0128053D01*
X0319350Y0128184D01*
X0319458Y0128313D01*
X0319569Y0128438D01*
X0319683Y0128561D01*
X0319801Y0128681D01*
X0319921Y0128799D01*
X0320044Y0128913D01*
X0320169Y0129024D01*
X0320298Y0129132D01*
X0320429Y0129237D01*
X0320562Y0129339D01*
X0320698Y0129437D01*
X0320837Y0129532D01*
X0320977Y0129623D01*
X0321120Y0129711D01*
X0321265Y0129796D01*
X0321412Y0129877D01*
X0321561Y0129954D01*
X0321712Y0130028D01*
X0321864Y0130097D01*
X0322019Y0130164D01*
X0322174Y0130226D01*
X0322332Y0130284D01*
X0322490Y0130339D01*
X0322650Y0130390D01*
X0322811Y0130436D01*
X0322974Y0130479D01*
X0323137Y0130518D01*
X0323301Y0130553D01*
X0323466Y0130583D01*
X0323632Y0130610D01*
X0323798Y0130633D01*
X0323965Y0130651D01*
X0324132Y0130665D01*
X0324300Y0130676D01*
X0324467Y0130682D01*
X0324635Y0130684D01*
X0324803Y0130682D01*
X0324970Y0130676D01*
X0325138Y0130665D01*
X0325305Y0130651D01*
X0325472Y0130633D01*
X0325638Y0130610D01*
X0325804Y0130583D01*
X0325969Y0130553D01*
X0326133Y0130518D01*
X0326296Y0130479D01*
X0326459Y0130436D01*
X0326620Y0130390D01*
X0326780Y0130339D01*
X0326938Y0130284D01*
X0327096Y0130226D01*
X0327251Y0130164D01*
X0327406Y0130097D01*
X0327558Y0130028D01*
X0327709Y0129954D01*
X0327858Y0129877D01*
X0328005Y0129796D01*
X0328150Y0129711D01*
X0328293Y0129623D01*
X0328433Y0129532D01*
X0328572Y0129437D01*
X0328708Y0129339D01*
X0328841Y0129237D01*
X0328972Y0129132D01*
X0329101Y0129024D01*
X0329226Y0128913D01*
X0329349Y0128799D01*
X0329469Y0128681D01*
X0329587Y0128561D01*
X0329701Y0128438D01*
X0329812Y0128313D01*
X0329920Y0128184D01*
X0330025Y0128053D01*
X0330127Y0127920D01*
X0330225Y0127784D01*
X0330320Y0127645D01*
X0330411Y0127505D01*
X0330499Y0127362D01*
X0330584Y0127217D01*
X0330665Y0127070D01*
X0330742Y0126921D01*
X0330816Y0126770D01*
X0330885Y0126618D01*
X0330952Y0126463D01*
X0331014Y0126308D01*
X0331072Y0126150D01*
X0331127Y0125992D01*
X0331178Y0125832D01*
X0331224Y0125671D01*
X0331267Y0125508D01*
X0331306Y0125345D01*
X0331341Y0125181D01*
X0331371Y0125016D01*
X0331398Y0124850D01*
X0331421Y0124684D01*
X0331439Y0124517D01*
X0331453Y0124350D01*
X0331464Y0124182D01*
X0331470Y0124015D01*
X0331472Y0123847D01*
X0331470Y0123679D01*
X0331464Y0123512D01*
X0331453Y0123344D01*
X0331439Y0123177D01*
X0331421Y0123010D01*
X0331398Y0122844D01*
X0331371Y0122678D01*
X0331341Y0122513D01*
X0331306Y0122349D01*
X0331267Y0122186D01*
X0331224Y0122023D01*
X0331178Y0121862D01*
X0331127Y0121702D01*
X0331072Y0121544D01*
X0331014Y0121386D01*
X0330952Y0121231D01*
X0330885Y0121076D01*
X0330816Y0120924D01*
X0330742Y0120773D01*
X0330665Y0120624D01*
X0330584Y0120477D01*
X0330499Y0120332D01*
X0330411Y0120189D01*
X0330320Y0120049D01*
X0330225Y0119910D01*
X0330127Y0119774D01*
X0330025Y0119641D01*
X0329920Y0119510D01*
X0329812Y0119381D01*
X0329701Y0119256D01*
X0329587Y0119133D01*
X0329469Y0119013D01*
X0329349Y0118895D01*
X0329226Y0118781D01*
X0329101Y0118670D01*
X0328972Y0118562D01*
X0328841Y0118457D01*
X0328708Y0118355D01*
X0328572Y0118257D01*
X0328433Y0118162D01*
X0328293Y0118071D01*
X0328150Y0117983D01*
X0328005Y0117898D01*
X0327858Y0117817D01*
X0327709Y0117740D01*
X0327558Y0117666D01*
X0327406Y0117597D01*
X0327251Y0117530D01*
X0327096Y0117468D01*
X0326938Y0117410D01*
X0326780Y0117355D01*
X0326620Y0117304D01*
X0326459Y0117258D01*
X0326296Y0117215D01*
X0326133Y0117176D01*
X0325969Y0117141D01*
X0325804Y0117111D01*
X0325638Y0117084D01*
X0325472Y0117061D01*
X0325305Y0117043D01*
X0325138Y0117029D01*
X0324970Y0117018D01*
X0324803Y0117012D01*
X0324635Y0117010D01*
X0324467Y0117012D01*
X0324300Y0117018D01*
X0324132Y0117029D01*
X0323965Y0117043D01*
X0323798Y0117061D01*
X0323632Y0117084D01*
X0323466Y0117111D01*
X0323301Y0117141D01*
X0323137Y0117176D01*
X0322974Y0117215D01*
X0322811Y0117258D01*
X0322650Y0117304D01*
X0322490Y0117355D01*
X0322332Y0117410D01*
X0322174Y0117468D01*
X0322019Y0117530D01*
X0321864Y0117597D01*
X0321712Y0117666D01*
X0321561Y0117740D01*
X0321412Y0117817D01*
X0321265Y0117898D01*
X0321120Y0117983D01*
X0320977Y0118071D01*
X0320837Y0118162D01*
X0320698Y0118257D01*
X0320562Y0118355D01*
X0320429Y0118457D01*
X0320298Y0118562D01*
X0320169Y0118670D01*
X0320044Y0118781D01*
X0319921Y0118895D01*
X0319801Y0119013D01*
X0319683Y0119133D01*
X0319569Y0119256D01*
X0319458Y0119381D01*
X0319350Y0119510D01*
X0319245Y0119641D01*
X0319143Y0119774D01*
X0319045Y0119910D01*
X0318950Y0120049D01*
X0318859Y0120189D01*
X0318771Y0120332D01*
X0318686Y0120477D01*
X0318605Y0120624D01*
X0318528Y0120773D01*
X0318454Y0120924D01*
X0318385Y0121076D01*
X0318318Y0121231D01*
X0318256Y0121386D01*
X0318198Y0121544D01*
X0318143Y0121702D01*
X0318092Y0121862D01*
X0318046Y0122023D01*
X0318003Y0122186D01*
X0317964Y0122349D01*
X0317929Y0122513D01*
X0317899Y0122678D01*
X0317872Y0122844D01*
X0317849Y0123010D01*
X0317831Y0123177D01*
X0317817Y0123344D01*
X0317806Y0123512D01*
X0317800Y0123679D01*
X0317798Y0123847D01*
X0288611Y0123847D02*
X0288622Y0124731D01*
X0288654Y0125615D01*
X0288709Y0126497D01*
X0288784Y0127378D01*
X0288882Y0128257D01*
X0289001Y0129133D01*
X0289141Y0130006D01*
X0289303Y0130875D01*
X0289486Y0131740D01*
X0289691Y0132600D01*
X0289916Y0133455D01*
X0290162Y0134304D01*
X0290429Y0135147D01*
X0290717Y0135983D01*
X0291025Y0136812D01*
X0291353Y0137633D01*
X0291702Y0138445D01*
X0292070Y0139249D01*
X0292457Y0140044D01*
X0292865Y0140829D01*
X0293291Y0141603D01*
X0293736Y0142367D01*
X0294200Y0143120D01*
X0294682Y0143861D01*
X0295182Y0144590D01*
X0295700Y0145306D01*
X0296236Y0146010D01*
X0296788Y0146700D01*
X0297357Y0147377D01*
X0297943Y0148039D01*
X0298545Y0148687D01*
X0299162Y0149320D01*
X0299795Y0149937D01*
X0300443Y0150539D01*
X0301105Y0151125D01*
X0301782Y0151694D01*
X0302472Y0152246D01*
X0303176Y0152782D01*
X0303892Y0153300D01*
X0304621Y0153800D01*
X0305362Y0154282D01*
X0306115Y0154746D01*
X0306879Y0155191D01*
X0307653Y0155617D01*
X0308438Y0156025D01*
X0309233Y0156412D01*
X0310037Y0156780D01*
X0310849Y0157129D01*
X0311670Y0157457D01*
X0312499Y0157765D01*
X0313335Y0158053D01*
X0314178Y0158320D01*
X0315027Y0158566D01*
X0315882Y0158791D01*
X0316742Y0158996D01*
X0317607Y0159179D01*
X0318476Y0159341D01*
X0319349Y0159481D01*
X0320225Y0159600D01*
X0321104Y0159698D01*
X0321985Y0159773D01*
X0322867Y0159828D01*
X0323751Y0159860D01*
X0324635Y0159871D01*
X0325519Y0159860D01*
X0326403Y0159828D01*
X0327285Y0159773D01*
X0328166Y0159698D01*
X0329045Y0159600D01*
X0329921Y0159481D01*
X0330794Y0159341D01*
X0331663Y0159179D01*
X0332528Y0158996D01*
X0333388Y0158791D01*
X0334243Y0158566D01*
X0335092Y0158320D01*
X0335935Y0158053D01*
X0336771Y0157765D01*
X0337600Y0157457D01*
X0338421Y0157129D01*
X0339233Y0156780D01*
X0340037Y0156412D01*
X0340832Y0156025D01*
X0341617Y0155617D01*
X0342391Y0155191D01*
X0343155Y0154746D01*
X0343908Y0154282D01*
X0344649Y0153800D01*
X0345378Y0153300D01*
X0346094Y0152782D01*
X0346798Y0152246D01*
X0347488Y0151694D01*
X0348165Y0151125D01*
X0348827Y0150539D01*
X0349475Y0149937D01*
X0350108Y0149320D01*
X0350725Y0148687D01*
X0351327Y0148039D01*
X0351913Y0147377D01*
X0352482Y0146700D01*
X0353034Y0146010D01*
X0353570Y0145306D01*
X0354088Y0144590D01*
X0354588Y0143861D01*
X0355070Y0143120D01*
X0355534Y0142367D01*
X0355979Y0141603D01*
X0356405Y0140829D01*
X0356813Y0140044D01*
X0357200Y0139249D01*
X0357568Y0138445D01*
X0357917Y0137633D01*
X0358245Y0136812D01*
X0358553Y0135983D01*
X0358841Y0135147D01*
X0359108Y0134304D01*
X0359354Y0133455D01*
X0359579Y0132600D01*
X0359784Y0131740D01*
X0359967Y0130875D01*
X0360129Y0130006D01*
X0360269Y0129133D01*
X0360388Y0128257D01*
X0360486Y0127378D01*
X0360561Y0126497D01*
X0360616Y0125615D01*
X0360648Y0124731D01*
X0360659Y0123847D01*
X0360648Y0122963D01*
X0360616Y0122079D01*
X0360561Y0121197D01*
X0360486Y0120316D01*
X0360388Y0119437D01*
X0360269Y0118561D01*
X0360129Y0117688D01*
X0359967Y0116819D01*
X0359784Y0115954D01*
X0359579Y0115094D01*
X0359354Y0114239D01*
X0359108Y0113390D01*
X0358841Y0112547D01*
X0358553Y0111711D01*
X0358245Y0110882D01*
X0357917Y0110061D01*
X0357568Y0109249D01*
X0357200Y0108445D01*
X0356813Y0107650D01*
X0356405Y0106865D01*
X0355979Y0106091D01*
X0355534Y0105327D01*
X0355070Y0104574D01*
X0354588Y0103833D01*
X0354088Y0103104D01*
X0353570Y0102388D01*
X0353034Y0101684D01*
X0352482Y0100994D01*
X0351913Y0100317D01*
X0351327Y0099655D01*
X0350725Y0099007D01*
X0350108Y0098374D01*
X0349475Y0097757D01*
X0348827Y0097155D01*
X0348165Y0096569D01*
X0347488Y0096000D01*
X0346798Y0095448D01*
X0346094Y0094912D01*
X0345378Y0094394D01*
X0344649Y0093894D01*
X0343908Y0093412D01*
X0343155Y0092948D01*
X0342391Y0092503D01*
X0341617Y0092077D01*
X0340832Y0091669D01*
X0340037Y0091282D01*
X0339233Y0090914D01*
X0338421Y0090565D01*
X0337600Y0090237D01*
X0336771Y0089929D01*
X0335935Y0089641D01*
X0335092Y0089374D01*
X0334243Y0089128D01*
X0333388Y0088903D01*
X0332528Y0088698D01*
X0331663Y0088515D01*
X0330794Y0088353D01*
X0329921Y0088213D01*
X0329045Y0088094D01*
X0328166Y0087996D01*
X0327285Y0087921D01*
X0326403Y0087866D01*
X0325519Y0087834D01*
X0324635Y0087823D01*
X0323751Y0087834D01*
X0322867Y0087866D01*
X0321985Y0087921D01*
X0321104Y0087996D01*
X0320225Y0088094D01*
X0319349Y0088213D01*
X0318476Y0088353D01*
X0317607Y0088515D01*
X0316742Y0088698D01*
X0315882Y0088903D01*
X0315027Y0089128D01*
X0314178Y0089374D01*
X0313335Y0089641D01*
X0312499Y0089929D01*
X0311670Y0090237D01*
X0310849Y0090565D01*
X0310037Y0090914D01*
X0309233Y0091282D01*
X0308438Y0091669D01*
X0307653Y0092077D01*
X0306879Y0092503D01*
X0306115Y0092948D01*
X0305362Y0093412D01*
X0304621Y0093894D01*
X0303892Y0094394D01*
X0303176Y0094912D01*
X0302472Y0095448D01*
X0301782Y0096000D01*
X0301105Y0096569D01*
X0300443Y0097155D01*
X0299795Y0097757D01*
X0299162Y0098374D01*
X0298545Y0099007D01*
X0297943Y0099655D01*
X0297357Y0100317D01*
X0296788Y0100994D01*
X0296236Y0101684D01*
X0295700Y0102388D01*
X0295182Y0103104D01*
X0294682Y0103833D01*
X0294200Y0104574D01*
X0293736Y0105327D01*
X0293291Y0106091D01*
X0292865Y0106865D01*
X0292457Y0107650D01*
X0292070Y0108445D01*
X0291702Y0109249D01*
X0291353Y0110061D01*
X0291025Y0110882D01*
X0290717Y0111711D01*
X0290429Y0112547D01*
X0290162Y0113390D01*
X0289916Y0114239D01*
X0289691Y0115094D01*
X0289486Y0115954D01*
X0289303Y0116819D01*
X0289141Y0117688D01*
X0289001Y0118561D01*
X0288882Y0119437D01*
X0288784Y0120316D01*
X0288709Y0121197D01*
X0288654Y0122079D01*
X0288622Y0122963D01*
X0288611Y0123847D01*
X0105733Y0127516D02*
X0098244Y0125083D01*
X0098038Y0126672D02*
X0103748Y0128527D01*
X0101345Y0135922D01*
X0095635Y0134067D01*
X0094868Y0135474D02*
X0102356Y0137907D01*
X0105733Y0127516D01*
X0101502Y0131937D02*
X0101400Y0132007D01*
X0101295Y0132073D01*
X0101189Y0132136D01*
X0101080Y0132196D01*
X0100970Y0132252D01*
X0100858Y0132305D01*
X0100745Y0132354D01*
X0100630Y0132400D01*
X0100513Y0132442D01*
X0100396Y0132480D01*
X0100277Y0132515D01*
X0100157Y0132546D01*
X0100036Y0132573D01*
X0099915Y0132596D01*
X0099792Y0132615D01*
X0099670Y0132631D01*
X0099546Y0132643D01*
X0099423Y0132651D01*
X0099299Y0132654D01*
X0099175Y0132655D01*
X0099052Y0132651D01*
X0098928Y0132643D01*
X0098805Y0132631D01*
X0098682Y0132616D01*
X0098560Y0132597D01*
X0098438Y0132573D01*
X0098318Y0132546D01*
X0098198Y0132516D01*
X0098079Y0132481D01*
X0097961Y0132443D01*
X0097845Y0132401D01*
X0097730Y0132355D01*
X0097616Y0132306D01*
X0097504Y0132253D01*
X0097394Y0132197D01*
X0097286Y0132138D01*
X0097179Y0132075D01*
X0097075Y0132008D01*
X0096972Y0131939D01*
X0096872Y0131866D01*
X0096774Y0131790D01*
X0096679Y0131711D01*
X0096586Y0131629D01*
X0096496Y0131544D01*
X0096409Y0131457D01*
X0096324Y0131367D01*
X0096242Y0131274D01*
X0096163Y0131178D01*
X0096088Y0131081D01*
X0096015Y0130980D01*
X0095945Y0130878D01*
X0095879Y0130773D01*
X0095816Y0130667D01*
X0095757Y0130558D01*
X0095701Y0130448D01*
X0095648Y0130336D01*
X0095599Y0130222D01*
X0095554Y0130107D01*
X0095512Y0129991D01*
X0094867Y0135474D02*
X0094749Y0135379D01*
X0094633Y0135282D01*
X0094520Y0135182D01*
X0094409Y0135078D01*
X0094301Y0134972D01*
X0094196Y0134863D01*
X0094094Y0134752D01*
X0093995Y0134637D01*
X0093898Y0134521D01*
X0093805Y0134401D01*
X0093715Y0134280D01*
X0093628Y0134156D01*
X0093545Y0134030D01*
X0093464Y0133901D01*
X0093388Y0133771D01*
X0093314Y0133639D01*
X0093244Y0133505D01*
X0093178Y0133369D01*
X0093115Y0133231D01*
X0093055Y0133092D01*
X0093000Y0132951D01*
X0092948Y0132809D01*
X0092899Y0132665D01*
X0092855Y0132521D01*
X0092814Y0132375D01*
X0092777Y0132228D01*
X0092744Y0132080D01*
X0092715Y0131932D01*
X0092690Y0131783D01*
X0092668Y0131633D01*
X0092651Y0131483D01*
X0092637Y0131332D01*
X0092627Y0131181D01*
X0092622Y0131030D01*
X0092620Y0130878D01*
X0092622Y0130727D01*
X0092628Y0130576D01*
X0092638Y0130425D01*
X0092652Y0130274D01*
X0092670Y0130124D01*
X0092692Y0129974D01*
X0092718Y0129825D01*
X0092747Y0129676D01*
X0092781Y0129529D01*
X0092818Y0129382D01*
X0092859Y0129236D01*
X0092904Y0129092D01*
X0092953Y0128948D01*
X0093005Y0128806D01*
X0093061Y0128666D01*
X0093121Y0128527D01*
X0093184Y0128389D01*
X0093251Y0128254D01*
X0093321Y0128120D01*
X0093395Y0127987D01*
X0093473Y0127857D01*
X0093553Y0127729D01*
X0093637Y0127603D01*
X0093724Y0127480D01*
X0093815Y0127358D01*
X0093908Y0127239D01*
X0094005Y0127123D01*
X0094104Y0127009D01*
X0094207Y0126897D01*
X0094312Y0126789D01*
X0094421Y0126683D01*
X0094531Y0126580D01*
X0094645Y0126480D01*
X0094761Y0126383D01*
X0094880Y0126289D01*
X0095001Y0126198D01*
X0095124Y0126110D01*
X0095250Y0126026D01*
X0095378Y0125945D01*
X0095507Y0125867D01*
X0095639Y0125793D01*
X0095773Y0125722D01*
X0095908Y0125654D01*
X0096046Y0125590D01*
X0096185Y0125530D01*
X0096325Y0125474D01*
X0096467Y0125421D01*
X0096610Y0125371D01*
X0096754Y0125326D01*
X0096900Y0125284D01*
X0097046Y0125246D01*
X0097194Y0125212D01*
X0097342Y0125182D01*
X0097491Y0125156D01*
X0097641Y0125133D01*
X0097791Y0125115D01*
X0097942Y0125100D01*
X0098093Y0125090D01*
X0098244Y0125083D01*
X0098038Y0126672D02*
X0097909Y0126686D01*
X0097780Y0126704D01*
X0097653Y0126726D01*
X0097525Y0126751D01*
X0097399Y0126781D01*
X0097274Y0126814D01*
X0097150Y0126852D01*
X0097027Y0126893D01*
X0096905Y0126938D01*
X0096785Y0126986D01*
X0096666Y0127038D01*
X0096549Y0127094D01*
X0096433Y0127153D01*
X0096320Y0127216D01*
X0096209Y0127283D01*
X0096099Y0127352D01*
X0095992Y0127425D01*
X0095887Y0127501D01*
X0095785Y0127581D01*
X0095685Y0127663D01*
X0095587Y0127749D01*
X0095492Y0127837D01*
X0095400Y0127929D01*
X0095311Y0128023D01*
X0095225Y0128120D01*
X0095141Y0128219D01*
X0095061Y0128321D01*
X0094984Y0128426D01*
X0094910Y0128532D01*
X0094840Y0128641D01*
X0094773Y0128752D01*
X0094709Y0128865D01*
X0094649Y0128980D01*
X0094592Y0129097D01*
X0094539Y0129215D01*
X0094490Y0129335D01*
X0094444Y0129456D01*
X0094402Y0129579D01*
X0094364Y0129703D01*
X0094330Y0129828D01*
X0094299Y0129954D01*
X0094272Y0130081D01*
X0094250Y0130209D01*
X0094231Y0130337D01*
X0094216Y0130466D01*
X0094205Y0130595D01*
X0094198Y0130724D01*
X0094195Y0130854D01*
X0094196Y0130984D01*
X0094201Y0131113D01*
X0094210Y0131243D01*
X0094223Y0131372D01*
X0094240Y0131500D01*
X0094260Y0131629D01*
X0094285Y0131756D01*
X0094314Y0131882D01*
X0094346Y0132008D01*
X0094382Y0132132D01*
X0094422Y0132256D01*
X0094466Y0132378D01*
X0094514Y0132499D01*
X0094565Y0132618D01*
X0094620Y0132735D01*
X0094678Y0132851D01*
X0094740Y0132965D01*
X0094806Y0133077D01*
X0094874Y0133187D01*
X0094946Y0133295D01*
X0095022Y0133400D01*
X0095100Y0133503D01*
X0095182Y0133604D01*
X0095267Y0133702D01*
X0095355Y0133798D01*
X0095445Y0133891D01*
X0095539Y0133981D01*
X0095635Y0134068D01*
X0095512Y0129990D02*
X0095614Y0129920D01*
X0095718Y0129854D01*
X0095825Y0129791D01*
X0095933Y0129731D01*
X0096044Y0129675D01*
X0096156Y0129622D01*
X0096269Y0129573D01*
X0096384Y0129527D01*
X0096501Y0129485D01*
X0096618Y0129447D01*
X0096737Y0129412D01*
X0096857Y0129381D01*
X0096978Y0129354D01*
X0097099Y0129331D01*
X0097221Y0129312D01*
X0097344Y0129296D01*
X0097467Y0129284D01*
X0097591Y0129276D01*
X0097715Y0129273D01*
X0097838Y0129272D01*
X0097962Y0129276D01*
X0098086Y0129284D01*
X0098209Y0129296D01*
X0098332Y0129311D01*
X0098454Y0129330D01*
X0098575Y0129354D01*
X0098696Y0129381D01*
X0098816Y0129411D01*
X0098935Y0129446D01*
X0099053Y0129484D01*
X0099169Y0129526D01*
X0099284Y0129572D01*
X0099398Y0129621D01*
X0099510Y0129674D01*
X0099620Y0129730D01*
X0099728Y0129789D01*
X0099835Y0129852D01*
X0099939Y0129919D01*
X0100042Y0129988D01*
X0100142Y0130061D01*
X0100240Y0130137D01*
X0100335Y0130216D01*
X0100428Y0130298D01*
X0100518Y0130383D01*
X0100605Y0130470D01*
X0100690Y0130561D01*
X0100772Y0130653D01*
X0100851Y0130749D01*
X0100927Y0130847D01*
X0100999Y0130947D01*
X0101069Y0131049D01*
X0101135Y0131154D01*
X0101198Y0131260D01*
X0101257Y0131369D01*
X0101313Y0131479D01*
X0101366Y0131591D01*
X0101415Y0131705D01*
X0101460Y0131820D01*
X0101502Y0131937D01*
X0093385Y0137567D02*
X0098013Y0143938D01*
X0089174Y0150359D01*
X0084546Y0143989D01*
X0085994Y0143302D02*
X0089522Y0148159D01*
X0095813Y0143589D01*
X0092284Y0138732D01*
X0088290Y0139932D02*
X0088256Y0140051D01*
X0088225Y0140171D01*
X0088198Y0140291D01*
X0088174Y0140413D01*
X0088155Y0140535D01*
X0088139Y0140658D01*
X0088127Y0140781D01*
X0088120Y0140905D01*
X0088116Y0141028D01*
X0088115Y0141152D01*
X0088119Y0141276D01*
X0088127Y0141399D01*
X0088139Y0141523D01*
X0088154Y0141645D01*
X0088173Y0141768D01*
X0088196Y0141889D01*
X0088223Y0142010D01*
X0088254Y0142130D01*
X0088289Y0142249D01*
X0088327Y0142366D01*
X0088369Y0142483D01*
X0088414Y0142598D01*
X0088463Y0142711D01*
X0088516Y0142823D01*
X0088572Y0142934D01*
X0088632Y0143042D01*
X0088695Y0143149D01*
X0088761Y0143253D01*
X0088830Y0143356D01*
X0088903Y0143456D01*
X0088979Y0143553D01*
X0089058Y0143649D01*
X0089140Y0143742D01*
X0089225Y0143832D01*
X0089312Y0143919D01*
X0089402Y0144004D01*
X0089495Y0144086D01*
X0089591Y0144165D01*
X0089688Y0144240D01*
X0089788Y0144313D01*
X0089891Y0144383D01*
X0089995Y0144449D01*
X0090102Y0144512D01*
X0090210Y0144572D01*
X0090321Y0144628D01*
X0090433Y0144680D01*
X0090546Y0144729D01*
X0090661Y0144775D01*
X0090778Y0144817D01*
X0090896Y0144855D01*
X0091014Y0144889D01*
X0091134Y0144920D01*
X0091255Y0144947D01*
X0091377Y0144970D01*
X0091499Y0144989D01*
X0091622Y0145005D01*
X0091745Y0145016D01*
X0091868Y0145024D01*
X0091992Y0145028D01*
X0085994Y0143303D02*
X0085967Y0143176D01*
X0085944Y0143048D01*
X0085926Y0142920D01*
X0085911Y0142791D01*
X0085900Y0142662D01*
X0085893Y0142532D01*
X0085890Y0142402D01*
X0085891Y0142273D01*
X0085896Y0142143D01*
X0085905Y0142014D01*
X0085918Y0141885D01*
X0085935Y0141756D01*
X0085956Y0141628D01*
X0085980Y0141501D01*
X0086009Y0141374D01*
X0086042Y0141249D01*
X0086078Y0141124D01*
X0086118Y0141001D01*
X0086162Y0140879D01*
X0086209Y0140758D01*
X0086261Y0140639D01*
X0086315Y0140521D01*
X0086374Y0140406D01*
X0086436Y0140292D01*
X0086501Y0140180D01*
X0086570Y0140070D01*
X0086642Y0139962D01*
X0086718Y0139856D01*
X0086796Y0139753D01*
X0086878Y0139653D01*
X0086963Y0139555D01*
X0087051Y0139459D01*
X0087141Y0139366D01*
X0087235Y0139276D01*
X0087331Y0139189D01*
X0087430Y0139105D01*
X0087531Y0139024D01*
X0087635Y0138946D01*
X0087741Y0138872D01*
X0087849Y0138801D01*
X0087960Y0138733D01*
X0088072Y0138668D01*
X0088187Y0138607D01*
X0088303Y0138549D01*
X0088421Y0138495D01*
X0088540Y0138445D01*
X0088661Y0138398D01*
X0088784Y0138355D01*
X0088907Y0138316D01*
X0089032Y0138281D01*
X0089158Y0138249D01*
X0089285Y0138222D01*
X0089412Y0138198D01*
X0089540Y0138178D01*
X0089669Y0138162D01*
X0089798Y0138150D01*
X0089928Y0138143D01*
X0090057Y0138139D01*
X0090187Y0138138D01*
X0090317Y0138142D01*
X0090446Y0138150D01*
X0090575Y0138162D01*
X0090704Y0138178D01*
X0090832Y0138198D01*
X0090960Y0138222D01*
X0091086Y0138249D01*
X0091212Y0138281D01*
X0091337Y0138316D01*
X0091461Y0138355D01*
X0091583Y0138398D01*
X0091704Y0138444D01*
X0091824Y0138495D01*
X0091942Y0138549D01*
X0092058Y0138606D01*
X0092172Y0138667D01*
X0092285Y0138732D01*
X0093384Y0137568D02*
X0093258Y0137484D01*
X0093130Y0137404D01*
X0092999Y0137328D01*
X0092867Y0137254D01*
X0092732Y0137184D01*
X0092596Y0137118D01*
X0092459Y0137055D01*
X0092319Y0136996D01*
X0092178Y0136941D01*
X0092036Y0136889D01*
X0091893Y0136841D01*
X0091748Y0136797D01*
X0091602Y0136756D01*
X0091455Y0136719D01*
X0091308Y0136687D01*
X0091159Y0136658D01*
X0091010Y0136632D01*
X0090860Y0136611D01*
X0090710Y0136594D01*
X0090559Y0136581D01*
X0090408Y0136571D01*
X0090257Y0136566D01*
X0090105Y0136564D01*
X0089954Y0136566D01*
X0089803Y0136573D01*
X0089652Y0136583D01*
X0089501Y0136597D01*
X0089351Y0136615D01*
X0089201Y0136637D01*
X0089052Y0136663D01*
X0088904Y0136693D01*
X0088756Y0136727D01*
X0088609Y0136764D01*
X0088464Y0136806D01*
X0088319Y0136851D01*
X0088176Y0136899D01*
X0088034Y0136952D01*
X0087894Y0137008D01*
X0087755Y0137068D01*
X0087617Y0137132D01*
X0087482Y0137199D01*
X0087348Y0137269D01*
X0087216Y0137343D01*
X0087086Y0137421D01*
X0086958Y0137501D01*
X0086832Y0137586D01*
X0086708Y0137673D01*
X0086587Y0137763D01*
X0086468Y0137857D01*
X0086352Y0137954D01*
X0086238Y0138054D01*
X0086127Y0138156D01*
X0086018Y0138262D01*
X0085913Y0138370D01*
X0085810Y0138481D01*
X0085710Y0138595D01*
X0085613Y0138711D01*
X0085519Y0138830D01*
X0085428Y0138951D01*
X0085341Y0139075D01*
X0085257Y0139200D01*
X0085176Y0139328D01*
X0085098Y0139458D01*
X0085024Y0139590D01*
X0084953Y0139724D01*
X0084886Y0139859D01*
X0084822Y0139997D01*
X0084762Y0140136D01*
X0084706Y0140276D01*
X0084653Y0140418D01*
X0084604Y0140561D01*
X0084559Y0140705D01*
X0084517Y0140851D01*
X0084480Y0140998D01*
X0084446Y0141145D01*
X0084416Y0141293D01*
X0084390Y0141442D01*
X0084367Y0141592D01*
X0084349Y0141742D01*
X0084335Y0141893D01*
X0084324Y0142044D01*
X0084318Y0142195D01*
X0084315Y0142347D01*
X0084316Y0142498D01*
X0084322Y0142649D01*
X0084331Y0142800D01*
X0084344Y0142951D01*
X0084361Y0143101D01*
X0084382Y0143251D01*
X0084407Y0143401D01*
X0084436Y0143549D01*
X0084469Y0143697D01*
X0084505Y0143844D01*
X0084545Y0143990D01*
X0082115Y0144811D02*
X0082115Y0152685D01*
X0071190Y0152685D01*
X0071190Y0144811D01*
X0072765Y0145107D02*
X0072765Y0151110D01*
X0080540Y0151110D01*
X0080540Y0145106D01*
X0076604Y0143729D02*
X0076506Y0143804D01*
X0076410Y0143883D01*
X0076318Y0143965D01*
X0076227Y0144050D01*
X0076140Y0144137D01*
X0076055Y0144227D01*
X0075973Y0144320D01*
X0075894Y0144415D01*
X0075818Y0144513D01*
X0075745Y0144613D01*
X0075676Y0144715D01*
X0075609Y0144820D01*
X0075546Y0144926D01*
X0075486Y0145035D01*
X0075430Y0145145D01*
X0075377Y0145257D01*
X0075328Y0145370D01*
X0075283Y0145486D01*
X0075241Y0145602D01*
X0075202Y0145720D01*
X0075168Y0145838D01*
X0075137Y0145958D01*
X0075110Y0146079D01*
X0075087Y0146201D01*
X0075067Y0146323D01*
X0075052Y0146446D01*
X0075040Y0146569D01*
X0075032Y0146692D01*
X0075028Y0146816D01*
X0075028Y0146940D01*
X0075032Y0147064D01*
X0075040Y0147187D01*
X0075052Y0147310D01*
X0075067Y0147433D01*
X0075087Y0147555D01*
X0075110Y0147677D01*
X0075137Y0147798D01*
X0075168Y0147918D01*
X0075202Y0148036D01*
X0075241Y0148154D01*
X0075283Y0148270D01*
X0075328Y0148386D01*
X0075377Y0148499D01*
X0075430Y0148611D01*
X0075486Y0148721D01*
X0075546Y0148830D01*
X0075609Y0148936D01*
X0075676Y0149041D01*
X0075745Y0149143D01*
X0075818Y0149243D01*
X0075894Y0149341D01*
X0075973Y0149436D01*
X0076055Y0149529D01*
X0076140Y0149619D01*
X0076227Y0149706D01*
X0076318Y0149791D01*
X0076410Y0149873D01*
X0076506Y0149952D01*
X0076604Y0150027D01*
X0072766Y0145107D02*
X0072819Y0144989D01*
X0072875Y0144872D01*
X0072936Y0144757D01*
X0072999Y0144644D01*
X0073066Y0144534D01*
X0073137Y0144425D01*
X0073211Y0144318D01*
X0073288Y0144214D01*
X0073368Y0144112D01*
X0073451Y0144013D01*
X0073538Y0143916D01*
X0073627Y0143822D01*
X0073719Y0143730D01*
X0073814Y0143642D01*
X0073911Y0143556D01*
X0074011Y0143474D01*
X0074114Y0143394D01*
X0074219Y0143318D01*
X0074326Y0143245D01*
X0074435Y0143176D01*
X0074547Y0143109D01*
X0074660Y0143047D01*
X0074775Y0142987D01*
X0074893Y0142932D01*
X0075011Y0142879D01*
X0075132Y0142831D01*
X0075253Y0142786D01*
X0075376Y0142745D01*
X0075500Y0142708D01*
X0075626Y0142675D01*
X0075752Y0142645D01*
X0075879Y0142619D01*
X0076007Y0142598D01*
X0076135Y0142580D01*
X0076264Y0142566D01*
X0076394Y0142556D01*
X0076523Y0142550D01*
X0076653Y0142548D01*
X0076782Y0142550D01*
X0076912Y0142556D01*
X0077041Y0142566D01*
X0077170Y0142580D01*
X0077299Y0142598D01*
X0077426Y0142619D01*
X0077554Y0142645D01*
X0077680Y0142674D01*
X0077805Y0142708D01*
X0077929Y0142745D01*
X0078052Y0142786D01*
X0078174Y0142831D01*
X0078294Y0142879D01*
X0078413Y0142931D01*
X0078530Y0142987D01*
X0078645Y0143046D01*
X0078759Y0143109D01*
X0078870Y0143175D01*
X0078980Y0143245D01*
X0079087Y0143318D01*
X0079192Y0143394D01*
X0079294Y0143474D01*
X0079395Y0143556D01*
X0079492Y0143642D01*
X0079587Y0143730D01*
X0079679Y0143821D01*
X0079768Y0143915D01*
X0079854Y0144012D01*
X0079938Y0144112D01*
X0080018Y0144213D01*
X0080095Y0144318D01*
X0080169Y0144424D01*
X0080239Y0144533D01*
X0080306Y0144644D01*
X0080370Y0144757D01*
X0080430Y0144872D01*
X0080487Y0144989D01*
X0080540Y0145107D01*
X0082115Y0144811D02*
X0082061Y0144669D01*
X0082005Y0144529D01*
X0081944Y0144390D01*
X0081880Y0144253D01*
X0081813Y0144117D01*
X0081741Y0143984D01*
X0081667Y0143852D01*
X0081589Y0143722D01*
X0081508Y0143595D01*
X0081423Y0143469D01*
X0081335Y0143346D01*
X0081244Y0143225D01*
X0081150Y0143107D01*
X0081053Y0142991D01*
X0080953Y0142877D01*
X0080849Y0142767D01*
X0080743Y0142659D01*
X0080635Y0142553D01*
X0080523Y0142451D01*
X0080409Y0142352D01*
X0080292Y0142255D01*
X0080173Y0142162D01*
X0080052Y0142072D01*
X0079928Y0141985D01*
X0079802Y0141901D01*
X0079674Y0141820D01*
X0079544Y0141743D01*
X0079411Y0141670D01*
X0079277Y0141599D01*
X0079141Y0141533D01*
X0079004Y0141470D01*
X0078865Y0141410D01*
X0078724Y0141354D01*
X0078582Y0141302D01*
X0078439Y0141254D01*
X0078294Y0141209D01*
X0078148Y0141168D01*
X0078002Y0141131D01*
X0077854Y0141098D01*
X0077706Y0141068D01*
X0077556Y0141043D01*
X0077407Y0141021D01*
X0077256Y0141004D01*
X0077106Y0140990D01*
X0076955Y0140980D01*
X0076803Y0140974D01*
X0076652Y0140972D01*
X0076501Y0140974D01*
X0076349Y0140980D01*
X0076198Y0140990D01*
X0076048Y0141004D01*
X0075897Y0141021D01*
X0075748Y0141043D01*
X0075598Y0141068D01*
X0075450Y0141098D01*
X0075302Y0141131D01*
X0075156Y0141168D01*
X0075010Y0141209D01*
X0074865Y0141254D01*
X0074722Y0141302D01*
X0074580Y0141354D01*
X0074439Y0141410D01*
X0074300Y0141470D01*
X0074163Y0141533D01*
X0074027Y0141599D01*
X0073893Y0141670D01*
X0073760Y0141743D01*
X0073630Y0141820D01*
X0073502Y0141901D01*
X0073376Y0141985D01*
X0073252Y0142072D01*
X0073131Y0142162D01*
X0073012Y0142255D01*
X0072895Y0142352D01*
X0072781Y0142451D01*
X0072669Y0142553D01*
X0072561Y0142659D01*
X0072455Y0142767D01*
X0072351Y0142877D01*
X0072251Y0142991D01*
X0072154Y0143107D01*
X0072060Y0143225D01*
X0071969Y0143346D01*
X0071881Y0143469D01*
X0071796Y0143595D01*
X0071715Y0143722D01*
X0071637Y0143852D01*
X0071563Y0143984D01*
X0071491Y0144117D01*
X0071424Y0144253D01*
X0071360Y0144390D01*
X0071299Y0144529D01*
X0071243Y0144669D01*
X0071189Y0144811D01*
X0068740Y0144047D02*
X0064112Y0150418D01*
X0055273Y0143996D01*
X0059901Y0137626D01*
X0061002Y0138791D02*
X0057473Y0143647D01*
X0063764Y0148218D01*
X0067293Y0143361D01*
X0064918Y0139932D02*
X0064794Y0139936D01*
X0064670Y0139944D01*
X0064547Y0139955D01*
X0064424Y0139971D01*
X0064302Y0139990D01*
X0064180Y0140013D01*
X0064060Y0140040D01*
X0063940Y0140071D01*
X0063821Y0140105D01*
X0063703Y0140143D01*
X0063587Y0140185D01*
X0063472Y0140231D01*
X0063358Y0140280D01*
X0063246Y0140332D01*
X0063136Y0140388D01*
X0063027Y0140448D01*
X0062921Y0140511D01*
X0062816Y0140577D01*
X0062714Y0140647D01*
X0062614Y0140719D01*
X0062516Y0140795D01*
X0062420Y0140874D01*
X0062327Y0140956D01*
X0062237Y0141041D01*
X0062150Y0141128D01*
X0062065Y0141218D01*
X0061983Y0141311D01*
X0061904Y0141406D01*
X0061828Y0141504D01*
X0061756Y0141604D01*
X0061686Y0141707D01*
X0061620Y0141811D01*
X0061557Y0141918D01*
X0061497Y0142026D01*
X0061441Y0142136D01*
X0061388Y0142248D01*
X0061339Y0142362D01*
X0061294Y0142477D01*
X0061252Y0142594D01*
X0061214Y0142711D01*
X0061179Y0142830D01*
X0061148Y0142950D01*
X0061121Y0143071D01*
X0061098Y0143192D01*
X0061079Y0143315D01*
X0061064Y0143437D01*
X0061052Y0143561D01*
X0061044Y0143684D01*
X0061040Y0143808D01*
X0061041Y0143932D01*
X0061045Y0144055D01*
X0061052Y0144179D01*
X0061064Y0144302D01*
X0061080Y0144425D01*
X0061099Y0144547D01*
X0061123Y0144669D01*
X0061150Y0144789D01*
X0061181Y0144909D01*
X0061215Y0145028D01*
X0061002Y0138791D02*
X0061115Y0138726D01*
X0061229Y0138665D01*
X0061345Y0138608D01*
X0061463Y0138554D01*
X0061583Y0138503D01*
X0061704Y0138457D01*
X0061826Y0138414D01*
X0061950Y0138375D01*
X0062075Y0138340D01*
X0062200Y0138308D01*
X0062327Y0138281D01*
X0062455Y0138257D01*
X0062583Y0138237D01*
X0062712Y0138221D01*
X0062841Y0138209D01*
X0062970Y0138201D01*
X0063100Y0138197D01*
X0063229Y0138198D01*
X0063359Y0138201D01*
X0063488Y0138209D01*
X0063618Y0138221D01*
X0063746Y0138237D01*
X0063874Y0138257D01*
X0064002Y0138281D01*
X0064129Y0138308D01*
X0064254Y0138340D01*
X0064379Y0138375D01*
X0064503Y0138414D01*
X0064625Y0138457D01*
X0064746Y0138504D01*
X0064866Y0138554D01*
X0064984Y0138608D01*
X0065100Y0138666D01*
X0065214Y0138727D01*
X0065327Y0138791D01*
X0065437Y0138859D01*
X0065545Y0138931D01*
X0065651Y0139005D01*
X0065755Y0139083D01*
X0065856Y0139164D01*
X0065955Y0139248D01*
X0066051Y0139335D01*
X0066145Y0139425D01*
X0066235Y0139518D01*
X0066323Y0139613D01*
X0066408Y0139711D01*
X0066490Y0139812D01*
X0066568Y0139915D01*
X0066644Y0140020D01*
X0066716Y0140128D01*
X0066785Y0140238D01*
X0066850Y0140350D01*
X0066912Y0140464D01*
X0066971Y0140580D01*
X0067025Y0140697D01*
X0067077Y0140816D01*
X0067124Y0140937D01*
X0067168Y0141059D01*
X0067208Y0141182D01*
X0067245Y0141307D01*
X0067277Y0141432D01*
X0067306Y0141559D01*
X0067330Y0141686D01*
X0067351Y0141814D01*
X0067368Y0141943D01*
X0067381Y0142072D01*
X0067390Y0142201D01*
X0067395Y0142331D01*
X0067396Y0142460D01*
X0067393Y0142590D01*
X0067386Y0142719D01*
X0067375Y0142849D01*
X0067360Y0142978D01*
X0067342Y0143106D01*
X0067319Y0143233D01*
X0067292Y0143360D01*
X0068740Y0144047D02*
X0068780Y0143901D01*
X0068816Y0143755D01*
X0068849Y0143607D01*
X0068878Y0143458D01*
X0068903Y0143309D01*
X0068924Y0143159D01*
X0068941Y0143009D01*
X0068954Y0142858D01*
X0068963Y0142707D01*
X0068969Y0142556D01*
X0068970Y0142404D01*
X0068967Y0142253D01*
X0068961Y0142102D01*
X0068950Y0141951D01*
X0068936Y0141800D01*
X0068918Y0141650D01*
X0068895Y0141500D01*
X0068869Y0141351D01*
X0068839Y0141203D01*
X0068805Y0141055D01*
X0068768Y0140909D01*
X0068726Y0140763D01*
X0068681Y0140619D01*
X0068632Y0140476D01*
X0068579Y0140334D01*
X0068523Y0140193D01*
X0068463Y0140054D01*
X0068399Y0139917D01*
X0068332Y0139782D01*
X0068261Y0139648D01*
X0068187Y0139516D01*
X0068109Y0139386D01*
X0068028Y0139258D01*
X0067944Y0139132D01*
X0067856Y0139009D01*
X0067766Y0138888D01*
X0067672Y0138769D01*
X0067575Y0138653D01*
X0067475Y0138539D01*
X0067372Y0138428D01*
X0067267Y0138320D01*
X0067158Y0138214D01*
X0067047Y0138111D01*
X0066933Y0138012D01*
X0066817Y0137915D01*
X0066698Y0137821D01*
X0066577Y0137731D01*
X0066453Y0137643D01*
X0066327Y0137559D01*
X0066199Y0137479D01*
X0066069Y0137401D01*
X0065937Y0137327D01*
X0065803Y0137257D01*
X0065668Y0137190D01*
X0065530Y0137126D01*
X0065391Y0137066D01*
X0065251Y0137010D01*
X0065109Y0136957D01*
X0064966Y0136909D01*
X0064821Y0136863D01*
X0064675Y0136822D01*
X0064529Y0136785D01*
X0064381Y0136751D01*
X0064233Y0136721D01*
X0064084Y0136695D01*
X0063934Y0136673D01*
X0063784Y0136655D01*
X0063633Y0136641D01*
X0063482Y0136631D01*
X0063331Y0136624D01*
X0063180Y0136622D01*
X0063028Y0136624D01*
X0062877Y0136629D01*
X0062726Y0136639D01*
X0062575Y0136652D01*
X0062425Y0136669D01*
X0062275Y0136690D01*
X0062126Y0136716D01*
X0061977Y0136745D01*
X0061830Y0136777D01*
X0061683Y0136814D01*
X0061537Y0136855D01*
X0061392Y0136899D01*
X0061249Y0136947D01*
X0061107Y0136999D01*
X0060966Y0137054D01*
X0060826Y0137113D01*
X0060689Y0137176D01*
X0060553Y0137242D01*
X0060418Y0137312D01*
X0060286Y0137386D01*
X0060156Y0137462D01*
X0060027Y0137542D01*
X0059901Y0137626D01*
X0058369Y0135567D02*
X0050880Y0138001D01*
X0047504Y0127610D01*
X0054992Y0125177D01*
X0055198Y0126766D02*
X0049488Y0128621D01*
X0051891Y0136017D01*
X0057601Y0134161D01*
X0057694Y0129991D02*
X0057592Y0129922D01*
X0057488Y0129855D01*
X0057381Y0129792D01*
X0057273Y0129732D01*
X0057163Y0129676D01*
X0057051Y0129623D01*
X0056937Y0129574D01*
X0056822Y0129528D01*
X0056706Y0129486D01*
X0056588Y0129448D01*
X0056469Y0129413D01*
X0056349Y0129382D01*
X0056229Y0129355D01*
X0056107Y0129332D01*
X0055985Y0129313D01*
X0055862Y0129297D01*
X0055739Y0129285D01*
X0055615Y0129277D01*
X0055491Y0129274D01*
X0055368Y0129273D01*
X0055244Y0129277D01*
X0055120Y0129285D01*
X0054997Y0129297D01*
X0054874Y0129312D01*
X0054752Y0129331D01*
X0054631Y0129355D01*
X0054510Y0129382D01*
X0054390Y0129412D01*
X0054271Y0129447D01*
X0054153Y0129485D01*
X0054037Y0129527D01*
X0053922Y0129573D01*
X0053808Y0129622D01*
X0053696Y0129675D01*
X0053586Y0129731D01*
X0053478Y0129790D01*
X0053371Y0129853D01*
X0053267Y0129920D01*
X0053164Y0129989D01*
X0053064Y0130062D01*
X0052966Y0130138D01*
X0052871Y0130217D01*
X0052778Y0130299D01*
X0052688Y0130384D01*
X0052601Y0130471D01*
X0052516Y0130562D01*
X0052434Y0130654D01*
X0052355Y0130750D01*
X0052279Y0130848D01*
X0052207Y0130948D01*
X0052137Y0131050D01*
X0052071Y0131155D01*
X0052008Y0131261D01*
X0051949Y0131370D01*
X0051893Y0131480D01*
X0051840Y0131592D01*
X0051791Y0131706D01*
X0051746Y0131821D01*
X0051704Y0131938D01*
X0055198Y0126767D02*
X0055327Y0126781D01*
X0055455Y0126799D01*
X0055583Y0126821D01*
X0055710Y0126846D01*
X0055836Y0126876D01*
X0055962Y0126909D01*
X0056086Y0126947D01*
X0056209Y0126988D01*
X0056330Y0127032D01*
X0056451Y0127081D01*
X0056569Y0127133D01*
X0056687Y0127189D01*
X0056802Y0127248D01*
X0056915Y0127311D01*
X0057027Y0127377D01*
X0057136Y0127447D01*
X0057243Y0127520D01*
X0057348Y0127596D01*
X0057451Y0127676D01*
X0057551Y0127758D01*
X0057648Y0127844D01*
X0057743Y0127932D01*
X0057835Y0128023D01*
X0057924Y0128118D01*
X0058010Y0128214D01*
X0058094Y0128314D01*
X0058174Y0128416D01*
X0058251Y0128520D01*
X0058325Y0128627D01*
X0058395Y0128736D01*
X0058462Y0128846D01*
X0058526Y0128959D01*
X0058586Y0129074D01*
X0058643Y0129191D01*
X0058696Y0129309D01*
X0058745Y0129429D01*
X0058791Y0129551D01*
X0058833Y0129673D01*
X0058871Y0129797D01*
X0058905Y0129922D01*
X0058936Y0130048D01*
X0058963Y0130175D01*
X0058985Y0130303D01*
X0059004Y0130431D01*
X0059019Y0130560D01*
X0059030Y0130689D01*
X0059037Y0130819D01*
X0059040Y0130948D01*
X0059039Y0131078D01*
X0059034Y0131208D01*
X0059025Y0131337D01*
X0059012Y0131466D01*
X0058995Y0131594D01*
X0058975Y0131722D01*
X0058950Y0131850D01*
X0058921Y0131976D01*
X0058889Y0132102D01*
X0058853Y0132226D01*
X0058813Y0132350D01*
X0058769Y0132472D01*
X0058721Y0132592D01*
X0058670Y0132712D01*
X0058615Y0132829D01*
X0058557Y0132945D01*
X0058495Y0133059D01*
X0058429Y0133171D01*
X0058361Y0133281D01*
X0058289Y0133388D01*
X0058213Y0133494D01*
X0058135Y0133597D01*
X0058053Y0133698D01*
X0057968Y0133796D01*
X0057880Y0133891D01*
X0057790Y0133984D01*
X0057696Y0134074D01*
X0057600Y0134161D01*
X0058368Y0135567D02*
X0058486Y0135473D01*
X0058602Y0135376D01*
X0058715Y0135275D01*
X0058826Y0135172D01*
X0058934Y0135066D01*
X0059039Y0134957D01*
X0059141Y0134845D01*
X0059241Y0134731D01*
X0059337Y0134614D01*
X0059430Y0134495D01*
X0059520Y0134373D01*
X0059607Y0134249D01*
X0059691Y0134123D01*
X0059771Y0133995D01*
X0059848Y0133865D01*
X0059921Y0133732D01*
X0059991Y0133598D01*
X0060058Y0133462D01*
X0060121Y0133325D01*
X0060180Y0133185D01*
X0060236Y0133045D01*
X0060287Y0132902D01*
X0060336Y0132759D01*
X0060380Y0132614D01*
X0060421Y0132469D01*
X0060458Y0132322D01*
X0060491Y0132174D01*
X0060520Y0132026D01*
X0060545Y0131876D01*
X0060567Y0131727D01*
X0060584Y0131576D01*
X0060598Y0131426D01*
X0060608Y0131275D01*
X0060613Y0131123D01*
X0060615Y0130972D01*
X0060613Y0130821D01*
X0060607Y0130669D01*
X0060597Y0130518D01*
X0060583Y0130368D01*
X0060565Y0130217D01*
X0060543Y0130068D01*
X0060517Y0129919D01*
X0060488Y0129770D01*
X0060454Y0129623D01*
X0060417Y0129476D01*
X0060376Y0129330D01*
X0060331Y0129186D01*
X0060282Y0129042D01*
X0060230Y0128900D01*
X0060174Y0128760D01*
X0060114Y0128621D01*
X0060051Y0128483D01*
X0059984Y0128348D01*
X0059914Y0128214D01*
X0059840Y0128081D01*
X0059762Y0127951D01*
X0059682Y0127823D01*
X0059598Y0127697D01*
X0059511Y0127574D01*
X0059420Y0127452D01*
X0059327Y0127333D01*
X0059230Y0127217D01*
X0059131Y0127103D01*
X0059028Y0126991D01*
X0058923Y0126883D01*
X0058815Y0126777D01*
X0058704Y0126674D01*
X0058590Y0126574D01*
X0058474Y0126477D01*
X0058355Y0126383D01*
X0058234Y0126292D01*
X0058111Y0126204D01*
X0057985Y0126120D01*
X0057858Y0126039D01*
X0057728Y0125961D01*
X0057596Y0125887D01*
X0057462Y0125816D01*
X0057327Y0125748D01*
X0057190Y0125684D01*
X0057051Y0125624D01*
X0056910Y0125568D01*
X0056769Y0125515D01*
X0056625Y0125465D01*
X0056481Y0125420D01*
X0056336Y0125378D01*
X0056189Y0125340D01*
X0056042Y0125306D01*
X0055893Y0125276D01*
X0055744Y0125250D01*
X0055595Y0125227D01*
X0055444Y0125209D01*
X0055294Y0125194D01*
X0055143Y0125184D01*
X0054992Y0125177D01*
X0054962Y0122611D02*
X0047473Y0120178D01*
X0050849Y0109787D01*
X0058338Y0112220D01*
X0057570Y0113627D02*
X0051860Y0111772D01*
X0049457Y0119167D01*
X0055167Y0121022D01*
X0057694Y0117704D02*
X0057652Y0117587D01*
X0057607Y0117472D01*
X0057558Y0117358D01*
X0057505Y0117246D01*
X0057449Y0117136D01*
X0057390Y0117027D01*
X0057327Y0116921D01*
X0057261Y0116816D01*
X0057191Y0116714D01*
X0057119Y0116614D01*
X0057043Y0116516D01*
X0056964Y0116420D01*
X0056882Y0116328D01*
X0056797Y0116237D01*
X0056710Y0116150D01*
X0056620Y0116065D01*
X0056527Y0115983D01*
X0056432Y0115904D01*
X0056334Y0115828D01*
X0056234Y0115755D01*
X0056131Y0115686D01*
X0056027Y0115619D01*
X0055920Y0115556D01*
X0055812Y0115497D01*
X0055702Y0115441D01*
X0055590Y0115388D01*
X0055476Y0115339D01*
X0055361Y0115293D01*
X0055245Y0115251D01*
X0055127Y0115213D01*
X0055008Y0115178D01*
X0054888Y0115148D01*
X0054767Y0115121D01*
X0054646Y0115097D01*
X0054524Y0115078D01*
X0054401Y0115063D01*
X0054278Y0115051D01*
X0054154Y0115043D01*
X0054030Y0115039D01*
X0053907Y0115040D01*
X0053783Y0115043D01*
X0053659Y0115051D01*
X0053536Y0115063D01*
X0053413Y0115079D01*
X0053291Y0115098D01*
X0053169Y0115121D01*
X0053049Y0115148D01*
X0052929Y0115179D01*
X0052810Y0115214D01*
X0052692Y0115252D01*
X0052576Y0115294D01*
X0052461Y0115340D01*
X0052347Y0115389D01*
X0052235Y0115442D01*
X0052125Y0115498D01*
X0052017Y0115558D01*
X0051910Y0115621D01*
X0051806Y0115688D01*
X0051704Y0115757D01*
X0057570Y0113628D02*
X0057666Y0113715D01*
X0057760Y0113805D01*
X0057850Y0113898D01*
X0057938Y0113993D01*
X0058023Y0114091D01*
X0058105Y0114192D01*
X0058183Y0114295D01*
X0058259Y0114401D01*
X0058331Y0114508D01*
X0058399Y0114618D01*
X0058465Y0114730D01*
X0058527Y0114844D01*
X0058585Y0114960D01*
X0058640Y0115077D01*
X0058691Y0115197D01*
X0058739Y0115317D01*
X0058783Y0115439D01*
X0058823Y0115563D01*
X0058859Y0115687D01*
X0058891Y0115813D01*
X0058920Y0115939D01*
X0058945Y0116067D01*
X0058965Y0116195D01*
X0058982Y0116323D01*
X0058995Y0116452D01*
X0059004Y0116581D01*
X0059009Y0116711D01*
X0059010Y0116841D01*
X0059007Y0116970D01*
X0059000Y0117100D01*
X0058989Y0117229D01*
X0058974Y0117358D01*
X0058955Y0117486D01*
X0058933Y0117614D01*
X0058906Y0117741D01*
X0058875Y0117867D01*
X0058841Y0117992D01*
X0058803Y0118116D01*
X0058761Y0118238D01*
X0058715Y0118360D01*
X0058666Y0118480D01*
X0058613Y0118598D01*
X0058556Y0118715D01*
X0058496Y0118830D01*
X0058432Y0118943D01*
X0058365Y0119053D01*
X0058295Y0119162D01*
X0058221Y0119269D01*
X0058144Y0119373D01*
X0058064Y0119475D01*
X0057980Y0119575D01*
X0057894Y0119671D01*
X0057805Y0119766D01*
X0057713Y0119857D01*
X0057618Y0119945D01*
X0057521Y0120031D01*
X0057421Y0120113D01*
X0057318Y0120193D01*
X0057213Y0120269D01*
X0057106Y0120342D01*
X0056997Y0120412D01*
X0056885Y0120478D01*
X0056772Y0120541D01*
X0056657Y0120600D01*
X0056539Y0120656D01*
X0056421Y0120708D01*
X0056300Y0120757D01*
X0056179Y0120801D01*
X0056056Y0120842D01*
X0055932Y0120880D01*
X0055806Y0120913D01*
X0055680Y0120943D01*
X0055553Y0120968D01*
X0055425Y0120990D01*
X0055297Y0121008D01*
X0055168Y0121022D01*
X0054962Y0122611D02*
X0055113Y0122604D01*
X0055264Y0122594D01*
X0055415Y0122579D01*
X0055565Y0122561D01*
X0055715Y0122538D01*
X0055864Y0122512D01*
X0056012Y0122482D01*
X0056159Y0122447D01*
X0056306Y0122410D01*
X0056451Y0122368D01*
X0056596Y0122322D01*
X0056739Y0122273D01*
X0056881Y0122220D01*
X0057021Y0122164D01*
X0057160Y0122103D01*
X0057297Y0122040D01*
X0057433Y0121972D01*
X0057566Y0121901D01*
X0057698Y0121827D01*
X0057828Y0121749D01*
X0057956Y0121668D01*
X0058081Y0121583D01*
X0058205Y0121496D01*
X0058326Y0121405D01*
X0058444Y0121311D01*
X0058560Y0121214D01*
X0058674Y0121114D01*
X0058785Y0121011D01*
X0058893Y0120905D01*
X0058998Y0120796D01*
X0059101Y0120685D01*
X0059200Y0120571D01*
X0059297Y0120455D01*
X0059390Y0120336D01*
X0059481Y0120214D01*
X0059568Y0120091D01*
X0059652Y0119965D01*
X0059733Y0119837D01*
X0059810Y0119706D01*
X0059884Y0119574D01*
X0059954Y0119440D01*
X0060021Y0119305D01*
X0060084Y0119167D01*
X0060144Y0119028D01*
X0060200Y0118887D01*
X0060252Y0118745D01*
X0060301Y0118602D01*
X0060346Y0118458D01*
X0060387Y0118312D01*
X0060424Y0118165D01*
X0060458Y0118018D01*
X0060487Y0117869D01*
X0060513Y0117720D01*
X0060535Y0117570D01*
X0060553Y0117420D01*
X0060567Y0117269D01*
X0060577Y0117118D01*
X0060583Y0116967D01*
X0060585Y0116816D01*
X0060583Y0116665D01*
X0060578Y0116513D01*
X0060568Y0116362D01*
X0060554Y0116212D01*
X0060537Y0116061D01*
X0060515Y0115911D01*
X0060490Y0115762D01*
X0060461Y0115614D01*
X0060428Y0115466D01*
X0060391Y0115319D01*
X0060350Y0115174D01*
X0060306Y0115029D01*
X0060257Y0114885D01*
X0060205Y0114743D01*
X0060150Y0114603D01*
X0060091Y0114463D01*
X0060028Y0114326D01*
X0059961Y0114190D01*
X0059891Y0114056D01*
X0059818Y0113923D01*
X0059741Y0113793D01*
X0059660Y0113665D01*
X0059577Y0113538D01*
X0059490Y0113415D01*
X0059400Y0113293D01*
X0059307Y0113174D01*
X0059211Y0113057D01*
X0059111Y0112943D01*
X0059009Y0112831D01*
X0058904Y0112722D01*
X0058796Y0112616D01*
X0058685Y0112513D01*
X0058572Y0112412D01*
X0058456Y0112315D01*
X0058338Y0112221D01*
X0059822Y0110126D02*
X0055193Y0103756D01*
X0064032Y0097335D01*
X0068660Y0103705D01*
X0067213Y0104392D02*
X0063683Y0099534D01*
X0057393Y0104105D01*
X0060922Y0108962D01*
X0064917Y0107762D02*
X0064951Y0107644D01*
X0064982Y0107524D01*
X0065009Y0107403D01*
X0065033Y0107281D01*
X0065052Y0107159D01*
X0065068Y0107036D01*
X0065080Y0106913D01*
X0065087Y0106790D01*
X0065091Y0106666D01*
X0065092Y0106542D01*
X0065088Y0106418D01*
X0065080Y0106295D01*
X0065069Y0106172D01*
X0065053Y0106049D01*
X0065034Y0105927D01*
X0065011Y0105805D01*
X0064984Y0105684D01*
X0064953Y0105564D01*
X0064919Y0105446D01*
X0064880Y0105328D01*
X0064838Y0105211D01*
X0064793Y0105096D01*
X0064744Y0104983D01*
X0064691Y0104871D01*
X0064635Y0104760D01*
X0064575Y0104652D01*
X0064512Y0104545D01*
X0064446Y0104441D01*
X0064377Y0104338D01*
X0064304Y0104238D01*
X0064228Y0104141D01*
X0064149Y0104045D01*
X0064067Y0103952D01*
X0063982Y0103862D01*
X0063895Y0103775D01*
X0063805Y0103690D01*
X0063712Y0103608D01*
X0063616Y0103529D01*
X0063519Y0103453D01*
X0063418Y0103381D01*
X0063316Y0103311D01*
X0063212Y0103245D01*
X0063105Y0103182D01*
X0062996Y0103122D01*
X0062886Y0103066D01*
X0062774Y0103014D01*
X0062661Y0102965D01*
X0062545Y0102919D01*
X0062429Y0102877D01*
X0062311Y0102839D01*
X0062192Y0102805D01*
X0062072Y0102774D01*
X0061952Y0102747D01*
X0061830Y0102724D01*
X0061708Y0102705D01*
X0061585Y0102689D01*
X0061462Y0102678D01*
X0061338Y0102670D01*
X0061214Y0102666D01*
X0067212Y0104392D02*
X0067239Y0104519D01*
X0067262Y0104646D01*
X0067280Y0104774D01*
X0067295Y0104903D01*
X0067306Y0105033D01*
X0067313Y0105162D01*
X0067316Y0105292D01*
X0067315Y0105421D01*
X0067310Y0105551D01*
X0067301Y0105680D01*
X0067288Y0105809D01*
X0067271Y0105938D01*
X0067250Y0106066D01*
X0067226Y0106193D01*
X0067197Y0106320D01*
X0067165Y0106445D01*
X0067128Y0106570D01*
X0067088Y0106693D01*
X0067044Y0106815D01*
X0066997Y0106936D01*
X0066945Y0107055D01*
X0066891Y0107172D01*
X0066832Y0107288D01*
X0066770Y0107402D01*
X0066705Y0107514D01*
X0066636Y0107624D01*
X0066564Y0107732D01*
X0066488Y0107837D01*
X0066410Y0107940D01*
X0066328Y0108041D01*
X0066243Y0108139D01*
X0066155Y0108234D01*
X0066065Y0108327D01*
X0065971Y0108417D01*
X0065875Y0108504D01*
X0065776Y0108588D01*
X0065675Y0108669D01*
X0065571Y0108747D01*
X0065465Y0108821D01*
X0065357Y0108893D01*
X0065247Y0108961D01*
X0065134Y0109025D01*
X0065020Y0109086D01*
X0064904Y0109144D01*
X0064786Y0109198D01*
X0064666Y0109248D01*
X0064545Y0109295D01*
X0064423Y0109338D01*
X0064299Y0109377D01*
X0064174Y0109412D01*
X0064049Y0109444D01*
X0063922Y0109471D01*
X0063794Y0109495D01*
X0063666Y0109515D01*
X0063538Y0109531D01*
X0063408Y0109543D01*
X0063279Y0109551D01*
X0063149Y0109554D01*
X0063020Y0109555D01*
X0062890Y0109551D01*
X0062761Y0109543D01*
X0062632Y0109531D01*
X0062503Y0109515D01*
X0062375Y0109495D01*
X0062247Y0109471D01*
X0062120Y0109444D01*
X0061995Y0109412D01*
X0061870Y0109377D01*
X0061746Y0109338D01*
X0061624Y0109295D01*
X0061503Y0109249D01*
X0061383Y0109198D01*
X0061265Y0109144D01*
X0061149Y0109087D01*
X0061035Y0109026D01*
X0060922Y0108961D01*
X0059822Y0110126D02*
X0059948Y0110210D01*
X0060077Y0110290D01*
X0060207Y0110367D01*
X0060340Y0110440D01*
X0060474Y0110510D01*
X0060610Y0110576D01*
X0060748Y0110639D01*
X0060887Y0110698D01*
X0061028Y0110753D01*
X0061170Y0110805D01*
X0061313Y0110853D01*
X0061458Y0110897D01*
X0061604Y0110938D01*
X0061751Y0110975D01*
X0061899Y0111007D01*
X0062047Y0111036D01*
X0062196Y0111062D01*
X0062346Y0111083D01*
X0062496Y0111100D01*
X0062647Y0111113D01*
X0062798Y0111123D01*
X0062950Y0111128D01*
X0063101Y0111130D01*
X0063252Y0111128D01*
X0063403Y0111121D01*
X0063554Y0111111D01*
X0063705Y0111097D01*
X0063855Y0111079D01*
X0064005Y0111057D01*
X0064154Y0111031D01*
X0064302Y0111001D01*
X0064450Y0110967D01*
X0064597Y0110930D01*
X0064742Y0110888D01*
X0064887Y0110843D01*
X0065030Y0110795D01*
X0065172Y0110742D01*
X0065312Y0110686D01*
X0065451Y0110626D01*
X0065589Y0110562D01*
X0065724Y0110495D01*
X0065858Y0110425D01*
X0065990Y0110351D01*
X0066120Y0110273D01*
X0066248Y0110193D01*
X0066374Y0110108D01*
X0066498Y0110021D01*
X0066619Y0109931D01*
X0066738Y0109837D01*
X0066854Y0109740D01*
X0066968Y0109640D01*
X0067079Y0109538D01*
X0067188Y0109432D01*
X0067293Y0109324D01*
X0067396Y0109213D01*
X0067496Y0109099D01*
X0067593Y0108983D01*
X0067687Y0108864D01*
X0067778Y0108743D01*
X0067865Y0108620D01*
X0067949Y0108494D01*
X0068030Y0108366D01*
X0068108Y0108236D01*
X0068182Y0108104D01*
X0068253Y0107970D01*
X0068320Y0107835D01*
X0068384Y0107698D01*
X0068444Y0107559D01*
X0068500Y0107418D01*
X0068553Y0107276D01*
X0068602Y0107133D01*
X0068647Y0106989D01*
X0068689Y0106843D01*
X0068726Y0106697D01*
X0068760Y0106549D01*
X0068790Y0106401D01*
X0068816Y0106252D01*
X0068839Y0106102D01*
X0068857Y0105952D01*
X0068871Y0105801D01*
X0068882Y0105650D01*
X0068888Y0105499D01*
X0068891Y0105348D01*
X0068890Y0105196D01*
X0068884Y0105045D01*
X0068875Y0104894D01*
X0068862Y0104743D01*
X0068845Y0104593D01*
X0068824Y0104443D01*
X0068799Y0104294D01*
X0068770Y0104145D01*
X0068737Y0103997D01*
X0068701Y0103851D01*
X0068661Y0103705D01*
X0071091Y0102883D02*
X0071091Y0095009D01*
X0082017Y0095009D01*
X0082017Y0102883D01*
X0080442Y0102587D02*
X0080442Y0096583D01*
X0072666Y0096583D01*
X0072666Y0102587D01*
X0076603Y0103966D02*
X0076701Y0103890D01*
X0076796Y0103811D01*
X0076889Y0103729D01*
X0076980Y0103645D01*
X0077067Y0103557D01*
X0077152Y0103467D01*
X0077234Y0103374D01*
X0077313Y0103279D01*
X0077389Y0103181D01*
X0077462Y0103081D01*
X0077531Y0102979D01*
X0077598Y0102874D01*
X0077661Y0102768D01*
X0077720Y0102659D01*
X0077777Y0102549D01*
X0077830Y0102437D01*
X0077879Y0102324D01*
X0077924Y0102209D01*
X0077966Y0102092D01*
X0078005Y0101974D01*
X0078039Y0101856D01*
X0078070Y0101736D01*
X0078097Y0101615D01*
X0078120Y0101493D01*
X0078140Y0101371D01*
X0078155Y0101248D01*
X0078167Y0101125D01*
X0078175Y0101002D01*
X0078179Y0100878D01*
X0078179Y0100754D01*
X0078175Y0100630D01*
X0078167Y0100507D01*
X0078155Y0100384D01*
X0078140Y0100261D01*
X0078120Y0100139D01*
X0078097Y0100017D01*
X0078070Y0099896D01*
X0078039Y0099776D01*
X0078005Y0099658D01*
X0077966Y0099540D01*
X0077924Y0099423D01*
X0077879Y0099308D01*
X0077830Y0099195D01*
X0077777Y0099083D01*
X0077720Y0098973D01*
X0077661Y0098864D01*
X0077598Y0098758D01*
X0077531Y0098653D01*
X0077462Y0098551D01*
X0077389Y0098451D01*
X0077313Y0098353D01*
X0077234Y0098258D01*
X0077152Y0098165D01*
X0077067Y0098075D01*
X0076980Y0097987D01*
X0076889Y0097903D01*
X0076796Y0097821D01*
X0076701Y0097742D01*
X0076603Y0097666D01*
X0080442Y0102587D02*
X0080389Y0102706D01*
X0080332Y0102822D01*
X0080272Y0102937D01*
X0080208Y0103050D01*
X0080141Y0103161D01*
X0080071Y0103270D01*
X0079997Y0103377D01*
X0079920Y0103481D01*
X0079840Y0103583D01*
X0079756Y0103682D01*
X0079670Y0103779D01*
X0079581Y0103873D01*
X0079489Y0103965D01*
X0079394Y0104053D01*
X0079296Y0104139D01*
X0079196Y0104221D01*
X0079094Y0104300D01*
X0078989Y0104377D01*
X0078882Y0104450D01*
X0078772Y0104519D01*
X0078661Y0104586D01*
X0078547Y0104648D01*
X0078432Y0104708D01*
X0078315Y0104763D01*
X0078196Y0104816D01*
X0078076Y0104864D01*
X0077954Y0104909D01*
X0077831Y0104950D01*
X0077707Y0104987D01*
X0077581Y0105020D01*
X0077455Y0105050D01*
X0077328Y0105076D01*
X0077200Y0105097D01*
X0077072Y0105115D01*
X0076943Y0105129D01*
X0076813Y0105139D01*
X0076684Y0105145D01*
X0076554Y0105147D01*
X0076424Y0105145D01*
X0076295Y0105139D01*
X0076165Y0105129D01*
X0076036Y0105115D01*
X0075908Y0105097D01*
X0075780Y0105076D01*
X0075653Y0105050D01*
X0075527Y0105020D01*
X0075401Y0104987D01*
X0075277Y0104950D01*
X0075154Y0104909D01*
X0075032Y0104864D01*
X0074912Y0104816D01*
X0074793Y0104763D01*
X0074676Y0104708D01*
X0074561Y0104648D01*
X0074447Y0104586D01*
X0074336Y0104519D01*
X0074226Y0104450D01*
X0074119Y0104377D01*
X0074014Y0104300D01*
X0073912Y0104221D01*
X0073812Y0104139D01*
X0073714Y0104053D01*
X0073619Y0103965D01*
X0073527Y0103873D01*
X0073438Y0103779D01*
X0073352Y0103682D01*
X0073268Y0103583D01*
X0073188Y0103481D01*
X0073111Y0103377D01*
X0073037Y0103270D01*
X0072967Y0103161D01*
X0072900Y0103050D01*
X0072836Y0102937D01*
X0072776Y0102822D01*
X0072719Y0102706D01*
X0072666Y0102587D01*
X0071091Y0102882D02*
X0071145Y0103024D01*
X0071201Y0103164D01*
X0071262Y0103303D01*
X0071326Y0103440D01*
X0071393Y0103576D01*
X0071465Y0103709D01*
X0071539Y0103841D01*
X0071617Y0103971D01*
X0071698Y0104098D01*
X0071783Y0104224D01*
X0071871Y0104347D01*
X0071962Y0104468D01*
X0072056Y0104586D01*
X0072153Y0104702D01*
X0072253Y0104816D01*
X0072357Y0104926D01*
X0072463Y0105034D01*
X0072571Y0105140D01*
X0072683Y0105242D01*
X0072797Y0105341D01*
X0072914Y0105438D01*
X0073033Y0105531D01*
X0073154Y0105621D01*
X0073278Y0105708D01*
X0073404Y0105792D01*
X0073532Y0105873D01*
X0073662Y0105950D01*
X0073795Y0106023D01*
X0073929Y0106094D01*
X0074065Y0106160D01*
X0074202Y0106223D01*
X0074341Y0106283D01*
X0074482Y0106339D01*
X0074624Y0106391D01*
X0074767Y0106439D01*
X0074912Y0106484D01*
X0075058Y0106525D01*
X0075204Y0106562D01*
X0075352Y0106595D01*
X0075500Y0106625D01*
X0075650Y0106650D01*
X0075799Y0106672D01*
X0075950Y0106689D01*
X0076100Y0106703D01*
X0076251Y0106713D01*
X0076403Y0106719D01*
X0076554Y0106721D01*
X0076705Y0106719D01*
X0076857Y0106713D01*
X0077008Y0106703D01*
X0077158Y0106689D01*
X0077309Y0106672D01*
X0077458Y0106650D01*
X0077608Y0106625D01*
X0077756Y0106595D01*
X0077904Y0106562D01*
X0078050Y0106525D01*
X0078196Y0106484D01*
X0078341Y0106439D01*
X0078484Y0106391D01*
X0078626Y0106339D01*
X0078767Y0106283D01*
X0078906Y0106223D01*
X0079043Y0106160D01*
X0079179Y0106094D01*
X0079313Y0106023D01*
X0079446Y0105950D01*
X0079576Y0105873D01*
X0079704Y0105792D01*
X0079830Y0105708D01*
X0079954Y0105621D01*
X0080075Y0105531D01*
X0080194Y0105438D01*
X0080311Y0105341D01*
X0080425Y0105242D01*
X0080537Y0105140D01*
X0080645Y0105034D01*
X0080751Y0104926D01*
X0080855Y0104816D01*
X0080955Y0104702D01*
X0081052Y0104586D01*
X0081146Y0104468D01*
X0081237Y0104347D01*
X0081325Y0104224D01*
X0081410Y0104098D01*
X0081491Y0103971D01*
X0081569Y0103841D01*
X0081643Y0103709D01*
X0081715Y0103576D01*
X0081782Y0103440D01*
X0081846Y0103303D01*
X0081907Y0103164D01*
X0081963Y0103024D01*
X0082017Y0102882D01*
X0084467Y0103647D02*
X0089095Y0097277D01*
X0097933Y0103698D01*
X0093305Y0110069D01*
X0092205Y0108904D02*
X0095734Y0104047D01*
X0089443Y0099476D01*
X0085914Y0104334D01*
X0088289Y0107763D02*
X0088413Y0107759D01*
X0088537Y0107751D01*
X0088660Y0107740D01*
X0088783Y0107724D01*
X0088905Y0107705D01*
X0089027Y0107682D01*
X0089147Y0107655D01*
X0089267Y0107624D01*
X0089386Y0107590D01*
X0089504Y0107552D01*
X0089620Y0107510D01*
X0089736Y0107464D01*
X0089849Y0107415D01*
X0089961Y0107363D01*
X0090071Y0107307D01*
X0090180Y0107247D01*
X0090287Y0107184D01*
X0090391Y0107118D01*
X0090493Y0107048D01*
X0090594Y0106976D01*
X0090691Y0106900D01*
X0090787Y0106821D01*
X0090880Y0106739D01*
X0090970Y0106654D01*
X0091057Y0106567D01*
X0091142Y0106477D01*
X0091224Y0106384D01*
X0091303Y0106288D01*
X0091379Y0106191D01*
X0091452Y0106091D01*
X0091521Y0105988D01*
X0091587Y0105884D01*
X0091650Y0105777D01*
X0091710Y0105669D01*
X0091766Y0105558D01*
X0091819Y0105446D01*
X0091868Y0105333D01*
X0091913Y0105218D01*
X0091955Y0105101D01*
X0091994Y0104983D01*
X0092028Y0104865D01*
X0092059Y0104745D01*
X0092086Y0104624D01*
X0092109Y0104502D01*
X0092128Y0104380D01*
X0092144Y0104257D01*
X0092155Y0104134D01*
X0092163Y0104011D01*
X0092167Y0103887D01*
X0092166Y0103763D01*
X0092162Y0103639D01*
X0092155Y0103516D01*
X0092143Y0103393D01*
X0092127Y0103270D01*
X0092108Y0103148D01*
X0092084Y0103026D01*
X0092057Y0102905D01*
X0092026Y0102785D01*
X0091992Y0102667D01*
X0092205Y0108903D02*
X0092092Y0108968D01*
X0091978Y0109029D01*
X0091862Y0109086D01*
X0091744Y0109140D01*
X0091624Y0109191D01*
X0091503Y0109237D01*
X0091381Y0109280D01*
X0091257Y0109319D01*
X0091132Y0109354D01*
X0091007Y0109386D01*
X0090880Y0109413D01*
X0090752Y0109437D01*
X0090624Y0109457D01*
X0090495Y0109473D01*
X0090366Y0109485D01*
X0090237Y0109493D01*
X0090107Y0109497D01*
X0089978Y0109496D01*
X0089848Y0109493D01*
X0089719Y0109485D01*
X0089589Y0109473D01*
X0089461Y0109457D01*
X0089333Y0109437D01*
X0089205Y0109413D01*
X0089078Y0109386D01*
X0088953Y0109354D01*
X0088828Y0109319D01*
X0088704Y0109280D01*
X0088582Y0109237D01*
X0088461Y0109190D01*
X0088341Y0109140D01*
X0088223Y0109086D01*
X0088107Y0109028D01*
X0087993Y0108967D01*
X0087880Y0108903D01*
X0087770Y0108835D01*
X0087662Y0108763D01*
X0087556Y0108689D01*
X0087452Y0108611D01*
X0087351Y0108530D01*
X0087252Y0108446D01*
X0087156Y0108359D01*
X0087062Y0108269D01*
X0086972Y0108176D01*
X0086884Y0108081D01*
X0086799Y0107983D01*
X0086717Y0107882D01*
X0086639Y0107779D01*
X0086563Y0107674D01*
X0086491Y0107566D01*
X0086422Y0107456D01*
X0086357Y0107344D01*
X0086295Y0107230D01*
X0086236Y0107114D01*
X0086182Y0106997D01*
X0086130Y0106878D01*
X0086083Y0106757D01*
X0086039Y0106635D01*
X0085999Y0106512D01*
X0085962Y0106387D01*
X0085930Y0106262D01*
X0085901Y0106135D01*
X0085877Y0106008D01*
X0085856Y0105880D01*
X0085839Y0105751D01*
X0085826Y0105622D01*
X0085817Y0105493D01*
X0085812Y0105363D01*
X0085811Y0105234D01*
X0085814Y0105104D01*
X0085821Y0104975D01*
X0085832Y0104845D01*
X0085847Y0104716D01*
X0085865Y0104588D01*
X0085888Y0104461D01*
X0085915Y0104334D01*
X0084466Y0103647D02*
X0084426Y0103793D01*
X0084390Y0103939D01*
X0084357Y0104087D01*
X0084328Y0104236D01*
X0084303Y0104385D01*
X0084282Y0104535D01*
X0084265Y0104685D01*
X0084252Y0104836D01*
X0084243Y0104987D01*
X0084237Y0105138D01*
X0084236Y0105290D01*
X0084239Y0105441D01*
X0084245Y0105592D01*
X0084256Y0105743D01*
X0084270Y0105894D01*
X0084288Y0106044D01*
X0084311Y0106194D01*
X0084337Y0106343D01*
X0084367Y0106491D01*
X0084401Y0106639D01*
X0084438Y0106785D01*
X0084480Y0106931D01*
X0084525Y0107075D01*
X0084574Y0107218D01*
X0084627Y0107360D01*
X0084683Y0107501D01*
X0084743Y0107640D01*
X0084807Y0107777D01*
X0084874Y0107912D01*
X0084945Y0108046D01*
X0085019Y0108178D01*
X0085097Y0108308D01*
X0085178Y0108436D01*
X0085262Y0108562D01*
X0085349Y0108685D01*
X0085440Y0108806D01*
X0085534Y0108925D01*
X0085631Y0109041D01*
X0085731Y0109155D01*
X0085834Y0109266D01*
X0085939Y0109374D01*
X0086048Y0109480D01*
X0086159Y0109582D01*
X0086273Y0109682D01*
X0086389Y0109779D01*
X0086508Y0109873D01*
X0086629Y0109963D01*
X0086753Y0110050D01*
X0086879Y0110135D01*
X0087007Y0110215D01*
X0087137Y0110293D01*
X0087269Y0110367D01*
X0087403Y0110437D01*
X0087538Y0110504D01*
X0087676Y0110568D01*
X0087815Y0110628D01*
X0087955Y0110684D01*
X0088097Y0110737D01*
X0088240Y0110785D01*
X0088385Y0110830D01*
X0088530Y0110872D01*
X0088677Y0110909D01*
X0088825Y0110943D01*
X0088973Y0110973D01*
X0089122Y0110999D01*
X0089272Y0111021D01*
X0089422Y0111039D01*
X0089573Y0111053D01*
X0089724Y0111063D01*
X0089875Y0111070D01*
X0090026Y0111072D01*
X0090177Y0111070D01*
X0090329Y0111065D01*
X0090480Y0111055D01*
X0090631Y0111042D01*
X0090781Y0111025D01*
X0090931Y0111004D01*
X0091080Y0110978D01*
X0091228Y0110949D01*
X0091376Y0110917D01*
X0091523Y0110880D01*
X0091669Y0110839D01*
X0091814Y0110795D01*
X0091957Y0110747D01*
X0092099Y0110695D01*
X0092240Y0110640D01*
X0092379Y0110581D01*
X0092517Y0110518D01*
X0092653Y0110452D01*
X0092787Y0110382D01*
X0092920Y0110309D01*
X0093050Y0110232D01*
X0093179Y0110152D01*
X0093305Y0110068D01*
X0088289Y0107762D02*
X0088255Y0107644D01*
X0088224Y0107524D01*
X0088197Y0107403D01*
X0088173Y0107281D01*
X0088154Y0107159D01*
X0088138Y0107036D01*
X0088126Y0106913D01*
X0088119Y0106790D01*
X0088115Y0106666D01*
X0088114Y0106542D01*
X0088118Y0106418D01*
X0088126Y0106295D01*
X0088137Y0106172D01*
X0088153Y0106049D01*
X0088172Y0105927D01*
X0088195Y0105805D01*
X0088222Y0105684D01*
X0088253Y0105564D01*
X0088287Y0105446D01*
X0088326Y0105328D01*
X0088368Y0105211D01*
X0088413Y0105096D01*
X0088462Y0104983D01*
X0088515Y0104871D01*
X0088571Y0104760D01*
X0088631Y0104652D01*
X0088694Y0104545D01*
X0088760Y0104441D01*
X0088829Y0104338D01*
X0088902Y0104238D01*
X0088978Y0104141D01*
X0089057Y0104045D01*
X0089139Y0103952D01*
X0089224Y0103862D01*
X0089311Y0103775D01*
X0089401Y0103690D01*
X0089494Y0103608D01*
X0089590Y0103529D01*
X0089687Y0103453D01*
X0089788Y0103381D01*
X0089890Y0103311D01*
X0089994Y0103245D01*
X0090101Y0103182D01*
X0090210Y0103122D01*
X0090320Y0103066D01*
X0090432Y0103014D01*
X0090545Y0102965D01*
X0090661Y0102919D01*
X0090777Y0102877D01*
X0090895Y0102839D01*
X0091014Y0102805D01*
X0091134Y0102774D01*
X0091254Y0102747D01*
X0091376Y0102724D01*
X0091498Y0102705D01*
X0091621Y0102689D01*
X0091744Y0102678D01*
X0091868Y0102670D01*
X0091992Y0102666D01*
X0076603Y0103966D02*
X0076505Y0103890D01*
X0076410Y0103811D01*
X0076317Y0103729D01*
X0076226Y0103645D01*
X0076139Y0103557D01*
X0076054Y0103467D01*
X0075972Y0103374D01*
X0075893Y0103279D01*
X0075817Y0103181D01*
X0075744Y0103081D01*
X0075675Y0102979D01*
X0075608Y0102874D01*
X0075545Y0102768D01*
X0075486Y0102659D01*
X0075429Y0102549D01*
X0075376Y0102437D01*
X0075327Y0102324D01*
X0075282Y0102209D01*
X0075240Y0102092D01*
X0075201Y0101974D01*
X0075167Y0101856D01*
X0075136Y0101736D01*
X0075109Y0101615D01*
X0075086Y0101493D01*
X0075066Y0101371D01*
X0075051Y0101248D01*
X0075039Y0101125D01*
X0075031Y0101002D01*
X0075027Y0100878D01*
X0075027Y0100754D01*
X0075031Y0100630D01*
X0075039Y0100507D01*
X0075051Y0100384D01*
X0075066Y0100261D01*
X0075086Y0100139D01*
X0075109Y0100017D01*
X0075136Y0099896D01*
X0075167Y0099776D01*
X0075201Y0099658D01*
X0075240Y0099540D01*
X0075282Y0099423D01*
X0075327Y0099308D01*
X0075376Y0099195D01*
X0075429Y0099083D01*
X0075486Y0098973D01*
X0075545Y0098864D01*
X0075608Y0098758D01*
X0075675Y0098653D01*
X0075744Y0098551D01*
X0075817Y0098451D01*
X0075893Y0098353D01*
X0075972Y0098258D01*
X0076054Y0098165D01*
X0076139Y0098075D01*
X0076226Y0097987D01*
X0076317Y0097903D01*
X0076410Y0097821D01*
X0076505Y0097742D01*
X0076603Y0097666D01*
X0064917Y0107763D02*
X0064793Y0107759D01*
X0064669Y0107751D01*
X0064546Y0107740D01*
X0064423Y0107724D01*
X0064301Y0107705D01*
X0064179Y0107682D01*
X0064059Y0107655D01*
X0063939Y0107624D01*
X0063820Y0107590D01*
X0063702Y0107552D01*
X0063586Y0107510D01*
X0063470Y0107464D01*
X0063357Y0107415D01*
X0063245Y0107363D01*
X0063135Y0107307D01*
X0063026Y0107247D01*
X0062919Y0107184D01*
X0062815Y0107118D01*
X0062713Y0107048D01*
X0062612Y0106976D01*
X0062515Y0106900D01*
X0062419Y0106821D01*
X0062326Y0106739D01*
X0062236Y0106654D01*
X0062149Y0106567D01*
X0062064Y0106477D01*
X0061982Y0106384D01*
X0061903Y0106288D01*
X0061827Y0106191D01*
X0061754Y0106091D01*
X0061685Y0105988D01*
X0061619Y0105884D01*
X0061556Y0105777D01*
X0061496Y0105669D01*
X0061440Y0105558D01*
X0061387Y0105446D01*
X0061338Y0105333D01*
X0061293Y0105218D01*
X0061251Y0105101D01*
X0061212Y0104983D01*
X0061178Y0104865D01*
X0061147Y0104745D01*
X0061120Y0104624D01*
X0061097Y0104502D01*
X0061078Y0104380D01*
X0061062Y0104257D01*
X0061051Y0104134D01*
X0061043Y0104011D01*
X0061039Y0103887D01*
X0061040Y0103763D01*
X0061044Y0103639D01*
X0061051Y0103516D01*
X0061063Y0103393D01*
X0061079Y0103270D01*
X0061098Y0103148D01*
X0061122Y0103026D01*
X0061149Y0102905D01*
X0061180Y0102785D01*
X0061214Y0102667D01*
X0057694Y0117704D02*
X0057592Y0117773D01*
X0057488Y0117840D01*
X0057381Y0117903D01*
X0057273Y0117963D01*
X0057163Y0118019D01*
X0057051Y0118072D01*
X0056937Y0118121D01*
X0056822Y0118167D01*
X0056706Y0118209D01*
X0056588Y0118247D01*
X0056469Y0118282D01*
X0056349Y0118313D01*
X0056229Y0118340D01*
X0056107Y0118363D01*
X0055985Y0118382D01*
X0055862Y0118398D01*
X0055739Y0118410D01*
X0055615Y0118418D01*
X0055491Y0118421D01*
X0055368Y0118422D01*
X0055244Y0118418D01*
X0055120Y0118410D01*
X0054997Y0118398D01*
X0054874Y0118383D01*
X0054752Y0118364D01*
X0054631Y0118340D01*
X0054510Y0118313D01*
X0054390Y0118283D01*
X0054271Y0118248D01*
X0054153Y0118210D01*
X0054037Y0118168D01*
X0053922Y0118122D01*
X0053808Y0118073D01*
X0053696Y0118020D01*
X0053586Y0117964D01*
X0053478Y0117905D01*
X0053371Y0117842D01*
X0053267Y0117775D01*
X0053164Y0117706D01*
X0053064Y0117633D01*
X0052966Y0117557D01*
X0052871Y0117478D01*
X0052778Y0117396D01*
X0052688Y0117311D01*
X0052601Y0117224D01*
X0052516Y0117133D01*
X0052434Y0117041D01*
X0052355Y0116945D01*
X0052279Y0116847D01*
X0052207Y0116747D01*
X0052137Y0116645D01*
X0052071Y0116540D01*
X0052008Y0116434D01*
X0051949Y0116325D01*
X0051893Y0116215D01*
X0051840Y0116103D01*
X0051791Y0115989D01*
X0051746Y0115874D01*
X0051704Y0115757D01*
X0057694Y0129990D02*
X0057652Y0130107D01*
X0057607Y0130222D01*
X0057558Y0130336D01*
X0057505Y0130448D01*
X0057449Y0130558D01*
X0057390Y0130667D01*
X0057327Y0130773D01*
X0057261Y0130878D01*
X0057191Y0130980D01*
X0057119Y0131080D01*
X0057043Y0131178D01*
X0056964Y0131274D01*
X0056882Y0131366D01*
X0056797Y0131457D01*
X0056710Y0131544D01*
X0056620Y0131629D01*
X0056527Y0131711D01*
X0056432Y0131790D01*
X0056334Y0131866D01*
X0056234Y0131939D01*
X0056131Y0132008D01*
X0056027Y0132075D01*
X0055920Y0132138D01*
X0055812Y0132197D01*
X0055702Y0132253D01*
X0055590Y0132306D01*
X0055476Y0132355D01*
X0055361Y0132401D01*
X0055245Y0132443D01*
X0055127Y0132481D01*
X0055008Y0132516D01*
X0054888Y0132546D01*
X0054767Y0132573D01*
X0054646Y0132597D01*
X0054524Y0132616D01*
X0054401Y0132631D01*
X0054278Y0132643D01*
X0054154Y0132651D01*
X0054030Y0132655D01*
X0053907Y0132654D01*
X0053783Y0132651D01*
X0053659Y0132643D01*
X0053536Y0132631D01*
X0053413Y0132615D01*
X0053291Y0132596D01*
X0053169Y0132573D01*
X0053049Y0132546D01*
X0052929Y0132515D01*
X0052810Y0132480D01*
X0052692Y0132442D01*
X0052576Y0132400D01*
X0052461Y0132354D01*
X0052347Y0132305D01*
X0052235Y0132252D01*
X0052125Y0132196D01*
X0052017Y0132136D01*
X0051910Y0132073D01*
X0051806Y0132006D01*
X0051704Y0131937D01*
X0064917Y0139932D02*
X0064951Y0140050D01*
X0064982Y0140170D01*
X0065009Y0140291D01*
X0065033Y0140413D01*
X0065052Y0140535D01*
X0065068Y0140658D01*
X0065080Y0140781D01*
X0065087Y0140904D01*
X0065091Y0141028D01*
X0065092Y0141152D01*
X0065088Y0141276D01*
X0065080Y0141399D01*
X0065069Y0141522D01*
X0065053Y0141645D01*
X0065034Y0141767D01*
X0065011Y0141889D01*
X0064984Y0142010D01*
X0064953Y0142130D01*
X0064918Y0142249D01*
X0064880Y0142366D01*
X0064838Y0142483D01*
X0064793Y0142598D01*
X0064744Y0142712D01*
X0064691Y0142824D01*
X0064635Y0142934D01*
X0064575Y0143042D01*
X0064512Y0143149D01*
X0064446Y0143253D01*
X0064376Y0143356D01*
X0064304Y0143456D01*
X0064228Y0143554D01*
X0064149Y0143649D01*
X0064067Y0143742D01*
X0063982Y0143832D01*
X0063895Y0143920D01*
X0063804Y0144004D01*
X0063712Y0144086D01*
X0063616Y0144165D01*
X0063518Y0144241D01*
X0063418Y0144313D01*
X0063316Y0144383D01*
X0063211Y0144449D01*
X0063105Y0144512D01*
X0062996Y0144572D01*
X0062886Y0144628D01*
X0062774Y0144680D01*
X0062660Y0144730D01*
X0062545Y0144775D01*
X0062429Y0144817D01*
X0062311Y0144855D01*
X0062192Y0144889D01*
X0062072Y0144920D01*
X0061951Y0144947D01*
X0061830Y0144970D01*
X0061707Y0144989D01*
X0061585Y0145005D01*
X0061461Y0145016D01*
X0061338Y0145024D01*
X0061214Y0145028D01*
X0076603Y0143728D02*
X0076701Y0143804D01*
X0076796Y0143883D01*
X0076889Y0143965D01*
X0076979Y0144049D01*
X0077067Y0144137D01*
X0077152Y0144227D01*
X0077234Y0144320D01*
X0077313Y0144415D01*
X0077389Y0144513D01*
X0077462Y0144613D01*
X0077531Y0144715D01*
X0077598Y0144819D01*
X0077661Y0144926D01*
X0077720Y0145034D01*
X0077777Y0145145D01*
X0077829Y0145257D01*
X0077879Y0145370D01*
X0077924Y0145485D01*
X0077966Y0145602D01*
X0078005Y0145719D01*
X0078039Y0145838D01*
X0078070Y0145958D01*
X0078097Y0146079D01*
X0078120Y0146201D01*
X0078140Y0146323D01*
X0078155Y0146446D01*
X0078167Y0146569D01*
X0078175Y0146692D01*
X0078179Y0146816D01*
X0078179Y0146940D01*
X0078175Y0147064D01*
X0078167Y0147187D01*
X0078155Y0147310D01*
X0078140Y0147433D01*
X0078120Y0147555D01*
X0078097Y0147677D01*
X0078070Y0147798D01*
X0078039Y0147918D01*
X0078005Y0148037D01*
X0077966Y0148154D01*
X0077924Y0148271D01*
X0077879Y0148386D01*
X0077829Y0148499D01*
X0077777Y0148611D01*
X0077720Y0148722D01*
X0077661Y0148830D01*
X0077598Y0148937D01*
X0077531Y0149041D01*
X0077462Y0149143D01*
X0077389Y0149243D01*
X0077313Y0149341D01*
X0077234Y0149436D01*
X0077152Y0149529D01*
X0077067Y0149619D01*
X0076979Y0149707D01*
X0076889Y0149791D01*
X0076796Y0149873D01*
X0076701Y0149952D01*
X0076603Y0150028D01*
X0088289Y0139931D02*
X0088413Y0139935D01*
X0088537Y0139943D01*
X0088660Y0139954D01*
X0088783Y0139970D01*
X0088905Y0139989D01*
X0089027Y0140012D01*
X0089147Y0140039D01*
X0089267Y0140070D01*
X0089386Y0140104D01*
X0089504Y0140142D01*
X0089620Y0140184D01*
X0089736Y0140230D01*
X0089849Y0140279D01*
X0089961Y0140331D01*
X0090071Y0140387D01*
X0090180Y0140447D01*
X0090287Y0140510D01*
X0090391Y0140576D01*
X0090493Y0140646D01*
X0090594Y0140718D01*
X0090691Y0140794D01*
X0090787Y0140873D01*
X0090880Y0140955D01*
X0090970Y0141040D01*
X0091057Y0141127D01*
X0091142Y0141217D01*
X0091224Y0141310D01*
X0091303Y0141406D01*
X0091379Y0141503D01*
X0091452Y0141603D01*
X0091521Y0141706D01*
X0091587Y0141810D01*
X0091650Y0141917D01*
X0091710Y0142025D01*
X0091766Y0142136D01*
X0091819Y0142248D01*
X0091868Y0142361D01*
X0091913Y0142476D01*
X0091955Y0142593D01*
X0091994Y0142711D01*
X0092028Y0142829D01*
X0092059Y0142949D01*
X0092086Y0143070D01*
X0092109Y0143192D01*
X0092128Y0143314D01*
X0092144Y0143437D01*
X0092155Y0143560D01*
X0092163Y0143683D01*
X0092167Y0143807D01*
X0092166Y0143931D01*
X0092162Y0144055D01*
X0092155Y0144178D01*
X0092143Y0144301D01*
X0092127Y0144424D01*
X0092108Y0144546D01*
X0092084Y0144668D01*
X0092057Y0144789D01*
X0092026Y0144909D01*
X0091992Y0145027D01*
X0064864Y0123847D02*
X0064868Y0124135D01*
X0064878Y0124423D01*
X0064896Y0124711D01*
X0064921Y0124998D01*
X0064952Y0125284D01*
X0064991Y0125569D01*
X0065037Y0125854D01*
X0065090Y0126137D01*
X0065149Y0126419D01*
X0065216Y0126699D01*
X0065289Y0126978D01*
X0065369Y0127255D01*
X0065456Y0127529D01*
X0065550Y0127802D01*
X0065651Y0128072D01*
X0065758Y0128339D01*
X0065871Y0128604D01*
X0065991Y0128866D01*
X0066117Y0129125D01*
X0066250Y0129381D01*
X0066389Y0129633D01*
X0066534Y0129882D01*
X0066685Y0130127D01*
X0066842Y0130369D01*
X0067005Y0130606D01*
X0067174Y0130840D01*
X0067349Y0131069D01*
X0067529Y0131294D01*
X0067714Y0131515D01*
X0067905Y0131730D01*
X0068101Y0131942D01*
X0068302Y0132148D01*
X0068508Y0132349D01*
X0068720Y0132545D01*
X0068935Y0132736D01*
X0069156Y0132921D01*
X0069381Y0133101D01*
X0069610Y0133276D01*
X0069844Y0133445D01*
X0070081Y0133608D01*
X0070323Y0133765D01*
X0070568Y0133916D01*
X0070817Y0134061D01*
X0071069Y0134200D01*
X0071325Y0134333D01*
X0071584Y0134459D01*
X0071846Y0134579D01*
X0072111Y0134692D01*
X0072378Y0134799D01*
X0072648Y0134900D01*
X0072921Y0134994D01*
X0073195Y0135081D01*
X0073472Y0135161D01*
X0073751Y0135234D01*
X0074031Y0135301D01*
X0074313Y0135360D01*
X0074596Y0135413D01*
X0074881Y0135459D01*
X0075166Y0135498D01*
X0075452Y0135529D01*
X0075739Y0135554D01*
X0076027Y0135572D01*
X0076315Y0135582D01*
X0076603Y0135586D01*
X0076891Y0135582D01*
X0077179Y0135572D01*
X0077467Y0135554D01*
X0077754Y0135529D01*
X0078040Y0135498D01*
X0078325Y0135459D01*
X0078610Y0135413D01*
X0078893Y0135360D01*
X0079175Y0135301D01*
X0079455Y0135234D01*
X0079734Y0135161D01*
X0080011Y0135081D01*
X0080285Y0134994D01*
X0080558Y0134900D01*
X0080828Y0134799D01*
X0081095Y0134692D01*
X0081360Y0134579D01*
X0081622Y0134459D01*
X0081881Y0134333D01*
X0082137Y0134200D01*
X0082389Y0134061D01*
X0082638Y0133916D01*
X0082883Y0133765D01*
X0083125Y0133608D01*
X0083362Y0133445D01*
X0083596Y0133276D01*
X0083825Y0133101D01*
X0084050Y0132921D01*
X0084271Y0132736D01*
X0084486Y0132545D01*
X0084698Y0132349D01*
X0084904Y0132148D01*
X0085105Y0131942D01*
X0085301Y0131730D01*
X0085492Y0131515D01*
X0085677Y0131294D01*
X0085857Y0131069D01*
X0086032Y0130840D01*
X0086201Y0130606D01*
X0086364Y0130369D01*
X0086521Y0130127D01*
X0086672Y0129882D01*
X0086817Y0129633D01*
X0086956Y0129381D01*
X0087089Y0129125D01*
X0087215Y0128866D01*
X0087335Y0128604D01*
X0087448Y0128339D01*
X0087555Y0128072D01*
X0087656Y0127802D01*
X0087750Y0127529D01*
X0087837Y0127255D01*
X0087917Y0126978D01*
X0087990Y0126699D01*
X0088057Y0126419D01*
X0088116Y0126137D01*
X0088169Y0125854D01*
X0088215Y0125569D01*
X0088254Y0125284D01*
X0088285Y0124998D01*
X0088310Y0124711D01*
X0088328Y0124423D01*
X0088338Y0124135D01*
X0088342Y0123847D01*
X0088338Y0123559D01*
X0088328Y0123271D01*
X0088310Y0122983D01*
X0088285Y0122696D01*
X0088254Y0122410D01*
X0088215Y0122125D01*
X0088169Y0121840D01*
X0088116Y0121557D01*
X0088057Y0121275D01*
X0087990Y0120995D01*
X0087917Y0120716D01*
X0087837Y0120439D01*
X0087750Y0120165D01*
X0087656Y0119892D01*
X0087555Y0119622D01*
X0087448Y0119355D01*
X0087335Y0119090D01*
X0087215Y0118828D01*
X0087089Y0118569D01*
X0086956Y0118313D01*
X0086817Y0118061D01*
X0086672Y0117812D01*
X0086521Y0117567D01*
X0086364Y0117325D01*
X0086201Y0117088D01*
X0086032Y0116854D01*
X0085857Y0116625D01*
X0085677Y0116400D01*
X0085492Y0116179D01*
X0085301Y0115964D01*
X0085105Y0115752D01*
X0084904Y0115546D01*
X0084698Y0115345D01*
X0084486Y0115149D01*
X0084271Y0114958D01*
X0084050Y0114773D01*
X0083825Y0114593D01*
X0083596Y0114418D01*
X0083362Y0114249D01*
X0083125Y0114086D01*
X0082883Y0113929D01*
X0082638Y0113778D01*
X0082389Y0113633D01*
X0082137Y0113494D01*
X0081881Y0113361D01*
X0081622Y0113235D01*
X0081360Y0113115D01*
X0081095Y0113002D01*
X0080828Y0112895D01*
X0080558Y0112794D01*
X0080285Y0112700D01*
X0080011Y0112613D01*
X0079734Y0112533D01*
X0079455Y0112460D01*
X0079175Y0112393D01*
X0078893Y0112334D01*
X0078610Y0112281D01*
X0078325Y0112235D01*
X0078040Y0112196D01*
X0077754Y0112165D01*
X0077467Y0112140D01*
X0077179Y0112122D01*
X0076891Y0112112D01*
X0076603Y0112108D01*
X0076315Y0112112D01*
X0076027Y0112122D01*
X0075739Y0112140D01*
X0075452Y0112165D01*
X0075166Y0112196D01*
X0074881Y0112235D01*
X0074596Y0112281D01*
X0074313Y0112334D01*
X0074031Y0112393D01*
X0073751Y0112460D01*
X0073472Y0112533D01*
X0073195Y0112613D01*
X0072921Y0112700D01*
X0072648Y0112794D01*
X0072378Y0112895D01*
X0072111Y0113002D01*
X0071846Y0113115D01*
X0071584Y0113235D01*
X0071325Y0113361D01*
X0071069Y0113494D01*
X0070817Y0113633D01*
X0070568Y0113778D01*
X0070323Y0113929D01*
X0070081Y0114086D01*
X0069844Y0114249D01*
X0069610Y0114418D01*
X0069381Y0114593D01*
X0069156Y0114773D01*
X0068935Y0114958D01*
X0068720Y0115149D01*
X0068508Y0115345D01*
X0068302Y0115546D01*
X0068101Y0115752D01*
X0067905Y0115964D01*
X0067714Y0116179D01*
X0067529Y0116400D01*
X0067349Y0116625D01*
X0067174Y0116854D01*
X0067005Y0117088D01*
X0066842Y0117325D01*
X0066685Y0117567D01*
X0066534Y0117812D01*
X0066389Y0118061D01*
X0066250Y0118313D01*
X0066117Y0118569D01*
X0065991Y0118828D01*
X0065871Y0119090D01*
X0065758Y0119355D01*
X0065651Y0119622D01*
X0065550Y0119892D01*
X0065456Y0120165D01*
X0065369Y0120439D01*
X0065289Y0120716D01*
X0065216Y0120995D01*
X0065149Y0121275D01*
X0065090Y0121557D01*
X0065037Y0121840D01*
X0064991Y0122125D01*
X0064952Y0122410D01*
X0064921Y0122696D01*
X0064896Y0122983D01*
X0064878Y0123271D01*
X0064868Y0123559D01*
X0064864Y0123847D01*
X0069766Y0123847D02*
X0069768Y0124015D01*
X0069774Y0124182D01*
X0069785Y0124350D01*
X0069799Y0124517D01*
X0069817Y0124684D01*
X0069840Y0124850D01*
X0069867Y0125016D01*
X0069897Y0125181D01*
X0069932Y0125345D01*
X0069971Y0125508D01*
X0070014Y0125671D01*
X0070060Y0125832D01*
X0070111Y0125992D01*
X0070166Y0126150D01*
X0070224Y0126308D01*
X0070286Y0126463D01*
X0070353Y0126618D01*
X0070422Y0126770D01*
X0070496Y0126921D01*
X0070573Y0127070D01*
X0070654Y0127217D01*
X0070739Y0127362D01*
X0070827Y0127505D01*
X0070918Y0127645D01*
X0071013Y0127784D01*
X0071111Y0127920D01*
X0071213Y0128053D01*
X0071318Y0128184D01*
X0071426Y0128313D01*
X0071537Y0128438D01*
X0071651Y0128561D01*
X0071769Y0128681D01*
X0071889Y0128799D01*
X0072012Y0128913D01*
X0072137Y0129024D01*
X0072266Y0129132D01*
X0072397Y0129237D01*
X0072530Y0129339D01*
X0072666Y0129437D01*
X0072805Y0129532D01*
X0072945Y0129623D01*
X0073088Y0129711D01*
X0073233Y0129796D01*
X0073380Y0129877D01*
X0073529Y0129954D01*
X0073680Y0130028D01*
X0073832Y0130097D01*
X0073987Y0130164D01*
X0074142Y0130226D01*
X0074300Y0130284D01*
X0074458Y0130339D01*
X0074618Y0130390D01*
X0074779Y0130436D01*
X0074942Y0130479D01*
X0075105Y0130518D01*
X0075269Y0130553D01*
X0075434Y0130583D01*
X0075600Y0130610D01*
X0075766Y0130633D01*
X0075933Y0130651D01*
X0076100Y0130665D01*
X0076268Y0130676D01*
X0076435Y0130682D01*
X0076603Y0130684D01*
X0076771Y0130682D01*
X0076938Y0130676D01*
X0077106Y0130665D01*
X0077273Y0130651D01*
X0077440Y0130633D01*
X0077606Y0130610D01*
X0077772Y0130583D01*
X0077937Y0130553D01*
X0078101Y0130518D01*
X0078264Y0130479D01*
X0078427Y0130436D01*
X0078588Y0130390D01*
X0078748Y0130339D01*
X0078906Y0130284D01*
X0079064Y0130226D01*
X0079219Y0130164D01*
X0079374Y0130097D01*
X0079526Y0130028D01*
X0079677Y0129954D01*
X0079826Y0129877D01*
X0079973Y0129796D01*
X0080118Y0129711D01*
X0080261Y0129623D01*
X0080401Y0129532D01*
X0080540Y0129437D01*
X0080676Y0129339D01*
X0080809Y0129237D01*
X0080940Y0129132D01*
X0081069Y0129024D01*
X0081194Y0128913D01*
X0081317Y0128799D01*
X0081437Y0128681D01*
X0081555Y0128561D01*
X0081669Y0128438D01*
X0081780Y0128313D01*
X0081888Y0128184D01*
X0081993Y0128053D01*
X0082095Y0127920D01*
X0082193Y0127784D01*
X0082288Y0127645D01*
X0082379Y0127505D01*
X0082467Y0127362D01*
X0082552Y0127217D01*
X0082633Y0127070D01*
X0082710Y0126921D01*
X0082784Y0126770D01*
X0082853Y0126618D01*
X0082920Y0126463D01*
X0082982Y0126308D01*
X0083040Y0126150D01*
X0083095Y0125992D01*
X0083146Y0125832D01*
X0083192Y0125671D01*
X0083235Y0125508D01*
X0083274Y0125345D01*
X0083309Y0125181D01*
X0083339Y0125016D01*
X0083366Y0124850D01*
X0083389Y0124684D01*
X0083407Y0124517D01*
X0083421Y0124350D01*
X0083432Y0124182D01*
X0083438Y0124015D01*
X0083440Y0123847D01*
X0083438Y0123679D01*
X0083432Y0123512D01*
X0083421Y0123344D01*
X0083407Y0123177D01*
X0083389Y0123010D01*
X0083366Y0122844D01*
X0083339Y0122678D01*
X0083309Y0122513D01*
X0083274Y0122349D01*
X0083235Y0122186D01*
X0083192Y0122023D01*
X0083146Y0121862D01*
X0083095Y0121702D01*
X0083040Y0121544D01*
X0082982Y0121386D01*
X0082920Y0121231D01*
X0082853Y0121076D01*
X0082784Y0120924D01*
X0082710Y0120773D01*
X0082633Y0120624D01*
X0082552Y0120477D01*
X0082467Y0120332D01*
X0082379Y0120189D01*
X0082288Y0120049D01*
X0082193Y0119910D01*
X0082095Y0119774D01*
X0081993Y0119641D01*
X0081888Y0119510D01*
X0081780Y0119381D01*
X0081669Y0119256D01*
X0081555Y0119133D01*
X0081437Y0119013D01*
X0081317Y0118895D01*
X0081194Y0118781D01*
X0081069Y0118670D01*
X0080940Y0118562D01*
X0080809Y0118457D01*
X0080676Y0118355D01*
X0080540Y0118257D01*
X0080401Y0118162D01*
X0080261Y0118071D01*
X0080118Y0117983D01*
X0079973Y0117898D01*
X0079826Y0117817D01*
X0079677Y0117740D01*
X0079526Y0117666D01*
X0079374Y0117597D01*
X0079219Y0117530D01*
X0079064Y0117468D01*
X0078906Y0117410D01*
X0078748Y0117355D01*
X0078588Y0117304D01*
X0078427Y0117258D01*
X0078264Y0117215D01*
X0078101Y0117176D01*
X0077937Y0117141D01*
X0077772Y0117111D01*
X0077606Y0117084D01*
X0077440Y0117061D01*
X0077273Y0117043D01*
X0077106Y0117029D01*
X0076938Y0117018D01*
X0076771Y0117012D01*
X0076603Y0117010D01*
X0076435Y0117012D01*
X0076268Y0117018D01*
X0076100Y0117029D01*
X0075933Y0117043D01*
X0075766Y0117061D01*
X0075600Y0117084D01*
X0075434Y0117111D01*
X0075269Y0117141D01*
X0075105Y0117176D01*
X0074942Y0117215D01*
X0074779Y0117258D01*
X0074618Y0117304D01*
X0074458Y0117355D01*
X0074300Y0117410D01*
X0074142Y0117468D01*
X0073987Y0117530D01*
X0073832Y0117597D01*
X0073680Y0117666D01*
X0073529Y0117740D01*
X0073380Y0117817D01*
X0073233Y0117898D01*
X0073088Y0117983D01*
X0072945Y0118071D01*
X0072805Y0118162D01*
X0072666Y0118257D01*
X0072530Y0118355D01*
X0072397Y0118457D01*
X0072266Y0118562D01*
X0072137Y0118670D01*
X0072012Y0118781D01*
X0071889Y0118895D01*
X0071769Y0119013D01*
X0071651Y0119133D01*
X0071537Y0119256D01*
X0071426Y0119381D01*
X0071318Y0119510D01*
X0071213Y0119641D01*
X0071111Y0119774D01*
X0071013Y0119910D01*
X0070918Y0120049D01*
X0070827Y0120189D01*
X0070739Y0120332D01*
X0070654Y0120477D01*
X0070573Y0120624D01*
X0070496Y0120773D01*
X0070422Y0120924D01*
X0070353Y0121076D01*
X0070286Y0121231D01*
X0070224Y0121386D01*
X0070166Y0121544D01*
X0070111Y0121702D01*
X0070060Y0121862D01*
X0070014Y0122023D01*
X0069971Y0122186D01*
X0069932Y0122349D01*
X0069897Y0122513D01*
X0069867Y0122678D01*
X0069840Y0122844D01*
X0069817Y0123010D01*
X0069799Y0123177D01*
X0069785Y0123344D01*
X0069774Y0123512D01*
X0069768Y0123679D01*
X0069766Y0123847D01*
X0040579Y0123847D02*
X0040590Y0124731D01*
X0040622Y0125615D01*
X0040677Y0126497D01*
X0040752Y0127378D01*
X0040850Y0128257D01*
X0040969Y0129133D01*
X0041109Y0130006D01*
X0041271Y0130875D01*
X0041454Y0131740D01*
X0041659Y0132600D01*
X0041884Y0133455D01*
X0042130Y0134304D01*
X0042397Y0135147D01*
X0042685Y0135983D01*
X0042993Y0136812D01*
X0043321Y0137633D01*
X0043670Y0138445D01*
X0044038Y0139249D01*
X0044425Y0140044D01*
X0044833Y0140829D01*
X0045259Y0141603D01*
X0045704Y0142367D01*
X0046168Y0143120D01*
X0046650Y0143861D01*
X0047150Y0144590D01*
X0047668Y0145306D01*
X0048204Y0146010D01*
X0048756Y0146700D01*
X0049325Y0147377D01*
X0049911Y0148039D01*
X0050513Y0148687D01*
X0051130Y0149320D01*
X0051763Y0149937D01*
X0052411Y0150539D01*
X0053073Y0151125D01*
X0053750Y0151694D01*
X0054440Y0152246D01*
X0055144Y0152782D01*
X0055860Y0153300D01*
X0056589Y0153800D01*
X0057330Y0154282D01*
X0058083Y0154746D01*
X0058847Y0155191D01*
X0059621Y0155617D01*
X0060406Y0156025D01*
X0061201Y0156412D01*
X0062005Y0156780D01*
X0062817Y0157129D01*
X0063638Y0157457D01*
X0064467Y0157765D01*
X0065303Y0158053D01*
X0066146Y0158320D01*
X0066995Y0158566D01*
X0067850Y0158791D01*
X0068710Y0158996D01*
X0069575Y0159179D01*
X0070444Y0159341D01*
X0071317Y0159481D01*
X0072193Y0159600D01*
X0073072Y0159698D01*
X0073953Y0159773D01*
X0074835Y0159828D01*
X0075719Y0159860D01*
X0076603Y0159871D01*
X0077487Y0159860D01*
X0078371Y0159828D01*
X0079253Y0159773D01*
X0080134Y0159698D01*
X0081013Y0159600D01*
X0081889Y0159481D01*
X0082762Y0159341D01*
X0083631Y0159179D01*
X0084496Y0158996D01*
X0085356Y0158791D01*
X0086211Y0158566D01*
X0087060Y0158320D01*
X0087903Y0158053D01*
X0088739Y0157765D01*
X0089568Y0157457D01*
X0090389Y0157129D01*
X0091201Y0156780D01*
X0092005Y0156412D01*
X0092800Y0156025D01*
X0093585Y0155617D01*
X0094359Y0155191D01*
X0095123Y0154746D01*
X0095876Y0154282D01*
X0096617Y0153800D01*
X0097346Y0153300D01*
X0098062Y0152782D01*
X0098766Y0152246D01*
X0099456Y0151694D01*
X0100133Y0151125D01*
X0100795Y0150539D01*
X0101443Y0149937D01*
X0102076Y0149320D01*
X0102693Y0148687D01*
X0103295Y0148039D01*
X0103881Y0147377D01*
X0104450Y0146700D01*
X0105002Y0146010D01*
X0105538Y0145306D01*
X0106056Y0144590D01*
X0106556Y0143861D01*
X0107038Y0143120D01*
X0107502Y0142367D01*
X0107947Y0141603D01*
X0108373Y0140829D01*
X0108781Y0140044D01*
X0109168Y0139249D01*
X0109536Y0138445D01*
X0109885Y0137633D01*
X0110213Y0136812D01*
X0110521Y0135983D01*
X0110809Y0135147D01*
X0111076Y0134304D01*
X0111322Y0133455D01*
X0111547Y0132600D01*
X0111752Y0131740D01*
X0111935Y0130875D01*
X0112097Y0130006D01*
X0112237Y0129133D01*
X0112356Y0128257D01*
X0112454Y0127378D01*
X0112529Y0126497D01*
X0112584Y0125615D01*
X0112616Y0124731D01*
X0112627Y0123847D01*
X0112616Y0122963D01*
X0112584Y0122079D01*
X0112529Y0121197D01*
X0112454Y0120316D01*
X0112356Y0119437D01*
X0112237Y0118561D01*
X0112097Y0117688D01*
X0111935Y0116819D01*
X0111752Y0115954D01*
X0111547Y0115094D01*
X0111322Y0114239D01*
X0111076Y0113390D01*
X0110809Y0112547D01*
X0110521Y0111711D01*
X0110213Y0110882D01*
X0109885Y0110061D01*
X0109536Y0109249D01*
X0109168Y0108445D01*
X0108781Y0107650D01*
X0108373Y0106865D01*
X0107947Y0106091D01*
X0107502Y0105327D01*
X0107038Y0104574D01*
X0106556Y0103833D01*
X0106056Y0103104D01*
X0105538Y0102388D01*
X0105002Y0101684D01*
X0104450Y0100994D01*
X0103881Y0100317D01*
X0103295Y0099655D01*
X0102693Y0099007D01*
X0102076Y0098374D01*
X0101443Y0097757D01*
X0100795Y0097155D01*
X0100133Y0096569D01*
X0099456Y0096000D01*
X0098766Y0095448D01*
X0098062Y0094912D01*
X0097346Y0094394D01*
X0096617Y0093894D01*
X0095876Y0093412D01*
X0095123Y0092948D01*
X0094359Y0092503D01*
X0093585Y0092077D01*
X0092800Y0091669D01*
X0092005Y0091282D01*
X0091201Y0090914D01*
X0090389Y0090565D01*
X0089568Y0090237D01*
X0088739Y0089929D01*
X0087903Y0089641D01*
X0087060Y0089374D01*
X0086211Y0089128D01*
X0085356Y0088903D01*
X0084496Y0088698D01*
X0083631Y0088515D01*
X0082762Y0088353D01*
X0081889Y0088213D01*
X0081013Y0088094D01*
X0080134Y0087996D01*
X0079253Y0087921D01*
X0078371Y0087866D01*
X0077487Y0087834D01*
X0076603Y0087823D01*
X0075719Y0087834D01*
X0074835Y0087866D01*
X0073953Y0087921D01*
X0073072Y0087996D01*
X0072193Y0088094D01*
X0071317Y0088213D01*
X0070444Y0088353D01*
X0069575Y0088515D01*
X0068710Y0088698D01*
X0067850Y0088903D01*
X0066995Y0089128D01*
X0066146Y0089374D01*
X0065303Y0089641D01*
X0064467Y0089929D01*
X0063638Y0090237D01*
X0062817Y0090565D01*
X0062005Y0090914D01*
X0061201Y0091282D01*
X0060406Y0091669D01*
X0059621Y0092077D01*
X0058847Y0092503D01*
X0058083Y0092948D01*
X0057330Y0093412D01*
X0056589Y0093894D01*
X0055860Y0094394D01*
X0055144Y0094912D01*
X0054440Y0095448D01*
X0053750Y0096000D01*
X0053073Y0096569D01*
X0052411Y0097155D01*
X0051763Y0097757D01*
X0051130Y0098374D01*
X0050513Y0099007D01*
X0049911Y0099655D01*
X0049325Y0100317D01*
X0048756Y0100994D01*
X0048204Y0101684D01*
X0047668Y0102388D01*
X0047150Y0103104D01*
X0046650Y0103833D01*
X0046168Y0104574D01*
X0045704Y0105327D01*
X0045259Y0106091D01*
X0044833Y0106865D01*
X0044425Y0107650D01*
X0044038Y0108445D01*
X0043670Y0109249D01*
X0043321Y0110061D01*
X0042993Y0110882D01*
X0042685Y0111711D01*
X0042397Y0112547D01*
X0042130Y0113390D01*
X0041884Y0114239D01*
X0041659Y0115094D01*
X0041454Y0115954D01*
X0041271Y0116819D01*
X0041109Y0117688D01*
X0040969Y0118561D01*
X0040850Y0119437D01*
X0040752Y0120316D01*
X0040677Y0121197D01*
X0040622Y0122079D01*
X0040590Y0122963D01*
X0040579Y0123847D01*
D12*
X0107938Y0084047D02*
X0111007Y0084047D01*
X0109472Y0084047D02*
X0109472Y0088651D01*
X0111007Y0087117D01*
X0112542Y0088651D02*
X0115611Y0084047D01*
X0117146Y0084815D02*
X0117913Y0084047D01*
X0119448Y0084047D01*
X0120215Y0084815D01*
X0119448Y0086349D02*
X0117913Y0086349D01*
X0117146Y0085582D01*
X0117146Y0084815D01*
X0119448Y0086349D02*
X0120215Y0087117D01*
X0120215Y0087884D01*
X0119448Y0088651D01*
X0117913Y0088651D01*
X0117146Y0087884D01*
X0115611Y0088651D02*
X0112542Y0084047D01*
X0355969Y0084047D02*
X0359039Y0084047D01*
X0355969Y0087117D01*
X0355969Y0087884D01*
X0356737Y0088651D01*
X0358271Y0088651D01*
X0359039Y0087884D01*
X0360573Y0088651D02*
X0363643Y0084047D01*
X0365177Y0084815D02*
X0365944Y0084047D01*
X0367479Y0084047D01*
X0368246Y0084815D01*
X0367479Y0086349D02*
X0365944Y0086349D01*
X0365177Y0085582D01*
X0365177Y0084815D01*
X0367479Y0086349D02*
X0368246Y0087117D01*
X0368246Y0087884D01*
X0367479Y0088651D01*
X0365944Y0088651D01*
X0365177Y0087884D01*
X0363643Y0088651D02*
X0360573Y0084047D01*
D13*
X0345519Y0096544D02*
X0343795Y0096817D01*
X0345519Y0096544D02*
X0343343Y0099540D01*
X0344341Y0100265D02*
X0342344Y0098814D01*
X0097488Y0096544D02*
X0095311Y0099540D01*
X0094313Y0098814D02*
X0096310Y0100265D01*
X0095764Y0096817D02*
X0097488Y0096544D01*
M02*
